<?xml version="1.0" encoding="UTF-8" standalone="no"?>
<svg
   width="64"
   height="64"
   viewBox="0 0 16.933 16.933"
   version="1.1"
   id="svg25"
   sodipodi:docname="application-x-rpm-fedora.svg"
   xml:space="preserve"
   inkscape:version="1.2.2 (b0a8486541, 2022-12-01)"
   xmlns:inkscape="http://www.inkscape.org/namespaces/inkscape"
   xmlns:sodipodi="http://sodipodi.sourceforge.net/DTD/sodipodi-0.dtd"
   xmlns:xlink="http://www.w3.org/1999/xlink"
   xmlns="http://www.w3.org/2000/svg"
   xmlns:svg="http://www.w3.org/2000/svg"><sodipodi:namedview
     id="namedview27"
     pagecolor="#505050"
     bordercolor="#eeeeee"
     borderopacity="1"
     inkscape:showpageshadow="0"
     inkscape:pageopacity="0"
     inkscape:pagecheckerboard="0"
     inkscape:deskcolor="#505050"
     showgrid="false"
     inkscape:zoom="7.9218057"
     inkscape:cx="40.899766"
     inkscape:cy="27.771446"
     inkscape:window-width="1920"
     inkscape:window-height="972"
     inkscape:window-x="0"
     inkscape:window-y="0"
     inkscape:window-maximized="1"
     inkscape:current-layer="svg25" /><defs
     id="defs7"><linearGradient
       id="a"
       x1="49.571"
       x2="51.714"
       y1="52.714"
       y2="54.857"
       gradientTransform="matrix(0.61734,0,0,0.61734,-18.168,-19.05)"
       gradientUnits="userSpaceOnUse"><stop
         offset="0"
         id="stop2" /><stop
         stop-opacity="0"
         offset="1"
         id="stop4" /></linearGradient></defs><rect
     x="2.1170001"
     y="1.0583125"
     width="12.699272"
     height="14.815372"
     ry="1.3229438"
     fill="#fa6a5d"
     style="fill:#294172;fill-opacity:1;stroke-width:0.99995;paint-order:stroke fill markers"
     id="rect9" /><g
     fill="#ffffff"
     id="g23"
     inkscape:label="deco"
     transform="matrix(0.99994268,0,0,0.99995759,1.2131071e-4,3.5740323e-4)"><path
       d="m 14.816,12.171 -3.704,3.704 h 2.381 a 1.32,1.32 0 0 0 1.323,-1.323 z"
       fill="url(#a)"
       fill-rule="evenodd"
       opacity="0.15"
       style="fill:url(#a);paint-order:stroke fill markers"
       id="path11" /><path
       d="m 7.938,6.614 v 1.72 c 0,0.074 0.059,0.133 0.132,0.133 H 8.864 A 0.132,0.132 0 0 0 8.996,8.334 V 6.614 Z M 8.203,7.673 H 8.732 V 8.202 H 8.202 Z M 8.467,1.058 h -0.53 v 0.53 h 0.53 z m 0,0.53 v 0.529 h 0.53 v -0.53 z m 0,0.529 h -0.53 v 0.529 h 0.53 z m 0,0.529 v 0.529 h 0.53 v -0.53 z m 0,0.529 h -0.53 v 0.53 h 0.53 z m 0,0.53 v 0.528 h 0.53 V 3.704 Z m 0,0.528 h -0.53 v 0.53 h 0.53 z m 0,0.53 v 0.529 h 0.53 v -0.53 z m 0,0.529 h -0.53 v 0.529 h 0.53 z m 0,0.529 V 6.35 h 0.53 V 5.82 Z"
       color="#000000"
       id="path13"
       style="opacity:0.5;fill:#ffffff;fill-opacity:1" /></g><g
     id="g1175"
     transform="matrix(0.02113155,0,0,0.02111774,1.8063842,10.544421)"
     style="opacity:0.5"><path
       d="m 77.126289,142.09756 c 0,0 47.844751,0 47.844751,0 0,0 0,47.84478 0,47.84478 0,26.41029 -21.43445,47.84473 -47.844751,47.84473 -26.41031,0 -47.844759,-21.43444 -47.844759,-47.84473 0,-26.41031 21.434449,-47.84478 47.844759,-47.84478 z"
       id="in"
       style="fill:none;stroke:#3c6eb4;stroke-width:29.21" /><use
       transform="rotate(180,124.85576,142.1441)"
       id="finity"
       xlink:href="#in" /><path
       d="m 139.6074,127.52923 v 62.34618 c 0,34.50402 -27.97537,62.48 -62.48061,62.48 -5.23494,0 -8.95649,-0.59101 -13.80235,-1.8577 -7.06595,-1.84912 -12.84046,-7.64253 -12.84286,-14.38111 0,-8.14513 5.91236,-14.0699 14.75029,-14.0699 4.20637,0 5.73267,0.80765 11.89492,0.80765 18.19161,0 32.94764,-14.73519 32.97955,-32.92679 v -28.65657 c 0,-2.56775 -2.08663,-4.64825 -4.65867,-4.64825 l -21.66521,-0.004 c -8.07212,0 -14.59401,-6.43843 -14.59401,-14.53266 -0.0043,-8.14456 6.5888,-14.55657 14.74808,-14.55657"
       id="free"
       style="fill:#ffffff" /><use
       transform="rotate(180,124.85576,142.1441)"
       id="dom"
       xlink:href="#free" /></g></svg>
