<?xml version="1.0" encoding="UTF-8" standalone="no"?>
<svg
   width="64"
   height="64"
   version="1.1"
   id="svg17"
   sodipodi:docname="application-x-deb-ubuntu.svg"
   xml:space="preserve"
   inkscape:version="1.2.2 (b0a8486541, 2022-12-01)"
   xmlns:inkscape="http://www.inkscape.org/namespaces/inkscape"
   xmlns:sodipodi="http://sodipodi.sourceforge.net/DTD/sodipodi-0.dtd"
   xmlns="http://www.w3.org/2000/svg"
   xmlns:svg="http://www.w3.org/2000/svg"><sodipodi:namedview
     id="namedview19"
     pagecolor="#505050"
     bordercolor="#eeeeee"
     borderopacity="1"
     inkscape:showpageshadow="0"
     inkscape:pageopacity="0"
     inkscape:pagecheckerboard="0"
     inkscape:deskcolor="#505050"
     showgrid="false"
     inkscape:zoom="3.9609028"
     inkscape:cx="81.294598"
     inkscape:cy="26.761576"
     inkscape:window-width="1920"
     inkscape:window-height="972"
     inkscape:window-x="0"
     inkscape:window-y="0"
     inkscape:window-maximized="1"
     inkscape:current-layer="svg17" /><defs
     id="defs7"><linearGradient
       id="a"
       x1="49.571"
       x2="51.714"
       y1="52.714"
       y2="54.857"
       gradientTransform="matrix(2.3333,0,0,2.3333,-68.668,-72.001)"
       gradientUnits="userSpaceOnUse"><stop
         offset="0"
         id="stop2" /><stop
         stop-opacity="0"
         offset="1"
         id="stop4" /></linearGradient><style
       id="style1215">
      .cls-1 {
        fill: none;
      }

      .cls-2 {
        fill: #e95420;
      }

      .cls-3 {
        fill: #fff;
      }
    </style></defs><rect
     x="8"
     y="3.9999998"
     width="48"
     height="55.997997"
     ry="4.9999108"
     fill="#f85879"
     style="display:inline;fill:#e95420;fill-opacity:1;stroke-width:0.999981;paint-order:stroke fill markers"
     id="rect9" /><g
     id="g1269"
     style="display:inline;opacity:1;fill:#ffffff;fill-opacity:1"
     transform="matrix(0.15362162,0,0,0.15361613,0.12842835,9.0967107)"
     inkscape:label="logo"><path
       class="cls-3"
       d="m 200.4744,299.12659 c 7.33088,-9.23977 12.49296,-20.16439 14.97543,-31.77011 4.33758,-20.24505 0.28678,-41.48488 -11.11282,-58.70975 -2.71548,6.39884 -7.32192,11.80289 -13.25473,15.5221 6.36298,11.99109 8.29877,25.82835 5.44887,39.13684 -1.39807,6.51534 -3.86261,12.65428 -7.33088,18.26446 5.54745,4.55267 9.46382,10.67368 11.2831,17.56543 z"
       id="path1265"
       style="display:inline;opacity:0.25;fill:#ffffff;fill-opacity:1;stroke-width:0.896195" /><circle
       class="cls-3"
       cx="172.97917"
       cy="195.3024"
       r="23.569931"
       id="circle1259"
       style="opacity:0.5;fill:#ffffff;fill-opacity:1;stroke-width:0.896195" /><path
       class="cls-3"
       d="m 72.990647,213.18148 c 0.600451,-0.0358 1.200902,-0.0448 1.792391,-0.0448 2.383879,0 4.758796,0.25093 7.115789,0.76177 3.844677,0.8245 7.456343,2.27633 10.763303,4.33758 10.61095,-15.2622 27.73724,-24.42132 46.28848,-24.76187 0.0986,-1.78343 0.34055,-3.5579 0.70799,-5.30548 1.0844,-5.04558 3.28904,-9.76852 6.44365,-13.81036 -29.64614,-2.34803 -58.44985,12.95002 -73.120565,38.83213 z"
       id="path1267"
       style="display:inline;opacity:0.25;fill:#ffffff;fill-opacity:1;stroke-width:0.896195" /><circle
       class="cls-3"
       cx="74.809929"
       cy="246.98596"
       r="23.569931"
       id="circle1257"
       style="display:inline;opacity:0.5;fill:#ffffff;fill-opacity:1;stroke-width:0.896195" /><path
       class="cls-3"
       d="m 127.97222,307.65837 c -16.9829,-3.63855 -31.16966,-14.48251 -39.145805,-29.86122 -6.282328,2.85886 -13.353307,3.72817 -20.155428,2.4735 9.652021,23.70436 30.121126,40.92027 55.250433,46.3064 5.5116,1.18298 11.13074,1.75654 16.74092,1.72069 -4.32862,-5.69083 -6.73939,-12.55569 -6.9007,-19.70733 -1.94474,-0.21508 -3.88053,-0.52875 -5.78046,-0.941 z"
       id="path1261"
       style="display:inline;opacity:0.25;fill:#ffffff;fill-opacity:1;stroke-width:0.896195" /><circle
       class="cls-3"
       cx="167.67371"
       cy="307.78384"
       r="23.569931"
       id="circle1263"
       inkscape:label="circle1263"
       style="display:inline;opacity:0.5;fill:#ffffff;fill-opacity:1;stroke-width:0.896195" /></g><g
     id="g1315"
     inkscape:label="pkg"
     transform="matrix(1,0,0,0.99996428,0,1.4286626e-4)"><path
       d="m 55.999,46.002 -14,14 h 9 c 2.77,0 5,-2.23 5,-5 z"
       fill="url(#a)"
       fill-rule="evenodd"
       opacity="0.15"
       style="fill:url(#a);paint-order:stroke fill markers"
       id="path11" /><path
       d="m 30.002,25 v 6.5 c 0,0.277 0.223,0.5 0.5,0.5 h 3 c 0.277,0 0.5,-0.223 0.5,-0.5 V 25 Z m 1,4 h 2 v 2 h -2 z m 1,-25 h -2 v 2 h 2 z m 0,2 v 2 h 2 V 6 Z m 0,2 h -2 v 2 h 2 z m 0,2 v 2 h 2 v -2 z m 0,2 h -2 v 2 h 2 z m 0,2 v 2 h 2 v -2 z m 0,2 h -2 v 2 h 2 z m 0,2 v 2 h 2 v -2 z m 0,2 h -2 v 2 h 2 z m 0,2 v 2 h 2 v -2 z"
       color="#000000"
       fill="#ffffff"
       id="path13" /></g></svg>
