<?xml version="1.0" encoding="UTF-8" standalone="no"?>
<svg
   width="64"
   height="64"
   version="1.1"
   viewBox="0 0 16.933 16.933"
   id="svg1287"
   sodipodi:docname="gnome-web.svg"
   xml:space="preserve"
   inkscape:version="1.2.2 (b0a8486541, 2022-12-01)"
   xmlns:inkscape="http://www.inkscape.org/namespaces/inkscape"
   xmlns:sodipodi="http://sodipodi.sourceforge.net/DTD/sodipodi-0.dtd"
   xmlns:xlink="http://www.w3.org/1999/xlink"
   xmlns="http://www.w3.org/2000/svg"
   xmlns:svg="http://www.w3.org/2000/svg"><defs
     id="defs1291"><linearGradient
       id="linearGradient4728"
       inkscape:swatch="solid"><stop
         style="stop-color:#a96500;stop-opacity:1;"
         offset="0"
         id="stop4726" /></linearGradient><style
       id="style4748">.cls-1{fill:#8bd0f7;}.cls-2{opacity:0.2;}.cls-3{fill:#fff;}.cls-4{fill:#3f456b;}.cls-5{opacity:0.7;}.cls-6{fill:#e95a6b;}.cls-7{fill:#f5f6f7;}</style><linearGradient
       inkscape:collect="always"
       xlink:href="#linearGradient6903-6"
       id="linearGradient6905-3"
       x1="1.3219995"
       y1="1.316"
       x2="15.61"
       y2="15.604"
       gradientUnits="userSpaceOnUse"
       gradientTransform="matrix(0.99994531,0,0,0.99994531,9.6397479e-4,0.0069634)" /><linearGradient
       inkscape:collect="always"
       id="linearGradient6903-6"><stop
         style="stop-color:#ffba4e;stop-opacity:1;"
         offset="0"
         id="stop6899-7" /><stop
         style="stop-color:#ff9800;stop-opacity:1;"
         offset="0.49788582"
         id="stop830" /><stop
         style="stop-color:#b26800;stop-opacity:1;"
         offset="1"
         id="stop6901-5" /></linearGradient></defs><sodipodi:namedview
     id="namedview1289"
     pagecolor="#505050"
     bordercolor="#eeeeee"
     borderopacity="1"
     inkscape:showpageshadow="0"
     inkscape:pageopacity="0"
     inkscape:pagecheckerboard="0"
     inkscape:deskcolor="#505050"
     showgrid="false"
     inkscape:zoom="8"
     inkscape:cx="13.5"
     inkscape:cy="40.9375"
     inkscape:window-width="1920"
     inkscape:window-height="972"
     inkscape:window-x="0"
     inkscape:window-y="0"
     inkscape:window-maximized="1"
     inkscape:current-layer="svg1287" /><circle
     cx="8.4665003"
     cy="8.4665003"
     fill="#ff9800"
     style="fill:url(#linearGradient6905-3);fill-opacity:1;stroke-width:0.999946;paint-order:stroke markers fill"
     id="circle1277-3"
     r="7.1436095" /><g
     id="g4894"
     transform="matrix(0,-0.03054188,0.03054188,0,0.73802497,16.32894)"
     style="opacity:0.25;fill:#000000;fill-opacity:1"><path
       d="M 8.4656093,5.3018735 A 3.1748264,3.1748264 0 0 0 5.2908829,8.4765999 3.1748264,3.1748264 0 0 0 8.4656093,11.651326 3.1748264,3.1748264 0 0 0 11.640336,8.4765999 3.1748264,3.1748264 0 0 0 8.4656093,5.3018735 Z m 0,1.3228276 A 1.8518987,1.8518987 0 0 1 10.317508,8.4765999 1.8518987,1.8518987 0 0 1 8.4656093,10.328498 1.8518987,1.8518987 0 0 1 6.6137106,8.4765999 1.8518987,1.8518987 0 0 1 8.4656093,6.6247011 Z"
       fill="#000000"
       opacity="0.15"
       style="fill:#000000;fill-opacity:0.996774;stroke-width:0.999946;paint-order:stroke markers fill"
       id="path1281"
       transform="matrix(0,32.741927,-32.741927,0,534.64096,-24.135168)" /></g><g
     class="cls-5"
     id="g4824"
     style="opacity:0.25;fill:#000000;fill-opacity:1"
     transform="matrix(0,-0.02863309,0.02863309,0,1.2241909,15.835017)"
     inkscape:label="lines"><path
       class="cls-3"
       d="m 328.73,88 a 4.91,4.91 0 0 1 -1.94,-0.39 5,5 0 0 1 -2.67,-6.55 l 11.11,-26.39 a 5.0015698,5.0015698 0 0 1 9.22,3.88 L 333.34,85 a 5,5 0 0 1 -4.61,3 z"
       id="path4764"
       style="fill:#000000;fill-opacity:1" /><path
       class="cls-3"
       d="m 174.4,454.64 a 5.13,5.13 0 0 1 -1.94,-0.39 5,5 0 0 1 -2.67,-6.55 L 182,418.83 a 5,5 0 1 1 9.21,3.88 L 179,451.58 a 5,5 0 0 1 -4.6,3.06 z"
       id="path4766"
       style="fill:#000000;fill-opacity:1" /><path
       class="cls-3"
       d="m 454.67,340.06 a 4.91,4.91 0 0 1 -1.94,-0.39 l -26.39,-11.11 a 5,5 0 0 1 3.87,-9.22 l 26.4,11.11 a 5,5 0 0 1 -1.94,9.61 z"
       id="path4768"
       style="fill:#000000;fill-opacity:1" /><path
       class="cls-3"
       d="m 88.46,185.92 a 5.09,5.09 0 0 1 -1.94,-0.39 L 57.65,173.37 a 5,5 0 1 1 3.88,-9.21 l 28.87,12.15 a 5,5 0 0 1 -1.94,9.61 z"
       id="path4770"
       style="fill:#000000;fill-opacity:1" /><path
       class="cls-3"
       d="m 187.72,86.61 a 5,5 0 0 1 -4.63,-3.12 L 172.29,57 a 5,5 0 1 1 9.25,-3.77 l 10.81,26.52 a 5,5 0 0 1 -2.74,6.52 5,5 0 0 1 -1.89,0.34 z"
       id="path4772"
       style="fill:#000000;fill-opacity:1" /><path
       class="cls-3"
       d="m 337.83,455 a 5,5 0 0 1 -4.63,-3.12 l -11.82,-29 a 5,5 0 1 1 9.26,-3.77 l 11.82,29 a 5,5 0 0 1 -4.63,6.89 z"
       id="path4774"
       style="fill:#000000;fill-opacity:1" /><path
       class="cls-3"
       d="m 428.47,186.58 a 5,5 0 0 1 -1.88,-9.63 l 26.52,-10.81 a 5,5 0 0 1 3.77,9.26 l -26.52,10.81 a 5,5 0 0 1 -1.89,0.37 z"
       id="path4776"
       style="fill:#000000;fill-opacity:1" /><path
       class="cls-3"
       d="m 58,337.55 a 5,5 0 0 1 -1.89,-9.63 l 29,-11.82 a 5,5 0 0 1 3.77,9.26 l -29,11.82 A 5,5 0 0 1 58,337.55 Z"
       id="path4778"
       style="fill:#000000;fill-opacity:1" /><path
       class="cls-3"
       d="m 258.26,73.37 v 0 a 5,5 0 0 1 -5,-5 l 0.13,-28.63 a 5,5 0 0 1 5,-5 v 0 a 5,5 0 0 1 5,5 l -0.13,28.64 a 5,5 0 0 1 -5,4.99 z"
       id="path4780"
       style="fill:#000000;fill-opacity:1" /><path
       class="cls-3"
       d="m 256.46,471.13 v 0 a 5,5 0 0 1 -5,-5 l 0.14,-31.32 a 5,5 0 0 1 5,-5 v 0 a 5,5 0 0 1 5,5 l -0.14,31.32 a 5,5 0 0 1 -5,5 z"
       id="path4782"
       style="fill:#000000;fill-opacity:1" /><path
       class="cls-3"
       d="m 471.29,257.76 v 0 l -28.63,-0.13 a 5,5 0 0 1 0,-10 v 0 l 28.64,0.13 a 5,5 0 0 1 0,10 z"
       id="path4784"
       style="fill:#000000;fill-opacity:1" /><path
       class="cls-3"
       d="m 74,256 v 0 l -31.32,-0.14 a 5,5 0 0 1 0,-10 v 0 L 74,246 a 5,5 0 0 1 0,10 z"
       id="path4786"
       style="fill:#000000;fill-opacity:1" /><path
       class="cls-3"
       d="M 127.51,126.18 A 5,5 0 0 1 124,124.7 l -20.2,-20.34 a 5,5 0 0 1 7.1,-7 l 20.16,20.34 a 5,5 0 0 1 -3.55,8.52 z"
       id="path4788"
       style="fill:#000000;fill-opacity:1" /><path
       class="cls-3"
       d="m 407.5,408.71 a 5,5 0 0 1 -3.55,-1.48 L 381.9,385 a 5,5 0 0 1 7.1,-7 l 22.05,22.24 a 5,5 0 0 1 -3.55,8.52 z"
       id="path4790"
       style="fill:#000000;fill-opacity:1" /><path
       class="cls-3"
       d="m 223.41,74.54 a 5,5 0 0 1 -4.9,-4.06 l -5.39,-28.14 a 5,5 0 0 1 9.82,-1.88 l 5.39,28.14 a 5,5 0 0 1 -4,5.85 5.17,5.17 0 0 1 -0.92,0.09 z"
       id="path4792"
       style="fill:#000000;fill-opacity:1" /><path
       class="cls-3"
       d="m 298.2,465.43 a 5,5 0 0 1 -4.91,-4.06 l -5.88,-30.78 a 5,5 0 0 1 9.82,-1.88 l 5.89,30.78 a 5,5 0 0 1 -4,5.85 5.17,5.17 0 0 1 -0.92,0.09 z"
       id="path4794"
       style="fill:#000000;fill-opacity:1" /><path
       class="cls-3"
       d="m 439.92,220 a 5,5 0 0 1 -0.94,-9.91 l 28.14,-5.38 a 5,5 0 1 1 1.88,9.79 l -28.14,5.38 a 5.07,5.07 0 0 1 -0.94,0.12 z"
       id="path4796"
       style="fill:#000000;fill-opacity:1" /><path
       class="cls-3"
       d="m 46.83,295.2 a 5,5 0 0 1 -0.94,-9.91 l 30.78,-5.89 a 5,5 0 1 1 1.88,9.82 l -30.78,5.89 a 5,5 0 0 1 -0.94,0.09 z"
       id="path4798"
       style="fill:#000000;fill-opacity:1" /><path
       class="cls-3"
       d="m 105.2,151.56 a 4.89,4.89 0 0 1 -2.8,-0.87 L 78.69,134.6 a 5,5 0 1 1 5.61,-8.27 l 23.7,16.09 a 5,5 0 0 1 -2.81,9.14 z"
       id="path4800"
       style="fill:#000000;fill-opacity:1" /><path
       class="cls-3"
       d="m 434.48,375.07 a 5,5 0 0 1 -2.8,-0.86 l -25.93,-17.6 a 5.0035687,5.0035687 0 0 1 5.62,-8.28 l 25.92,17.6 a 5,5 0 0 1 -2.81,9.14 z"
       id="path4802"
       style="fill:#000000;fill-opacity:1" /><path
       class="cls-3"
       d="M 361.13,101.3 A 5,5 0 0 1 357,93.49 l 16.09,-23.7 a 5,5 0 0 1 8.27,5.61 l -16.09,23.71 a 5,5 0 0 1 -4.14,2.19 z"
       id="path4804"
       style="fill:#000000;fill-opacity:1" /><path
       class="cls-3"
       d="m 136.36,432.45 a 4.94,4.94 0 0 1 -2.8,-0.87 5,5 0 0 1 -1.33,-6.94 l 17.6,-25.93 a 5,5 0 1 1 8.27,5.62 l -17.59,25.92 a 5,5 0 0 1 -4.15,2.2 z"
       id="path4806"
       style="fill:#000000;fill-opacity:1" /><path
       class="cls-3"
       d="m 156.61,101.41 a 5,5 0 0 1 -4.18,-2.24 L 136.65,75.25 A 5.0020646,5.0020646 0 0 1 145,69.74 l 15.78,23.92 a 5,5 0 0 1 -1.43,6.93 4.93,4.93 0 0 1 -2.74,0.82 z"
       id="path4808"
       style="fill:#000000;fill-opacity:1" /><path
       class="cls-3"
       d="m 375.7,433.66 a 5,5 0 0 1 -4.18,-2.25 l -17.26,-26.16 a 5.0020646,5.0020646 0 0 1 8.35,-5.51 l 17.25,26.17 a 5,5 0 0 1 -4.16,7.75 z"
       id="path4810"
       style="fill:#000000;fill-opacity:1" /><path
       class="cls-3"
       d="m 412.35,152.61 a 5,5 0 0 1 -2.76,-9.17 l 23.92,-15.78 A 5,5 0 1 1 439,136 l -23.9,15.78 a 5,5 0 0 1 -2.75,0.83 z"
       id="path4812"
       style="fill:#000000;fill-opacity:1" /><path
       class="cls-3"
       d="m 78.24,373 a 5,5 0 0 1 -2.76,-9.18 l 26.16,-17.25 a 5.0020646,5.0020646 0 1 1 5.51,8.35 L 81,372.12 A 5,5 0 0 1 78.24,373 Z"
       id="path4814"
       style="fill:#000000;fill-opacity:1" /><path
       class="cls-3"
       d="m 77,217.9 a 4.94,4.94 0 0 1 -1,-0.1 L 47.93,212 a 5,5 0 0 1 2,-9.79 L 78,208 a 5,5 0 0 1 -1,9.9 z"
       id="path4816"
       style="fill:#000000;fill-opacity:1" /><path
       class="cls-3"
       d="m 466.86,297.92 a 5,5 0 0 1 -1,-0.11 l -30.7,-6.3 a 5,5 0 1 1 2,-9.79 l 30.7,6.3 a 5,5 0 0 1 -1,9.9 z"
       id="path4818"
       style="fill:#000000;fill-opacity:1" /><path
       class="cls-3"
       d="m 294.05,73.27 a 5,5 0 0 1 -4.91,-6 L 294.9,39.2 a 5.0009999,5.0009999 0 1 1 9.8,2 l -5.76,28.06 a 5,5 0 0 1 -4.89,4.01 z"
       id="path4820"
       style="fill:#000000;fill-opacity:1" /><path
       class="cls-3"
       d="m 213.59,465.32 a 5,5 0 0 1 -4.9,-6 l 6.3,-30.7 a 5.0009999,5.0009999 0 0 1 9.8,2 l -6.3,30.7 a 5,5 0 0 1 -4.9,4 z"
       id="path4822"
       style="fill:#000000;fill-opacity:1" /></g><g
     id="g873"
     transform="translate(8.9155197e-4)"><rect
       style="opacity:0.75;fill:#1c1c1c;fill-opacity:1;fill-rule:evenodd;stroke:#ffffff;stroke-width:0;stroke-linecap:round;stroke-linejoin:bevel;stroke-dasharray:none;paint-order:stroke markers fill"
       id="rect5029"
       width="1.4303724"
       height="1.4303724"
       x="-0.71581656"
       y="11.257623"
       transform="rotate(-45)"
       ry="0" /></g><g
     id="g870"
     transform="translate(8.9155197e-4)"><path
       style="opacity:1;fill:#ff0000;fill-opacity:1;fill-rule:evenodd;stroke:#ffffff;stroke-width:0;stroke-linecap:round;stroke-linejoin:bevel;stroke-dasharray:none;paint-order:stroke markers fill"
       d="M 7.4609164,8.4732338 8.4656089,7.4685412 4.2030878,3.8538211 3.8953554,4.1615535"
       id="path6831"
       sodipodi:nodetypes="cccc" /><path
       style="opacity:1;fill:#ff0000;fill-opacity:1;fill-rule:evenodd;stroke:#ffffff;stroke-width:0;stroke-linecap:round;stroke-linejoin:bevel;stroke-dasharray:none;paint-order:stroke markers fill"
       id="path6837"
       sodipodi:type="arc"
       sodipodi:cx="0.029369211"
       sodipodi:cy="-5.6970949"
       sodipodi:rx="0.21759969"
       sodipodi:ry="0.21689366"
       sodipodi:start="0"
       sodipodi:end="3.1415927"
       sodipodi:arc-type="arc"
       d="m 0.2469689,-5.6970949 a 0.21759969,0.21689366 0 0 1 -0.10879985,0.1878354 0.21759969,0.21689366 0 0 1 -0.21759969,0 0.21759969,0.21689366 0 0 1 -0.10879984,-0.1878354"
       transform="matrix(0.70710678,-0.70710678,-0.70710678,-0.70710678,0,0)"
       sodipodi:open="true" /></g><g
     id="g866"
     transform="translate(8.9155197e-4)"><path
       style="fill:#ffffff;fill-opacity:1;fill-rule:evenodd;stroke:#ffffff;stroke-width:0;stroke-linecap:round;stroke-linejoin:bevel;stroke-dasharray:none;paint-order:stroke markers fill"
       d="M 9.4736679,8.4698668 8.4689752,9.4745594 12.731497,13.08928 13.039229,12.781546"
       id="path6831-3"
       sodipodi:nodetypes="cccc" /><path
       style="fill:#ffffff;fill-opacity:1;fill-rule:evenodd;stroke:#ffffff;stroke-width:0;stroke-linecap:round;stroke-linejoin:bevel;stroke-dasharray:none;paint-order:stroke markers fill"
       id="path6837-5"
       sodipodi:type="arc"
       sodipodi:cx="0.035391062"
       sodipodi:cy="18.258047"
       sodipodi:rx="0.21759969"
       sodipodi:ry="0.21689366"
       sodipodi:start="0"
       sodipodi:end="3.1415927"
       sodipodi:arc-type="arc"
       d="m 0.25299075,18.258047 a 0.21759969,0.21689366 0 0 1 -0.10879985,0.187836 0.21759969,0.21689366 0 0 1 -0.21759969,0 0.21759969,0.21689366 0 0 1 -0.10879984,-0.187836"
       transform="matrix(-0.70710678,0.70710678,0.70710678,0.70710678,0,0)"
       sodipodi:open="true" /></g><g
     id="g862"
     transform="translate(8.9155197e-4)"><circle
       style="opacity:1;fill:#313436;fill-opacity:1;fill-rule:evenodd;stroke:#ffffff;stroke-width:0;stroke-linecap:round;stroke-linejoin:bevel;stroke-dasharray:none;paint-order:stroke markers fill"
       id="path5083"
       cx="8.4656086"
       cy="8.4766006"
       r="1.0080591" /><circle
       style="opacity:0.85;fill:#ffffff;fill-opacity:1;fill-rule:evenodd;stroke:#ffffff;stroke-width:0;stroke-linecap:round;stroke-linejoin:bevel;stroke-dasharray:none;paint-order:stroke markers fill"
       id="path5663"
       cx="8.4656086"
       cy="8.4665003"
       r="0.65221542" /></g></svg>
