<?xml version="1.0" encoding="UTF-8" standalone="no"?>
<svg
   width="64"
   height="64"
   viewBox="0 0 16.933 16.933"
   version="1.1"
   id="svg38"
   sodipodi:docname="emulsion-alt-palettee.svg"
   inkscape:version="1.2.2 (b0a8486541, 2022-12-01)"
   xml:space="preserve"
   xmlns:inkscape="http://www.inkscape.org/namespaces/inkscape"
   xmlns:sodipodi="http://sodipodi.sourceforge.net/DTD/sodipodi-0.dtd"
   xmlns="http://www.w3.org/2000/svg"
   xmlns:svg="http://www.w3.org/2000/svg"><defs
     id="defs42"><style
       id="current-color-scheme"
       type="text/css">.ColorScheme-Text { color:#aaaaaa; } .ColorScheme-Highlight { color:#5294e2; }</style></defs><sodipodi:namedview
     id="namedview40"
     pagecolor="#505050"
     bordercolor="#eeeeee"
     borderopacity="1"
     inkscape:showpageshadow="0"
     inkscape:pageopacity="0"
     inkscape:pagecheckerboard="0"
     inkscape:deskcolor="#505050"
     showgrid="false"
     inkscape:zoom="18.3125"
     inkscape:cx="35.986348"
     inkscape:cy="10.375427"
     inkscape:window-width="1920"
     inkscape:window-height="972"
     inkscape:window-x="0"
     inkscape:window-y="0"
     inkscape:window-maximized="1"
     inkscape:current-layer="svg38" /><g
     stroke-width="0.963"
     id="g26"
     style="display:inline"
     transform="matrix(0.99996573,0,0,1,4.2714738e-4,0)"><path
       d="m 13.323,3.603 c -0.048,0.049 2.02,4.86 2.02,4.86 l -2.02,4.858 c 0,0 -4.86,-2.568 -4.86,-4.859 0,-2.29 4.86,-4.859 4.86,-4.859 z"
       fill="#46a926"
       style="isolation:isolate"
       transform="matrix(1.0382,0,0,1.0384,-0.322,-0.322)"
       id="path2" /><path
       d="M 3.604,13.321 C 3.653,13.272 1.584,8.462 1.584,8.462 l 2.02,-4.859 c 0,0 4.86,2.569 4.86,4.86 0,2.29 -4.86,4.858 -4.86,4.858 z"
       fill="#f22c42"
       style="isolation:isolate"
       transform="matrix(1.0382,0,0,1.0384,-0.322,-0.322)"
       id="path4" /><path
       d="M 13.323,3.603 C 13.275,3.652 8.463,1.584 8.463,1.584 l -4.86,2.019 4.86,4.86 z"
       fill="#ffda64"
       style="isolation:isolate"
       transform="matrix(1.0382,0,0,1.0384,-0.322,-0.322)"
       id="path6" /><path
       d="m 3.604,13.321 4.86,2.013 c 0,0 4.81,-2.062 4.86,-2.013 L 8.464,8.462 Z"
       fill="#2f5fdd"
       style="isolation:isolate"
       transform="matrix(1.0382,0,0,1.0384,-0.322,-0.322)"
       id="path8" /><path
       d="m 8.464,1.587 a 6.846,6.846 0 0 0 2.019,4.862 L 13.328,3.605 A 6.88,6.88 0 0 0 8.467,1.587 Z"
       fill="#a6d74f"
       style="isolation:isolate"
       transform="matrix(1.0382,0,0,1.0384,-0.322,-0.322)"
       id="path10" /><path
       d="M 13.328,3.605 10.483,6.449 A 6.84,6.84 0 0 0 15.346,8.461 6.88,6.88 0 0 0 13.328,3.605 Z"
       fill="#76c22b"
       style="isolation:isolate"
       transform="matrix(1.0382,0,0,1.0384,-0.322,-0.322)"
       id="path12" /><path
       d="m 10.476,10.481 a 6.85,6.85 0 0 0 -2.019,4.862 h 0.069 a 6.88,6.88 0 0 0 4.8,-2.013 z"
       fill="#1463a5"
       style="isolation:isolate"
       transform="matrix(1.0382,0,0,1.0384,-0.322,-0.322)"
       id="path14" /><path
       d="m 15.346,8.469 a 6.84,6.84 0 0 0 -4.87,2.012 l 2.85,2.85 a 6.88,6.88 0 0 0 2.02,-4.862 z"
       fill="#2b898f"
       style="isolation:isolate"
       transform="matrix(1.0382,0,0,1.0384,-0.322,-0.322)"
       id="path16" /><path
       d="m 1.587,8.463 a 6.88,6.88 0 0 0 0,0.003 6.88,6.88 0 0 0 2.014,4.857 l 2.85,-2.848 A 6.839,6.839 0 0 0 1.587,8.464 Z"
       fill="#9b33ae"
       style="isolation:isolate"
       transform="matrix(1.0382,0,0,1.0384,-0.322,-0.322)"
       id="path18" /><path
       d="M 6.45,10.475 3.6,13.323 a 6.88,6.88 0 0 0 4.826,2.02 H 8.469 A 6.85,6.85 0 0 0 6.45,10.475 Z"
       fill="#7839b7"
       style="isolation:isolate"
       transform="matrix(1.0382,0,0,1.0384,-0.322,-0.322)"
       id="path20" /><path
       d="M 8.467,1.587 A 6.88,6.88 0 0 0 3.609,3.602 l 2.848,2.847 a 6.85,6.85 0 0 0 2.019,-4.861 6.88,6.88 0 0 0 -0.01,0 z"
       fill="#fdc92b"
       style="isolation:isolate"
       transform="matrix(1.0382,0,0,1.0384,-0.322,-0.322)"
       id="path22" /><path
       d="M 3.609,3.602 A 6.88,6.88 0 0 0 1.588,8.461 6.84,6.84 0 0 0 6.457,6.449 Z"
       fill="#f34f17"
       style="isolation:isolate"
       transform="matrix(1.0382,0,0,1.0384,-0.322,-0.322)"
       id="path24" /></g><g
     id="g1023"
     transform="translate(1.370407e-4)"
     inkscape:label="icon"><path
       d="m 11.422077,8.4642678 c -0.03219,-6.075e-4 -0.06437,-0.00174 -0.09653,-0.0034 -0.0054,6.71e-4 -0.01005,0.0034 -0.01609,0.0034 l -2.8441322,6.73e-4 c 0,0.00104 -2.72e-5,-0.00854 -2.72e-5,-0.00854 l 0.00338,-2.8778357 c -0.00139,-0.023223 -0.00251,-0.046461 -0.00335,-0.06971 2e-7,-1.6325994 1.3234838,-2.9560826 2.9560832,-2.9560824 1.632599,-10e-8 2.956083,1.323483 2.956083,2.9560824 0,1.6325996 -1.323483,2.9560831 -2.956083,2.956083 z"
       fill="#ffffff"
       overflow="visible"
       style="display:inline;isolation:auto;mix-blend-mode:normal;stroke-width:0.670314;paint-order:fill markers stroke"
       id="path423"
       sodipodi:nodetypes="ccsccccsscc"
       inkscape:label="bg" /><g
       id="g1160"
       inkscape:label="colors"
       transform="matrix(0.75001536,0,0,0.75001536,2.8551713,1.3771591)"><ellipse
         style="fill:#46a926;fill-opacity:1;stroke:none;stroke-width:0.24292;stroke-linecap:round;stroke-opacity:1;paint-order:stroke markers fill"
         id="path1100"
         cx="10.68238"
         cy="4.178638"
         rx="0.52327967"
         ry="0.52327955" /><ellipse
         style="fill:#ffda64;fill-opacity:1;stroke:none;stroke-width:0.255918;stroke-linecap:round;stroke-opacity:1;paint-order:stroke markers fill"
         id="path1100-3"
         cx="9.8080778"
         cy="5.3610668"
         rx="0.5512799"
         ry="0.55127978" /><ellipse
         style="fill:#f22c42;fill-opacity:1;stroke:none;stroke-width:0.2406;stroke-linecap:round;stroke-opacity:1;paint-order:stroke markers fill"
         id="path1100-6"
         cx="12.992705"
         cy="5.3610668"
         rx="0.51828444"
         ry="0.51828432" /><ellipse
         style="fill:#2f5fdd;fill-opacity:1;stroke:none;stroke-width:0.242919;stroke-linecap:round;stroke-opacity:1;paint-order:stroke markers fill"
         id="path1100-7"
         cx="12.151745"
         cy="4.178638"
         rx="0.52327967"
         ry="0.52327955" /></g><path
       d="m 11.421394,3.2917977 c -1.221621,0 -2.2170992,0.9954772 -2.2170992,2.2170986 0,1.2216213 0.9954782,2.2170985 2.2170992,2.2170985 0.305959,0 0.554275,-0.2483151 0.554275,-0.5542746 0,-0.1352431 -0.05099,-0.2660519 -0.141894,-0.3702555 -0.01774,-0.022171 -0.02882,-0.04656 -0.02882,-0.073164 0,-0.062079 0.04877,-0.110855 0.110856,-0.110855 h 0.392426 c 0.733859,0 1.33026,-0.5963996 1.33026,-1.3302592 0,-1.0996808 -0.995478,-1.9953886 -2.2171,-1.9953886 z m 1.219404,2.4388083 c -0.184018,0 -0.332564,-0.1485455 -0.332564,-0.3325646 0,-0.1840193 0.148546,-0.3325649 0.332564,-0.3325649 0.184019,0 0.332565,0.1485456 0.332565,0.3325649 0,0.1840191 -0.148546,0.3325646 -0.332565,0.3325646 z M 11.975669,4.8437666 c -0.18402,0 -0.332565,-0.1485455 -0.332565,-0.3325647 0,-0.1840192 0.148545,-0.3325647 0.332565,-0.3325647 0.184019,0 0.332565,0.1485455 0.332565,0.3325647 0,0.1840192 -0.148546,0.3325647 -0.332565,0.3325647 z M 9.8694244,5.3980414 c 0,-0.1840193 0.1485456,-0.3325649 0.3325656,-0.3325649 0.184019,0 0.332565,0.1485456 0.332565,0.3325649 0,0.1840191 -0.148546,0.3325646 -0.332565,0.3325646 -0.18402,0 -0.3325656,-0.1485455 -0.3325656,-0.3325646 z M 11.199685,4.5112019 c 0,0.1840192 -0.148546,0.3325647 -0.332566,0.3325647 -0.184018,0 -0.332564,-0.1485455 -0.332564,-0.3325647 0,-0.1840192 0.148546,-0.3325647 0.332564,-0.3325647 0.18402,0 0.332566,0.1485455 0.332566,0.3325647 z"
       id="path1029"
       style="fill:#313436;stroke-width:0.22171;fill-opacity:1"
       inkscape:label="plaette" /></g><g
     style="fill:#000000"
     id="g1043"
     transform="matrix(0.26457812,0,0,0.26457812,8.5987891,2.9137009)"><g
       id="g1027" /><g
       id="g1031" /></g></svg>
