<?xml version="1.0" encoding="UTF-8" standalone="no"?>
<svg
   width="64"
   height="64"
   version="1"
   id="svg2228"
   sodipodi:docname="folder-steam.svg"
   inkscape:version="1.2.2 (b0a8486541, 2022-12-01)"
   xmlns:inkscape="http://www.inkscape.org/namespaces/inkscape"
   xmlns:sodipodi="http://sodipodi.sourceforge.net/DTD/sodipodi-0.dtd"
   xmlns:xlink="http://www.w3.org/1999/xlink"
   xmlns="http://www.w3.org/2000/svg"
   xmlns:svg="http://www.w3.org/2000/svg">
  <defs
     id="defs2232">
    <linearGradient
       inkscape:collect="always"
       xlink:href="#linearGradient1331"
       id="linearGradient1333"
       x1="72.800003"
       y1="48.800144"
       x2="78.800003"
       y2="54.790291"
       gradientUnits="userSpaceOnUse"
       gradientTransform="translate(-18.8,2.2097087)" />
    <linearGradient
       inkscape:collect="always"
       id="linearGradient1331">
      <stop
         style="stop-color:#000000;stop-opacity:0;"
         offset="0"
         id="stop1327" />
      <stop
         style="stop-color:#000000;stop-opacity:0.148;"
         offset="0.14867319"
         id="stop1337" />
      <stop
         style="stop-color:#000000;stop-opacity:0.132;"
         offset="0.44666761"
         id="stop1335" />
      <stop
         style="stop-color:#ffffff;stop-opacity:0.048;"
         offset="0.80090499"
         id="stop1329" />
    </linearGradient>
  </defs>
  <sodipodi:namedview
     id="namedview2230"
     pagecolor="#505050"
     bordercolor="#eeeeee"
     borderopacity="1"
     inkscape:showpageshadow="0"
     inkscape:pageopacity="0"
     inkscape:pagecheckerboard="0"
     inkscape:deskcolor="#505050"
     showgrid="false"
     inkscape:zoom="8"
     inkscape:cx="29.1875"
     inkscape:cy="38.125"
     inkscape:current-layer="svg2228" />
  <g
     id="g1505"
     inkscape:label="folder"
     transform="translate(0,-0.5)">
    <path
       style="fill:#da670b;fill-opacity:1"
       d="M 4,46.2 C 4,47.751 5.2488,49 6.8,49 H 57.2 C 58.751,49 60,47.751 60,46.2 V 15.8 C 60,14.249 58.751,13 57.2,13 H 32 C 27.8,13 26.4,7 22.2,7 H 6.8 C 5.2488,7 4,8.2488 4,9.8"
       id="path4" />
    <path
       id="rect2"
       style="opacity:0.2"
       d="M 6.8007812,20 C 5.2495828,20 4,21.249583 4,22.800781 v 2 28.398438 2 C 4,56.750417 5.2495828,58 6.8007812,58 H 57.199219 C 58.750417,58 60,56.750417 60,55.199219 v -2 -28.398438 -2 C 60,21.249583 58.750417,20 57.199219,20 Z" />
    <rect
       style="fill:#ffffff;fill-opacity:1"
       width="48"
       height="22"
       x="8"
       y="16"
       rx="2.8"
       ry="2.8"
       id="rect8" />
    <path
       id="rect10"
       style="fill:#ff7800"
       d="m 6.8,21 h 50.4 c 1.5512,0 2.8,1.2488 2.8,2.8 V 54.2 C 60,55.7512 58.7512,57 57.2,57 H 6.8 C 5.2488,57 4,55.7512 4,54.2 V 23.8 C 4,22.2488 5.2488,21 6.8,21 Z"
       sodipodi:nodetypes="sssssssss" />
    <path
       style="opacity:0.1;fill:#ffffff"
       d="M 6.8008,7 C 5.2496,7 4,8.2496 4,9.8008 V 10.801 C 4,9.2496 5.2496,8 6.8008,8 H 22.199 c 4.2,0 5.601,6 9.801,6 H 57.199 C 58.75,14 60,15.25 60,16.801 v -1 C 60,14.25 58.75,13 57.199,13 H 32 C 27.8,13 26.399,7 22.199,7 Z"
       id="path12" />
    <path
       d="m 57.2,57.009709 c 1.5512,0 2.8,-1.2488 2.8,-2.8 V 45.01 L 48,57.009709 Z"
       style="fill:url(#linearGradient1333);fill-opacity:1"
       id="path1208"
       sodipodi:nodetypes="ccccc" />
  </g>
  <path
     style="color:#aaaaaa;fill:#663000;stroke-width:1.23077;fill-opacity:1"
     class="ColorScheme-Text"
     d="m 22.153846,40.416308 3.701908,2.136615 c -0.0062,0.08492 -0.0094,0.169846 -0.0096,0.254769 0,2.039385 1.653169,3.692308 3.692307,3.692308 2.039262,0 3.692308,-1.652923 3.692308,-3.692308 -8.61e-4,-0.116923 -0.0073,-0.232615 -0.0192,-0.348307 l 5.386585,-3.483447 c 1.907692,-0.484307 3.244308,-2.200123 3.248,-4.168246 0,-2.379077 -1.928615,-4.307692 -4.307692,-4.307692 -2.113231,0.0012 -3.912862,1.534523 -4.24997,3.620185 l -3.050461,5.064861 c -0.230523,-0.04541 -0.464739,-0.06868 -0.69957,-0.06966 -0.557292,0.0012 -1.107077,0.128615 -1.608123,0.372553 l -5.776492,-3.335262 m 15.384616,-4.421908 c 1.699692,0 3.076923,1.3776 3.076923,3.076923 0,1.699323 -1.377231,3.076923 -3.076923,3.076923 -1.699693,0 -3.076924,-1.3776 -3.076924,-3.076923 0,-1.699323 1.377231,-3.076923 3.076924,-3.076923 z m 0,1.230769 c -1.019077,0 -1.846154,0.826585 -1.846154,1.846154 0,1.01957 0.827077,1.846154 1.846154,1.846154 1.019076,0 1.846153,-0.826584 1.846153,-1.846154 0,-1.019569 -0.827077,-1.846154 -1.846153,-1.846154 z m -8.000001,7.384616 c 1.359508,0 2.461539,1.101538 2.461539,2.461538 0,1.36 -1.102031,2.461539 -2.461539,2.461539 -1.173661,-0.0012 -2.183015,-0.832 -2.411077,-1.982769 l 0.867816,0.502153 c 0.885784,0.51077 2.010215,0.210462 2.5216,-0.675692 0.511385,-0.886154 0.210338,-2.009846 -0.675446,-2.521846 l -0.415877,-0.24 c 0.03766,-0.0025 0.07532,-0.0037 0.112984,-0.0049 z"
     id="path2450" />
</svg>
