<?xml version="1.0" encoding="UTF-8" standalone="no"?>
<svg
   width="64"
   height="64"
   version="1"
   id="svg318"
   sodipodi:docname="folder-orange-download.svg"
   inkscape:version="1.2.2 (b0a8486541, 2022-12-01)"
   xmlns:inkscape="http://www.inkscape.org/namespaces/inkscape"
   xmlns:sodipodi="http://sodipodi.sourceforge.net/DTD/sodipodi-0.dtd"
   xmlns:xlink="http://www.w3.org/1999/xlink"
   xmlns="http://www.w3.org/2000/svg"
   xmlns:svg="http://www.w3.org/2000/svg">
  <defs
     id="defs322">
    <linearGradient
       inkscape:collect="always"
       xlink:href="#linearGradient1331"
       id="linearGradient1333"
       x1="72.800003"
       y1="48.800144"
       x2="78.800003"
       y2="54.790291"
       gradientUnits="userSpaceOnUse"
       gradientTransform="translate(-3.838547,26.20469)" />
    <linearGradient
       inkscape:collect="always"
       id="linearGradient1331">
      <stop
         style="stop-color:#000000;stop-opacity:0;"
         offset="0"
         id="stop1327" />
      <stop
         style="stop-color:#000000;stop-opacity:0.148;"
         offset="0.14867319"
         id="stop1337" />
      <stop
         style="stop-color:#000000;stop-opacity:0.132;"
         offset="0.44666761"
         id="stop1335" />
      <stop
         style="stop-color:#ffffff;stop-opacity:0.048;"
         offset="0.80090499"
         id="stop1329" />
    </linearGradient>
  </defs>
  <sodipodi:namedview
     id="namedview320"
     pagecolor="#505050"
     bordercolor="#eeeeee"
     borderopacity="1"
     inkscape:showpageshadow="0"
     inkscape:pageopacity="0"
     inkscape:pagecheckerboard="0"
     inkscape:deskcolor="#505050"
     showgrid="false"
     inkscape:zoom="6.0078125"
     inkscape:cx="91.880364"
     inkscape:cy="40.280884"
     inkscape:current-layer="svg318" />
  <g
     id="g942"
     inkscape:label="folder"
     transform="translate(-14.961453,-24.494981)">
    <path
       style="fill:#da670b;fill-opacity:1"
       d="m 18.961453,70.194981 c 0,1.551 1.2488,2.8 2.8,2.8 h 50.4 c 1.551,0 2.8,-1.249 2.8,-2.8 v -30.4 c 0,-1.551 -1.249,-2.8 -2.8,-2.8 h -25.2 c -4.2,0 -5.6,-6 -9.8,-6 h -15.4 c -1.5512,0 -2.8,1.2488 -2.8,2.8"
       id="path4" />
    <path
       id="rect2"
       style="display:inline;opacity:0.2"
       d="m 21.762234,43.994981 c -1.551198,0 -2.800781,1.249583 -2.800781,2.800781 v 2 28.398438 2 c 0,1.551198 1.249583,2.800781 2.800781,2.800781 h 50.398438 c 1.551198,0 2.800781,-1.249583 2.800781,-2.800781 v -2 -28.398438 -2 c 0,-1.551198 -1.249583,-2.800781 -2.800781,-2.800781 z" />
    <rect
       style="display:inline;fill:#ffffff;fill-opacity:1"
       width="48"
       height="22"
       x="22.961452"
       y="39.99498"
       rx="2.8"
       ry="2.8"
       id="rect8" />
    <path
       id="rect10"
       style="fill:#ff7800"
       d="m 21.761453,44.994981 h 50.4 c 1.5512,0 2.8,1.2488 2.8,2.8 v 30.4 c 0,1.5512 -1.2488,2.8 -2.8,2.8 h -50.4 c -1.5512,0 -2.8,-1.2488 -2.8,-2.8 v -30.4 c 0,-1.5512 1.2488,-2.8 2.8,-2.8 z"
       sodipodi:nodetypes="sssssssss" />
    <path
       style="opacity:0.1;fill:#ffffff"
       d="m 21.762253,30.994981 c -1.5512,0 -2.8008,1.2496 -2.8008,2.8008 v 1.0002 c 0,-1.5514 1.2496,-2.801 2.8008,-2.801 h 15.3982 c 4.2,0 5.601,6 9.801,6 h 25.199 c 1.551,0 2.801,1.25 2.801,2.801 v -1 c 0,-1.551 -1.25,-2.801 -2.801,-2.801 h -25.199 c -4.2,0 -5.601,-6 -9.801,-6 z"
       id="path12" />
    <path
       d="m 72.161453,81.00469 c 1.5512,0 2.8,-1.2488 2.8,-2.8 v -9.199709 l -12,11.999709 z"
       style="fill:url(#linearGradient1333);fill-opacity:1"
       id="path1208"
       sodipodi:nodetypes="ccccc" />
  </g>
  <g
     id="g555"
     inkscape:label="dl"
     transform="translate(0,-0.5)">
    <path
       style="fill:#533314"
       d="m 30,29 v 8 h -4 l 6,8 6,-8 h -4 v -8 z m -6,16 v 4 h 16 v -4 z"
       id="path316" />
  </g>
</svg>
