<?xml version="1.0" encoding="UTF-8" standalone="no"?>
<svg
   width="64"
   height="64"
   version="1"
   id="svg164"
   sodipodi:docname="folder-github.svg"
   inkscape:version="1.2.2 (b0a8486541, 2022-12-01)"
   xmlns:inkscape="http://www.inkscape.org/namespaces/inkscape"
   xmlns:sodipodi="http://sodipodi.sourceforge.net/DTD/sodipodi-0.dtd"
   xmlns:xlink="http://www.w3.org/1999/xlink"
   xmlns="http://www.w3.org/2000/svg"
   xmlns:svg="http://www.w3.org/2000/svg">
  <defs
     id="defs168">
    <linearGradient
       inkscape:collect="always"
       xlink:href="#linearGradient1331"
       id="linearGradient1333"
       x1="72.800003"
       y1="48.800144"
       x2="78.800003"
       y2="54.790291"
       gradientUnits="userSpaceOnUse"
       gradientTransform="translate(-18.8,2.2097087)" />
    <linearGradient
       inkscape:collect="always"
       id="linearGradient1331">
      <stop
         style="stop-color:#000000;stop-opacity:0;"
         offset="0"
         id="stop1327" />
      <stop
         style="stop-color:#000000;stop-opacity:0.148;"
         offset="0.14867319"
         id="stop1337" />
      <stop
         style="stop-color:#000000;stop-opacity:0.132;"
         offset="0.44666761"
         id="stop1335" />
      <stop
         style="stop-color:#ffffff;stop-opacity:0.048;"
         offset="0.80090499"
         id="stop1329" />
    </linearGradient>
  </defs>
  <sodipodi:namedview
     id="namedview166"
     pagecolor="#505050"
     bordercolor="#eeeeee"
     borderopacity="1"
     inkscape:showpageshadow="0"
     inkscape:pageopacity="0"
     inkscape:pagecheckerboard="0"
     inkscape:deskcolor="#505050"
     showgrid="false"
     inkscape:zoom="12.015625"
     inkscape:cx="33.414824"
     inkscape:cy="37.70091"
     inkscape:current-layer="svg164" />
  <g
     id="g1505"
     inkscape:label="folder"
     transform="translate(0,-0.5)">
    <path
       style="fill:#da670b;fill-opacity:1"
       d="M 4,46.2 C 4,47.751 5.2488,49 6.8,49 H 57.2 C 58.751,49 60,47.751 60,46.2 V 15.8 C 60,14.249 58.751,13 57.2,13 H 32 C 27.8,13 26.4,7 22.2,7 H 6.8 C 5.2488,7 4,8.2488 4,9.8"
       id="path4" />
    <path
       id="rect2"
       style="opacity:0.2"
       d="M 6.8007812,20 C 5.2495828,20 4,21.249583 4,22.800781 v 2 28.398438 2 C 4,56.750417 5.2495828,58 6.8007812,58 H 57.199219 C 58.750417,58 60,56.750417 60,55.199219 v -2 -28.398438 -2 C 60,21.249583 58.750417,20 57.199219,20 Z" />
    <rect
       style="fill:#ffffff;fill-opacity:1"
       width="48"
       height="22"
       x="8"
       y="16"
       rx="2.8"
       ry="2.8"
       id="rect8" />
    <path
       id="rect10"
       style="fill:#ff7800"
       d="m 6.8,21 h 50.4 c 1.5512,0 2.8,1.2488 2.8,2.8 V 54.2 C 60,55.7512 58.7512,57 57.2,57 H 6.8 C 5.2488,57 4,55.7512 4,54.2 V 23.8 C 4,22.2488 5.2488,21 6.8,21 Z"
       sodipodi:nodetypes="sssssssss" />
    <path
       style="opacity:0.1;fill:#ffffff"
       d="M 6.8008,7 C 5.2496,7 4,8.2496 4,9.8008 V 10.801 C 4,9.2496 5.2496,8 6.8008,8 H 22.199 c 4.2,0 5.601,6 9.801,6 H 57.199 C 58.75,14 60,15.25 60,16.801 v -1 C 60,14.25 58.75,13 57.199,13 H 32 C 27.8,13 26.399,7 22.199,7 Z"
       id="path12" />
    <path
       d="m 57.2,57.009709 c 1.5512,0 2.8,-1.2488 2.8,-2.8 V 45.01 L 48,57.009709 Z"
       style="fill:url(#linearGradient1333);fill-opacity:1"
       id="path1208"
       sodipodi:nodetypes="ccccc" />
  </g>
  <path
     style="fill:#663000;fill-opacity:1;stroke-width:0.00455009"
     d="m 29.201594,46.492581 a 0.66391314,0.67895191 0 0 0 0.404648,-0.198234 0.65422097,0.6690402 0 0 0 0.181728,-0.344431 c 0.01454,-0.07434 0.01697,-0.15611 0.01454,-0.892054 V 44.33183 l -0.479763,-0.005 A 26.660717,27.264628 0 0 1 28.736372,44.31444 4.3760116,4.4751358 0 0 1 28.261455,44.25249 C 27.713849,44.145939 27.28497,43.937794 26.977244,43.63053 a 1.7082437,1.7469384 0 0 1 -0.416765,-0.696269 2.970648,3.0379383 0 0 0 -0.736604,-1.174537 5.1877302,5.3052412 0 0 0 -0.508839,-0.453462 c -0.251996,-0.205667 -0.314995,-0.277527 -0.314995,-0.341953 0,-0.04212 0.02908,-0.07434 0.113882,-0.113985 a 0.7559887,0.77311314 0 0 1 0.373149,-0.07682 1.2115204,1.2389634 0 0 1 0.523377,0.151154 c 0.222919,0.116463 0.453109,0.294873 0.695413,0.53771 0.147805,0.148676 0.254419,0.270094 0.421609,0.483196 0.508838,0.644261 0.831103,0.887097 1.293904,0.966392 0.13569,0.02478 0.193843,0.02974 0.4313,0.02974 a 2.6653449,2.7257195 0 0 0 0.419187,-0.0223 1.7494354,1.7890631 0 0 0 0.489454,-0.123896 l 0.04119,-0.01983 0.0024,-0.08425 a 1.7058206,1.7444604 0 0 1 0.746296,-1.409941 c 0,0 -0.0097,-0.005 -0.02423,-0.005 a 11.010297,11.259699 0 0 1 -0.37558,-0.06935 6.4355963,6.5813736 0 0 1 -2.248582,-0.879663 4.0585933,4.1505274 0 0 1 -0.952254,-0.862319 3.8962495,3.9845062 0 0 1 -0.826257,-2.071547 6.1860231,6.3261471 0 0 1 -0.0097,-1.313301 c 0.09207,-0.998605 0.404648,-1.858445 0.94014,-2.601823 0.0097,-0.01239 0.0097,-0.01239 -0.01454,-0.106552 a 5.1416924,5.2581606 0 0 1 0.04846,-2.829792 l 0.0097,-0.03717 h 0.08723 c 0.363456,0.0025 0.835949,0.113985 1.289057,0.29983 a 5.2749597,5.3944466 0 0 1 1.315711,0.787981 8.6962935,8.8932795 0 0 1 1.885126,-0.366732 c 0.285919,-0.02478 0.4943,-0.03221 0.833526,-0.03221 a 9.0864031,9.2922257 0 0 1 2.641114,0.371688 l 0.07996,0.02478 0.07269,-0.05451 c 0.09934,-0.08177 0.169613,-0.133809 0.295611,-0.218058 0.71722,-0.490629 1.5459,-0.792938 2.229197,-0.815238 l 0.09207,-0.0025 0.0072,0.02726 0.02666,0.106551 a 5.2386141,5.3572777 0 0 1 0.01212,2.777756 4.7079681,4.8146117 0 0 1 0.816566,1.652777 c 0.130844,0.463372 0.198688,0.929223 0.21565,1.4818 0.01454,0.555056 -0.04604,1.080376 -0.179305,1.551181 a 3.7096754,3.7937059 0 0 1 -1.114599,1.80641 c -0.60576,0.545144 -1.37871,0.936656 -2.357619,1.194361 a 9.653394,9.87206 0 0 1 -0.872294,0.183366 c -0.0024,0.0025 0.01697,0.01982 0.04361,0.04212 a 1.7930501,1.8336658 0 0 1 0.460378,0.520365 c 0.09692,0.173455 0.174458,0.384078 0.205958,0.587269 0.02666,0.158587 0.02423,0.01735 0.02908,1.813842 0,1.536315 0,1.647821 0.0097,1.68499 a 0.6881436,0.70373123 0 0 0 0.106615,0.267616 0.69056663,0.70620915 0 0 0 0.496723,0.297351 c 0.01939,0.0025 -1.473208,0.005 -3.319566,0.005 -2.750151,0 -3.343797,0 -3.305028,-0.0074 z"
     id="path755" />
</svg>
