<?xml version="1.0" encoding="UTF-8" standalone="no"?>
<svg
   inkscape:version="1.2.2 (b0a8486541, 2022-12-01)"
   sodipodi:docname="modrinth.svg"
   id="svg12"
   version="1.1"
   viewBox="0 0 16.933 16.933"
   height="64"
   width="64"
   xml:space="preserve"
   xmlns:inkscape="http://www.inkscape.org/namespaces/inkscape"
   xmlns:sodipodi="http://sodipodi.sourceforge.net/DTD/sodipodi-0.dtd"
   xmlns:xlink="http://www.w3.org/1999/xlink"
   xmlns="http://www.w3.org/2000/svg"
   xmlns:svg="http://www.w3.org/2000/svg"><defs
     id="defs16"><linearGradient
       inkscape:collect="always"
       id="linearGradient5475"><stop
         style="stop-color:#63e9a5;stop-opacity:1;"
         offset="0"
         id="stop5471" /><stop
         style="stop-color:#18be5d;stop-opacity:1;"
         offset="1"
         id="stop5473" /></linearGradient><linearGradient
       inkscape:collect="always"
       id="linearGradient5469"><stop
         style="stop-color:#63e9a5;stop-opacity:1;"
         offset="0"
         id="stop5465" /><stop
         style="stop-color:#18be5d;stop-opacity:1;"
         offset="0.94661921"
         id="stop5467" /></linearGradient><linearGradient
       inkscape:collect="always"
       id="linearGradient3407"><stop
         style="stop-color:#000000;stop-opacity:1;"
         offset="0"
         id="stop3403" /><stop
         style="stop-color:#1bd96a;stop-opacity:1;"
         offset="0.5"
         id="stop3411" /><stop
         style="stop-color:#17b85a;stop-opacity:1;"
         offset="1"
         id="stop3405" /></linearGradient><linearGradient
       id="linearGradient1229"
       inkscape:swatch="solid"><stop
         style="stop-color:#000000;stop-opacity:1;"
         offset="0"
         id="stop1227" /></linearGradient><rect
       x="4.4382802"
       y="5.592233"
       width="31.334258"
       height="14.401861"
       id="rect2126" /><rect
       x="4.4382801"
       y="5.5922332"
       width="31.334257"
       height="14.401861"
       id="rect2126-3" /><radialGradient
       inkscape:collect="always"
       xlink:href="#linearGradient3407"
       id="radialGradient4601"
       cx="256.00143"
       cy="257.00421"
       fx="256.00143"
       fy="257.00421"
       r="256.0014"
       gradientTransform="translate(0,7.2620986e-5)"
       gradientUnits="userSpaceOnUse" /><radialGradient
       inkscape:collect="always"
       xlink:href="#linearGradient3407"
       id="radialGradient4611"
       cx="256.00143"
       cy="257.00421"
       fx="256.00143"
       fy="257.00421"
       r="256.0014"
       gradientTransform="translate(0,7.2620986e-5)"
       gradientUnits="userSpaceOnUse" /><linearGradient
       inkscape:collect="always"
       xlink:href="#linearGradient5469"
       id="linearGradient4738-2"
       gradientUnits="userSpaceOnUse"
       x1="8.0731335"
       y1="23.566425"
       x2="0.73909712"
       y2="28.053001" /><radialGradient
       inkscape:collect="always"
       xlink:href="#linearGradient3407"
       id="radialGradient3409-3-8"
       cx="256.00143"
       cy="257.00421"
       fx="256.00143"
       fy="257.00421"
       r="256.0014"
       gradientTransform="translate(0,7.2620986e-5)"
       gradientUnits="userSpaceOnUse" /><radialGradient
       inkscape:collect="always"
       xlink:href="#linearGradient3407"
       id="radialGradient4629-0"
       gradientUnits="userSpaceOnUse"
       gradientTransform="translate(0,7.2620986e-5)"
       cx="256.00143"
       cy="257.00421"
       fx="256.00143"
       fy="257.00421"
       r="256.0014" /><radialGradient
       inkscape:collect="always"
       xlink:href="#linearGradient3407"
       id="radialGradient4631-2"
       gradientUnits="userSpaceOnUse"
       gradientTransform="translate(0,7.2620986e-5)"
       cx="256.00143"
       cy="257.00421"
       fx="256.00143"
       fy="257.00421"
       r="256.0014" /><linearGradient
       inkscape:collect="always"
       xlink:href="#linearGradient5475"
       id="linearGradient5719"
       gradientUnits="userSpaceOnUse"
       x1="416.73254"
       y1="213.90266"
       x2="458.78799"
       y2="202.65256" /></defs><sodipodi:namedview
     id="namedview14"
     pagecolor="#505050"
     bordercolor="#eeeeee"
     borderopacity="1"
     inkscape:showpageshadow="0"
     inkscape:pageopacity="0"
     inkscape:pagecheckerboard="0"
     inkscape:deskcolor="#505050"
     showgrid="false"
     inkscape:zoom="8"
     inkscape:cx="53.25"
     inkscape:cy="31.125"
     inkscape:window-width="1920"
     inkscape:window-height="972"
     inkscape:window-x="0"
     inkscape:window-y="0"
     inkscape:window-maximized="1"
     inkscape:current-layer="svg12" /><circle
     cx="8.4664993"
     cy="8.4664993"
     fill="#32a3d7"
     style="fill:#313436;fill-opacity:1;stroke-width:0.999946;paint-order:stroke fill markers;stroke:none;stroke-opacity:1"
     id="circle2"
     r="7.1436095" /><g
     id="g673-9-5"
     transform="matrix(0.99998821,0,0,1,-1.24249e-5,1.0867948e-4)"><g
       id="g736-1-9"
       transform="translate(2.6548873,-16.548426)"
       style="display:inline"><path
         d="m 0.2701113,27.618469 c 3.5201921,-2.112089 0,0 3.5201921,-2.112089 l -0.4149443,-1.100272 1.3003644,-1.335787 1.6435932,-0.354107 0.475777,0.585714 -0.757616,0.767373 -0.660785,0.207888 -0.4721498,0.485259 0.2313308,0.643755 c 0,0 0.468522,0.497816 0.469359,0.498096 l 0.661902,-0.176078 0.471033,-0.517349 1.0285712,-0.325644 0.306395,0.68924 -1.0612192,1.301186 -1.7783741,0.563112 -0.7975194,-0.887922 c -3.5282879,2.117111 0,0 -3.5282879,2.117111"
         style="fill:url(#linearGradient4738-2);fill-opacity:1;stroke-width:0.0279046"
         id="path567-3-2-2"
         sodipodi:nodetypes="ccccccccccccccccccc" /></g><g
       id="g666-7-2"
       transform="matrix(0.02790479,0,0,0.02790446,1.3228327,1.2949055)"
       style="display:inline;fill:url(#radialGradient3409-3-8);fill-opacity:1"><path
         id="path654-0-8"
         style="fill:url(#radialGradient4629-0);fill-opacity:1"
         d="m 254.48293,1.0024999 c -4.62096,0.024342 -9.25957,0.1844726 -13.90738,0.4629673 C 223.57786,2.483962 206.42366,5.2078686 189.33494,9.7803607 83.815251,38.020294 11.38717,128.06784 0.68723232,230.46763 H 43.983426 C 54.283406,147.3278 113.751,74.726637 199.76084,51.706683 306.06062,23.25674 415.12771,80.683198 453.16765,181.3931 l 11.24071,42.51892 c 4.5,28.70994 2.94814,57.25752 -3.85184,84.16746 l 42.61101,15.48163 c 11.38998,-42.08991 12.15704,-87.64765 0.037,-132.79755 C 472.40541,75.966504 368.15843,0.40369471 254.48293,1.0024999 Z m 51.81469,95.8157221 -7.74072,43.852268 c 36.52992,13.46998 66.15984,43.83162 76.99982,84.24154 15.79996,58.88988 -13.61996,119.23067 -66.99984,144.26062 l 11.53701,43.00041 c 70.15986,-28.94994 112.30307,-101.86035 102.33309,-177.0202 l -11.38886,-42.5004 C 391.64814,145.80255 352.56754,111.44839 306.29762,96.818222 Z" /><path
         id="path656-9-9"
         d="m 256.64758,88.997277 c -14.69315,-0.07465 -29.64343,1.778068 -44.51841,5.759314 C 122.40926,118.76647 69.163546,210.86233 93.203522,300.46224 c 2.179998,8.12999 4.935069,15.96319 8.185168,23.46319 l 38.20361,-22.92615 v -0.0185 c -1.46,-3.86 -2.73332,-7.81901 -3.83332,-11.88901 -17.73998,-66.13993 21.55763,-134.10478 87.77757,-151.83477 10.57999,-2.82999 21.18808,-4.2093 31.64807,-4.2593 l 7.74072,-43.852263 c -2.08749,-0.08875 -4.17874,-0.137486 -6.27776,-0.14815 z M 3.8523852e-5,275.46201 C 1.1700374,291.33199 3.8411348,307.31025 8.1111305,323.24024 44.751084,459.7701 185.2609,540.80339 321.98076,504.22343 398.21068,483.82345 457.16447,431.16871 488.05444,364.88878 L 445.42491,349.38863 C 419.40494,402.56858 371.35036,444.64748 309.61042,461.16747 223.8405,484.11744 136.25803,451.17519 85.647984,384.68526 L 62.796187,347.07379 C 57.456192,335.75381 53.045103,323.80567 49.685106,311.29568 46.47511,299.35569 44.367713,287.37199 43.277714,275.46201 Z M 162.25891,338.70334 124.0553,361.64801 c 36.04997,45.17995 94.07118,69.76798 153.48112,61.90799 l -11.51849,-43.00041 c -39.80996,3.37 -78.21904,-12.77227 -103.75902,-41.85225 z"
         style="fill:url(#radialGradient4631-2);fill-opacity:1" /><path
         style="fill:url(#linearGradient5719);fill-opacity:1;stroke-width:4.74076;stroke-miterlimit:42.9"
         d="m 453.16765,181.3931 -42.12194,11.28773 11.38127,42.47203 41.98138,-11.24088 z"
         id="path4911-7" /></g></g></svg>
