<?xml version="1.0" encoding="UTF-8" standalone="no"?>
<svg
   width="64"
   height="64"
   version="1.1"
   id="svg8"
   sodipodi:docname="extension-manager.svg"
   inkscape:version="1.2.2 (b0a8486541, 2022-12-01)"
   xmlns:inkscape="http://www.inkscape.org/namespaces/inkscape"
   xmlns:sodipodi="http://sodipodi.sourceforge.net/DTD/sodipodi-0.dtd"
   xmlns="http://www.w3.org/2000/svg"
   xmlns:svg="http://www.w3.org/2000/svg">
  <defs
     id="defs12" />
  <sodipodi:namedview
     id="namedview10"
     pagecolor="#505050"
     bordercolor="#eeeeee"
     borderopacity="1"
     inkscape:showpageshadow="0"
     inkscape:pageopacity="0"
     inkscape:pagecheckerboard="0"
     inkscape:deskcolor="#505050"
     showgrid="false"
     inkscape:zoom="6.609375"
     inkscape:cx="45.238771"
     inkscape:cy="28.444444"
     inkscape:current-layer="svg8" />
  <circle
     cx="32"
     cy="32"
     r="27"
     fill="#ff9800"
     id="circle2"
     style="fill:#66bf40;fill-opacity:1" />
  <circle
     cx="32"
     cy="32"
     r="23"
     fill="#fff"
     opacity=".1"
     id="circle4"
     style="opacity:0.15" />
  <path
     d="M30.826 15.565a3.514 3.514 0 0 0-3.522 3.522v3.521H22.61a2.343 2.343 0 0 0-2.348 2.348v4.696h3.522c1.95 0 3.521 1.57 3.521 3.522s-1.57 3.521-3.521 3.521H20.26v4.696c0 1.3 1.047 2.348 2.348 2.348h4.695v-3.522c0-1.95 1.571-3.522 3.522-3.522s3.522 1.571 3.522 3.522v3.522h4.695a2.343 2.343 0 0 0 2.348-2.348v-4.696h3.522c1.95 0 3.522-1.57 3.522-3.521s-1.571-3.522-3.522-3.522H41.39v-4.696c0-1.3-1.047-2.348-2.348-2.348h-4.695v-3.521a3.514 3.514 0 0 0-3.522-3.522z"
     fill="#ffffff"
     id="path6" />
</svg>
