<?xml version="1.0" encoding="UTF-8" standalone="no"?>
<svg
   width="64"
   height="64"
   version="1.1"
   id="svg10"
   sodipodi:docname="flatseal.svg"
   inkscape:version="1.2.2 (b0a8486541, 2022-12-01)"
   xml:space="preserve"
   xmlns:inkscape="http://www.inkscape.org/namespaces/inkscape"
   xmlns:sodipodi="http://sodipodi.sourceforge.net/DTD/sodipodi-0.dtd"
   xmlns="http://www.w3.org/2000/svg"
   xmlns:svg="http://www.w3.org/2000/svg"><defs
     id="defs14"><linearGradient
       id="linear1"
       gradientUnits="userSpaceOnUse"
       x1="50"
       y1="67.750977"
       x2="94"
       y2="67.750977"
       gradientTransform="matrix(0.32143342,0,0,0.32143342,0.64242504,20.730115)"><stop
         offset="0"
         style="stop-color:rgb(52.549022%,36.862746%,23.529412%);stop-opacity:1;"
         id="stop1163" /><stop
         offset="0.5"
         style="stop-color:rgb(70.980394%,51.372552%,35.294119%);stop-opacity:1;"
         id="stop1165" /><stop
         offset="1"
         style="stop-color:rgb(52.549022%,36.862746%,23.529412%);stop-opacity:1;"
         id="stop1167" /></linearGradient><linearGradient
       id="linear1-7"
       gradientUnits="userSpaceOnUse"
       x1="50"
       y1="67.750977"
       x2="94"
       y2="67.750977"
       gradientTransform="matrix(0.294818,0,0,0.294818,-28.959307,21.881033)"><stop
         offset="0"
         style="stop-color:rgb(52.549022%,36.862746%,23.529412%);stop-opacity:1;"
         id="stop2556" /><stop
         offset="0.5"
         style="stop-color:rgb(70.980394%,51.372552%,35.294119%);stop-opacity:1;"
         id="stop2558" /><stop
         offset="1"
         style="stop-color:rgb(52.549022%,36.862746%,23.529412%);stop-opacity:1;"
         id="stop2560" /></linearGradient></defs><sodipodi:namedview
     id="namedview12"
     pagecolor="#505050"
     bordercolor="#eeeeee"
     borderopacity="1"
     inkscape:showpageshadow="0"
     inkscape:pageopacity="0"
     inkscape:pagecheckerboard="0"
     inkscape:deskcolor="#505050"
     showgrid="false"
     inkscape:zoom="8.0000004"
     inkscape:cx="54.624998"
     inkscape:cy="32.624999"
     inkscape:window-width="1920"
     inkscape:window-height="972"
     inkscape:window-x="0"
     inkscape:window-y="0"
     inkscape:window-maximized="1"
     inkscape:current-layer="svg10" /><g
     id="g2204"><circle
       style="fill:#ffffff;fill-rule:evenodd;stroke-width:0.926;stroke-linecap:round;paint-order:stroke markers fill;fill-opacity:1"
       id="path339"
       cx="32"
       cy="32"
       r="27" /></g><g
     id="g2815"
     inkscape:label="g2815"><circle
       style="fill:#ffffff;fill-rule:evenodd;stroke-width:0.926;stroke-linecap:round;paint-order:stroke markers fill;fill-opacity:1"
       id="path341"
       cx="32"
       cy="32"
       r="9.8549528" /><path
       d="M 32,22.145047 A 9.8549529,9.8549529 0 0 0 22.145048,32 9.8549529,9.8549529 0 0 0 32,41.854953 9.8549529,9.8549529 0 0 0 41.854953,32.000001 9.8549529,9.8549529 0 0 0 32,22.145047 Z m 0,3.284598 A 6.570355,6.570355 0 0 1 38.570356,32 6.570355,6.570355 0 0 1 32,38.570355 6.570355,6.570355 0 0 1 25.429645,32 6.570355,6.570355 0 0 1 32,25.429645 Z"
       fill="#d59a79"
       style="stroke-width:1.15941;paint-order:normal"
       id="path6" /><path
       d="M 32,12.290095 C 21.114519,12.290094 12.290093,21.114519 12.290094,32.000001 12.290093,42.885482 21.114519,51.709907 32,51.709907 l 18.47933,0 c 1.147684,-1.036175 2.51941,-2.662172 3.101035,-3.478218 l -10.40253,0 c 5.341459,-3.677315 8.532272,-9.746796 8.533229,-16.231688 10e-7,-10.88548 -8.824425,-19.709906 -19.709905,-19.709906 z m 0,11.496672 c 4.536309,-6.42e-4 8.213875,3.676925 8.213233,8.213234 6.4e-4,4.536309 -3.676924,8.213874 -8.213233,8.213233 -4.536308,6.4e-4 -8.213873,-3.676925 -8.213234,-8.213233 C 23.786125,27.463692 27.46369,23.786127 32,23.786767 Z"
       fill="#666666"
       style="stroke:none;stroke-width:1.15941;paint-order:normal"
       id="path8"
       sodipodi:nodetypes="sssccccssccccc" /></g></svg>
