<?xml version="1.0" encoding="UTF-8" standalone="no"?>
<svg
   width="64"
   height="64"
   viewBox="0 0 16.933 16.933"
   version="1.1"
   id="svg12"
   sodipodi:docname="secrets.svg"
   xml:space="preserve"
   inkscape:version="1.2.2 (b0a8486541, 2022-12-01)"
   xmlns:inkscape="http://www.inkscape.org/namespaces/inkscape"
   xmlns:sodipodi="http://sodipodi.sourceforge.net/DTD/sodipodi-0.dtd"
   xmlns="http://www.w3.org/2000/svg"
   xmlns:svg="http://www.w3.org/2000/svg"><defs
     id="defs16" /><sodipodi:namedview
     id="namedview14"
     pagecolor="#505050"
     bordercolor="#eeeeee"
     borderopacity="1"
     inkscape:showpageshadow="0"
     inkscape:pageopacity="0"
     inkscape:pagecheckerboard="0"
     inkscape:deskcolor="#505050"
     showgrid="false"
     inkscape:zoom="2.78125"
     inkscape:cx="-74.786517"
     inkscape:cy="35.41573"
     inkscape:window-width="1920"
     inkscape:window-height="972"
     inkscape:window-x="0"
     inkscape:window-y="0"
     inkscape:window-maximized="1"
     inkscape:current-layer="svg12" /><g
     transform="translate(0 -280.07)"
     paint-order="stroke markers fill"
     id="g10"><circle
       cx="8.466"
       cy="288.53"
       r="7.144"
       fill="#71aa75"
       id="circle2" /><circle
       cx="8.467"
       cy="288.53"
       r="5.556"
       fill="#8bc891"
       id="circle4" /></g><g
     fill="#241f31"
     id="g264"
     transform="matrix(0.49608398,0,0,0.49608398,4.4978281,4.4978281)"
     style="fill:#ffffff;fill-opacity:1"><path
       d="M 10,4 H 6 V 6 H 8 V 7 L 6,8 v 4 h 4 V 10 L 8,9 10,8 Z m 0,0"
       id="path260"
       style="fill:#ffffff;fill-opacity:1" /><path
       d="M 8,0 C 3.59375,0 0,3.59375 0,8 c 0,4.40625 3.59375,8 8,8 4.40625,0 8,-3.59375 8,-8 C 16,3.59375 12.40625,0 8,0 Z m 0,2.132812 c 3.253906,0 5.867188,2.613282 5.867188,5.867188 0,3.253906 -2.613282,5.867188 -5.867188,5.867188 C 4.746094,13.867188 2.132812,11.253906 2.132812,8 2.132812,4.746094 4.746094,2.132812 8,2.132812 Z m 0,0"
       id="path262"
       style="fill:#ffffff;fill-opacity:1" /></g></svg>
