<?xml version="1.0" encoding="UTF-8" standalone="no"?>
<svg
   width="16"
   height="16"
   version="1.1"
   id="svg10"
   sodipodi:docname="capslock-disabled-symbolic.svg"
   inkscape:version="1.2.2 (b0a8486541, 2022-12-01)"
   xmlns:inkscape="http://www.inkscape.org/namespaces/inkscape"
   xmlns:sodipodi="http://sodipodi.sourceforge.net/DTD/sodipodi-0.dtd"
   xmlns="http://www.w3.org/2000/svg"
   xmlns:svg="http://www.w3.org/2000/svg">
  <defs
     id="defs14" />
  <sodipodi:namedview
     id="namedview12"
     pagecolor="#505050"
     bordercolor="#eeeeee"
     borderopacity="1"
     inkscape:showpageshadow="0"
     inkscape:pageopacity="0"
     inkscape:pagecheckerboard="0"
     inkscape:deskcolor="#505050"
     showgrid="false"
     inkscape:zoom="45.254834"
     inkscape:cx="13.313495"
     inkscape:cy="9.148194"
     inkscape:current-layer="svg10" />
  <g
     id="g1755"
     inkscape:label="m">
    <g
       transform="translate(-18.803)"
       fill="#aaaaaa"
       id="g1558" />
    <path
       d="M 2,0 C 0.8954305,0 0,0.8954305 0,2 v 12 c 0,1.104569 0.8954305,2 2,2 h 12 c 1.104569,0 2,-0.895431 2,-2 V 2 C 16,0.8954305 15.104569,0 14,0 Z m 1,2 h 10 c 0.504264,0 1,0.4980305 1,1 v 9 c 0,0.502444 -0.498987,1 -1,1 H 3 C 2.5040111,12.990705 2,12.504142 2,12 V 3 C 2,2.4968228 2.5026428,2 3,2 Z"
       fill="#aaaaaa"
       id="path1560"
       sodipodi:nodetypes="sssssssssccccccccc" />
    <g
       aria-label="m"
       id="text1689"
       style="font-family:Comfortaa;-inkscape-font-specification:Comfortaa;fill:#ffffff;stroke:#ffffff;stroke-linecap:round;stroke-linejoin:round;stroke-miterlimit:42.9"
       transform="matrix(0.77489344,0,0,0.77489344,1.8008525,1.7593958)">
      <path
         d="m 10.25,4.6819998 c -0.9360001,0 -1.7040001,0.432 -2.1600001,1.14 -0.42,-0.72 -1.14,-1.14 -2.028,-1.14 -0.732,0 -1.356,0.3 -1.8,0.804 v -0.264 c 0,-0.276 -0.18,-0.468 -0.456,-0.468 -0.276,0 -0.468,0.192 -0.468,0.468 V 10.862 c 0,0.276 0.192,0.456 0.468,0.456 0.276,0 0.456,-0.18 0.456,-0.456 V 7.3099998 c 0,-1.032 0.708,-1.752 1.704,-1.752 0.936,0 1.584,0.708 1.584,1.848 V 10.862 c 0,0.276 0.192,0.456 0.468,0.456 0.276,0 0.456,-0.18 0.456,-0.456 v -3.4560002 -0.024 c -0.012,-1.104 0.684,-1.824 1.6800001,-1.824 0.936,0 1.584,0.708 1.584,1.848 V 10.862 c 0,0.276 0.192,0.456 0.468,0.456 0.276,0 0.456,-0.18 0.456,-0.456 V 7.4059998 c 0,-1.656 -0.996,-2.724 -2.412,-2.724 z"
         id="path1691"
         style="stroke:#aaaaaa;stroke-opacity:1;stroke-width:0.64525001;stroke-dasharray:none;fill:#aaaaaa;fill-opacity:1" />
    </g>
  </g>
</svg>
