<?xml version="1.0" encoding="UTF-8" standalone="no"?>
<svg
   width="16"
   height="16"
   version="1.1"
   id="svg340"
   sodipodi:docname="detach-symbolic.svg"
   inkscape:version="1.2.2 (b0a8486541, 2022-12-01)"
   xmlns:inkscape="http://www.inkscape.org/namespaces/inkscape"
   xmlns:sodipodi="http://sodipodi.sourceforge.net/DTD/sodipodi-0.dtd"
   xmlns="http://www.w3.org/2000/svg"
   xmlns:svg="http://www.w3.org/2000/svg">
  <defs
     id="defs344" />
  <sodipodi:namedview
     id="namedview342"
     pagecolor="#505050"
     bordercolor="#eeeeee"
     borderopacity="1"
     inkscape:showpageshadow="0"
     inkscape:pageopacity="0"
     inkscape:pagecheckerboard="0"
     inkscape:deskcolor="#505050"
     showgrid="false"
     inkscape:zoom="32"
     inkscape:cx="4.84375"
     inkscape:cy="15.0625"
     inkscape:current-layer="svg340" />
  <path
     style="fill:#dfdfdf"
     d="M 5.8,11.62 10,7.41 V 11 H 12 V 4 H 5 V 6 H 8.59 L 4.38,10.2 C 4.15,10.39 4,10.698 4,11 V 12 H 5 C 5.3037,12 5.61,11.86 5.8,11.62 Z"
     id="path338" />
  <path
     style="fill:#ffffff;fill-opacity:1;stroke:none;stroke-width:0.853865;stroke-linecap:round;stroke-linejoin:round;stroke-miterlimit:42.9;paint-order:fill markers stroke"
     id="path569"
     sodipodi:type="arc"
     sodipodi:cx="5"
     sodipodi:cy="-5"
     sodipodi:rx="1"
     sodipodi:ry="1"
     sodipodi:start="0"
     sodipodi:end="3.1415927"
     sodipodi:open="true"
     sodipodi:arc-type="arc"
     d="m 6,-5 a 1,1 0 0 1 -0.5,0.8660254 1,1 0 0 1 -1,0 A 1,1 0 0 1 4,-5"
     transform="rotate(90)" />
  <path
     style="fill:#ffffff;fill-opacity:1;stroke:none;stroke-width:0.853865;stroke-linecap:round;stroke-linejoin:round;stroke-miterlimit:42.9;paint-order:fill markers stroke"
     id="path569-3"
     sodipodi:type="arc"
     sodipodi:cx="11"
     sodipodi:cy="11"
     sodipodi:rx="1"
     sodipodi:ry="1"
     sodipodi:start="0"
     sodipodi:end="3.1415927"
     sodipodi:open="true"
     sodipodi:arc-type="arc"
     d="m 12,11 a 1,1 0 0 1 -0.5,0.866025 1,1 0 0 1 -1,0 A 1,1 0 0 1 10,11" />
</svg>
