<?xml version="1.0" encoding="UTF-8" standalone="no"?>
<svg
   viewBox="0 0 64 64"
   version="1.1"
   id="svg4581"
   sodipodi:docname="application-ogg.svg"
   inkscape:version="1.2.2 (b0a8486541, 2022-12-01)"
   xmlns:inkscape="http://www.inkscape.org/namespaces/inkscape"
   xmlns:sodipodi="http://sodipodi.sourceforge.net/DTD/sodipodi-0.dtd"
   xmlns="http://www.w3.org/2000/svg"
   xmlns:svg="http://www.w3.org/2000/svg">
  <sodipodi:namedview
     id="namedview4583"
     pagecolor="#505050"
     bordercolor="#eeeeee"
     borderopacity="1"
     inkscape:showpageshadow="0"
     inkscape:pageopacity="0"
     inkscape:pagecheckerboard="0"
     inkscape:deskcolor="#505050"
     showgrid="false"
     inkscape:zoom="12.015625"
     inkscape:cx="27.672302"
     inkscape:cy="31.958388"
     inkscape:current-layer="svg4581" />
  <defs
     id="defs4573">
    <linearGradient
       id="a"
       x1="49.571"
       x2="51.714"
       y1="52.714"
       y2="54.857"
       gradientTransform="translate(-68.667 -72.001) scale(2.3333)"
       gradientUnits="userSpaceOnUse">
      <stop
         offset="0"
         id="stop4568" />
      <stop
         stop-opacity="0"
         offset="1"
         id="stop4570" />
    </linearGradient>
  </defs>
  <rect
     x="8"
     y="4"
     width="48"
     height="56"
     ry="5"
     fill="#f4f4f4"
     style="paint-order:stroke fill markers"
     id="rect4575" />
  <path
     d="M56 46 42 60h9c2.77 0 5-2.23 5-5z"
     fill="url(#a)"
     fill-rule="evenodd"
     opacity=".1"
     style="paint-order:stroke fill markers"
     id="path4577" />
  <path
     style="fill:#ee7d00;fill-opacity:1;stroke-width:1.71429"
     d="M 26.857143,20 V 34.04 C 26.308571,33.851429 25.76,33.714286 25.142857,33.714286 22.297143,33.714286 20,36.028571 20,38.857143 20,41.702857 22.297143,44 25.142857,44 c 2.845714,0 5.142857,-2.297143 5.142857,-5.142857 v -12 H 40.571429 V 34.04 c -0.548572,-0.188571 -1.097143,-0.325714 -1.714286,-0.325714 -2.845714,0 -5.142857,2.314285 -5.142857,5.142857 C 33.714286,41.702857 36.011429,44 38.857143,44 41.702857,44 44,41.702857 44,38.857143 V 20 Z"
     id="path4702" />
</svg>
