<?xml version="1.0" encoding="UTF-8" standalone="no"?>
<svg
   viewBox="0 0 64 64"
   version="1.1"
   id="svg4581"
   sodipodi:docname="application-ogg.svg"
   inkscape:version="1.2.2 (b0a8486541, 2022-12-01)"
   xmlns:inkscape="http://www.inkscape.org/namespaces/inkscape"
   xmlns:sodipodi="http://sodipodi.sourceforge.net/DTD/sodipodi-0.dtd"
   xmlns:xlink="http://www.w3.org/1999/xlink"
   xmlns="http://www.w3.org/2000/svg"
   xmlns:svg="http://www.w3.org/2000/svg">
  <sodipodi:namedview
     id="namedview4583"
     pagecolor="#505050"
     bordercolor="#eeeeee"
     borderopacity="1"
     inkscape:showpageshadow="0"
     inkscape:pageopacity="0"
     inkscape:pagecheckerboard="0"
     inkscape:deskcolor="#505050"
     showgrid="false"
     inkscape:zoom="12.015625"
     inkscape:cx="45.607282"
     inkscape:cy="31.292587"
     inkscape:current-layer="svg4581" />
  <defs
     id="defs4573">
    <linearGradient
       inkscape:collect="always"
       id="linearGradient819">
      <stop
         style="stop-color:#f07e00;stop-opacity:1;"
         offset="0"
         id="stop815" />
      <stop
         style="stop-color:#ff9d33;stop-opacity:1;"
         offset="1"
         id="stop817" />
    </linearGradient>
    <linearGradient
       id="a"
       x1="49.571"
       x2="51.714"
       y1="52.714"
       y2="54.857"
       gradientTransform="translate(-68.667 -72.001) scale(2.3333)"
       gradientUnits="userSpaceOnUse">
      <stop
         offset="0"
         id="stop4568" />
      <stop
         stop-opacity="0"
         offset="1"
         id="stop4570" />
    </linearGradient>
    <linearGradient
       inkscape:collect="always"
       xlink:href="#linearGradient819"
       id="linearGradient823"
       x1="45"
       y1="45"
       x2="19"
       y2="19"
       gradientUnits="userSpaceOnUse"
       gradientTransform="matrix(0.76923089,0,0,0.76923089,7.3846113,7.3846113)" />
  </defs>
  <rect
     x="8"
     y="4"
     width="48"
     height="56"
     ry="5"
     fill="#f4f4f4"
     style="paint-order:stroke fill markers"
     id="rect4575" />
  <path
     d="M56 46 42 60h9c2.77 0 5-2.23 5-5z"
     fill="url(#a)"
     fill-rule="evenodd"
     opacity=".1"
     style="paint-order:stroke fill markers"
     id="path4577" />
  <path
     style="opacity:1;fill:url(#linearGradient823);fill-opacity:1;stroke:none;stroke-width:1.53846;stroke-linejoin:miter;stroke-dasharray:none;stroke-opacity:0.2;paint-order:markers stroke fill"
     d="m 28.043955,22.769228 v 10.800003 c -0.421978,-0.145055 -0.843956,-0.25055 -1.318681,-0.25055 -2.189011,0 -3.956045,1.780219 -3.956045,3.956045 0,2.189011 1.767034,3.956046 3.956045,3.956046 2.18901,0 3.956044,-1.767035 3.956044,-3.956046 v -9.230771 h 7.91209 v 5.525276 c -0.421979,-0.145054 -0.843956,-0.250548 -1.318682,-0.250548 -2.189011,0 -3.956044,1.780219 -3.956044,3.956043 0,2.189011 1.767033,3.956046 3.956044,3.956046 2.189011,0 3.956045,-1.767035 3.956045,-3.956046 V 22.769228 Z"
     id="path4702" />
</svg>
