<?xml version="1.0" encoding="UTF-8" standalone="no"?>
<svg
   width="64"
   height="64"
   version="1.1"
   id="svg13397"
   sodipodi:docname="application-vnd.ms-asf.svg"
   inkscape:version="1.2.2 (b0a8486541, 2022-12-01)"
   xmlns:inkscape="http://www.inkscape.org/namespaces/inkscape"
   xmlns:sodipodi="http://sodipodi.sourceforge.net/DTD/sodipodi-0.dtd"
   xmlns="http://www.w3.org/2000/svg"
   xmlns:svg="http://www.w3.org/2000/svg">
  <sodipodi:namedview
     id="namedview13399"
     pagecolor="#505050"
     bordercolor="#eeeeee"
     borderopacity="1"
     inkscape:showpageshadow="0"
     inkscape:pageopacity="0"
     inkscape:pagecheckerboard="0"
     inkscape:deskcolor="#505050"
     showgrid="false"
     inkscape:zoom="12.015625"
     inkscape:cx="43.318596"
     inkscape:cy="37.20156"
     inkscape:current-layer="svg13397" />
  <defs
     id="defs13389">
    <linearGradient
       id="a"
       x1="49.571"
       x2="51.714"
       y1="52.714"
       y2="54.857"
       gradientTransform="translate(-68.667 -72.001) scale(2.3333)"
       gradientUnits="userSpaceOnUse">
      <stop
         offset="0"
         id="stop13384" />
      <stop
         stop-opacity="0"
         offset="1"
         id="stop13386" />
    </linearGradient>
  </defs>
  <rect
     x="8"
     y="4"
     width="48"
     height="56"
     ry="5"
     fill="#f4f4f4"
     style="paint-order:stroke fill markers"
     id="rect13391" />
  <path
     d="M56 46 42 60h9c2.77 0 5-2.23 5-5z"
     fill="url(#a)"
     fill-rule="evenodd"
     opacity=".1"
     style="paint-order:stroke fill markers"
     id="path13393" />
  <path
     d="m 18.999,19.999 c -0.553,0 -0.999,0.445 -0.999,0.999 0,0.554 0.446,1 1,1 h 13.99 c 0.554,0 1,-0.446 1,-1 0,-0.554 -0.446,-1 -1,-1 H 19 Z m 0,5.996 c -0.553,0 -0.999,0.445 -0.999,0.999 0,0.554 0.446,1 1,1 h 13.99 c 0.554,0 1,-0.446 1,-1 0,-0.554 -0.446,-1 -1,-1 H 19 Z m 0,5.996 c -0.553,0 -0.999,0.445 -0.999,0.999 0,0.554 0.446,1 1,1 h 13.99 c 0.554,0 1,-0.446 1,-1 0,-0.554 -0.446,-1 -1,-1 H 19 Z m 0,5.996 c -0.553,0 -0.999,0.445 -0.999,0.999 0,0.554 0.446,1 1,1 h 7.994 c 0.554,0 1,-0.446 1,-1 0,-0.554 -0.446,-1 -1,-1 h -7.995 z"
     color="#000000"
     fill="#ffa84c"
     overflow="visible"
     style="isolation:auto;mix-blend-mode:normal"
     id="path13395"
     sodipodi:nodetypes="cssssscccssssscccssssscccssssscc" />
  <path
     style="fill:#ffa84c;fill-opacity:1;stroke-width:1.99999"
     d="m 40,20 v 16.38 c -0.64,-0.220001 -1.28,-0.380001 -2,-0.380001 -3.32,0 -6,2.700002 -6,6.000001 0,3.32 2.68,6 6,6 3.32,0 5.999999,-2.68 5.999999,-6 V 24.5 L 48,28.5 V 24.000001 L 43.999999,20 Z"
     id="path13245"
     sodipodi:nodetypes="ccssssccccc" />
</svg>
