<?xml version="1.0" encoding="UTF-8" standalone="no"?>
<svg
   width="64"
   height="64"
   viewBox="0 0 16.933 16.933"
   version="1.1"
   id="svg5375"
   sodipodi:docname="application-vnd.ms-powerpoint.presentation.macroEnabled.12.svg"
   inkscape:version="1.2.2 (b0a8486541, 2022-12-01)"
   xmlns:inkscape="http://www.inkscape.org/namespaces/inkscape"
   xmlns:sodipodi="http://sodipodi.sourceforge.net/DTD/sodipodi-0.dtd"
   xmlns="http://www.w3.org/2000/svg"
   xmlns:svg="http://www.w3.org/2000/svg">
  <sodipodi:namedview
     id="namedview5377"
     pagecolor="#505050"
     bordercolor="#eeeeee"
     borderopacity="1"
     inkscape:showpageshadow="0"
     inkscape:pageopacity="0"
     inkscape:pagecheckerboard="0"
     inkscape:deskcolor="#505050"
     showgrid="false"
     inkscape:zoom="12.015625"
     inkscape:cx="54.886866"
     inkscape:cy="37.617685"
     inkscape:current-layer="svg5375" />
  <defs
     id="defs5365">
    <linearGradient
       id="a"
       x1="49.571"
       x2="51.714"
       y1="52.714"
       y2="54.857"
       gradientTransform="translate(-68.667 -72.001) scale(2.3333)"
       gradientUnits="userSpaceOnUse">
      <stop
         offset="0"
         id="stop5360" />
      <stop
         stop-opacity="0"
         offset="1"
         id="stop5362" />
    </linearGradient>
  </defs>
  <g
     transform="scale(.26458)"
     id="g5371">
    <rect
       x="8"
       y="4"
       width="48"
       height="56"
       ry="5"
       fill="#f9ce1d"
       style="paint-order:stroke fill markers;fill:#d4b335;fill-opacity:1"
       id="rect5367" />
    <path
       d="M56 46 42 60h9c2.77 0 5-2.23 5-5z"
       fill="url(#a)"
       fill-rule="evenodd"
       opacity=".15"
       style="paint-order:stroke fill markers"
       id="path5369" />
  </g>
  <g
     id="g16163"
     transform="matrix(1.4285702,0,0,1.4285713,-5.1403673,-2.5701866)">
    <path
       d="m 8.467,8.4665 v 0.5291562 h 3.280273 V 8.4665 Z m -5e-4,1.0583125 v 0.5291565 h 3.280773 V 9.5248125 Z m 0,1.0583125 v 0.529156 h 3.280773 v -0.529156 z m -2.6457815,1.058313 v 0.529156 h 5.9265545 v -0.529156 z"
       color="#000000"
       fill="#ffffff"
       style="text-indent:0;text-decoration-line:none;text-transform:none"
       id="path5373"
       sodipodi:nodetypes="cccccccccccccccccccc" />
    <path
       style="fill:#ffffff;fill-opacity:1;stroke:none;stroke-width:1.35284;stroke-linecap:round;stroke-linejoin:round;stroke-miterlimit:42.9;paint-order:fill markers stroke"
       id="path15539"
       sodipodi:type="arc"
       sodipodi:cx="6.8785119"
       sodipodi:cy="9.5213633"
       sodipodi:rx="1.0577934"
       sodipodi:ry="1.054863"
       sodipodi:start="0"
       sodipodi:end="4.712389"
       sodipodi:arc-type="slice"
       d="M 7.9363053,9.5213633 A 1.0577934,1.054863 0 0 1 7.2833119,10.49593 1.0577934,1.054863 0 0 1 6.130539,10.267264 1.0577934,1.054863 0 0 1 5.9012383,9.1176847 1.0577934,1.054863 0 0 1 6.8785119,8.4665003 v 1.054863 z" />
  </g>
</svg>
