<?xml version="1.0" encoding="UTF-8" standalone="no"?>
<svg
   width="64"
   height="64"
   version="1.1"
   viewBox="0 0 16.933 16.933"
   id="svg10"
   sodipodi:docname="gnome-settings.svg"
   xml:space="preserve"
   inkscape:version="1.2.2 (b0a8486541, 2022-12-01)"
   xmlns:inkscape="http://www.inkscape.org/namespaces/inkscape"
   xmlns:sodipodi="http://sodipodi.sourceforge.net/DTD/sodipodi-0.dtd"
   xmlns="http://www.w3.org/2000/svg"
   xmlns:svg="http://www.w3.org/2000/svg"><defs
     id="defs14" /><sodipodi:namedview
     id="namedview12"
     pagecolor="#505050"
     bordercolor="#eeeeee"
     borderopacity="1"
     inkscape:showpageshadow="0"
     inkscape:pageopacity="0"
     inkscape:pagecheckerboard="0"
     inkscape:deskcolor="#505050"
     showgrid="false"
     inkscape:zoom="9.3470678"
     inkscape:cx="8.5588339"
     inkscape:cy="31.667685"
     inkscape:current-layer="svg10" /><circle
     cx="8.4664993"
     cy="8.4664993"
     r="7.1436095"
     fill="#ff9800"
     style="stroke-width:0.999945;paint-order:stroke markers fill"
     id="circle2" /><path
     style="fill:#ffffff;stroke-width:0.453563;fill-opacity:1"
     d="m 7.6727649,5.2915618 -0.068035,0.834555 A 2.4945935,2.4945935 0 0 0 6.8744949,6.5479297 L 6.1125102,6.1896155 5.3187757,7.5684454 6.0081907,8.0446859 a 2.4945935,2.4945935 0 0 0 -0.036285,0.4218131 2.4945935,2.4945935 0 0 0 0.036285,0.4218132 l -0.689415,0.4762405 0.7937345,1.3788303 0.7574492,-0.358315 a 2.4945935,2.4945935 0 0 0 0.7347711,0.417278 l 0.068035,0.839091 h 1.5874678 l 0.068035,-0.834556 a 2.4945935,2.4945935 0 0 0 0.7302351,-0.421813 l 0.761985,0.358315 0.793735,-1.3788303 -0.689415,-0.4762405 A 2.4945935,2.4945935 0 0 0 10.961093,8.466499 2.4945935,2.4945935 0 0 0 10.924808,8.0446859 L 11.614223,7.5684454 10.820488,6.1896155 10.063039,6.5479297 A 2.4945935,2.4945935 0 0 0 9.3282678,6.1306525 L 9.2602335,5.2915618 Z M 8.4664992,7.559374 A 0.90712491,0.90712491 0 0 1 9.373624,8.466499 0.90712491,0.90712491 0 0 1 8.4664992,9.3736239 0.90712491,0.90712491 0 0 1 7.5593742,8.466499 0.90712491,0.90712491 0 0 1 8.4664992,7.559374 Z"
     id="path243" /><path
     d="m 8.2024496,2.6457805 a 5.82,5.8202083 0 0 0 -3.7051,1.3358478 V 4.6916737 A 5.292,5.2921894 0 0 0 2.9103499,8.4657088 5.292,5.2921894 0 0 0 4.4973496,12.239743 v 0.712626 a 5.82,5.8202083 0 0 0 3.7051,1.334849 A 5.82,5.8202083 0 0 0 14.022649,8.4668088 5.82,5.8202083 0 0 0 8.2024496,2.6459005 Z"
     fill="#000000"
     opacity="0.1"
     style="stroke-width:1.00002;paint-order:stroke markers fill"
     id="path1013" /></svg>
