<?xml version="1.0" encoding="UTF-8" standalone="no"?>
<svg
   width="64"
   height="64"
   version="1.1"
   viewBox="0 0 16.933 16.933"
   id="svg10"
   sodipodi:docname="preferences-system.svg"
   xml:space="preserve"
   inkscape:version="1.2.2 (b0a8486541, 2022-12-01)"
   xmlns:inkscape="http://www.inkscape.org/namespaces/inkscape"
   xmlns:sodipodi="http://sodipodi.sourceforge.net/DTD/sodipodi-0.dtd"
   xmlns="http://www.w3.org/2000/svg"
   xmlns:svg="http://www.w3.org/2000/svg"><defs
     id="defs14" /><sodipodi:namedview
     id="namedview12"
     pagecolor="#505050"
     bordercolor="#eeeeee"
     borderopacity="1"
     inkscape:showpageshadow="0"
     inkscape:pageopacity="0"
     inkscape:pagecheckerboard="0"
     inkscape:deskcolor="#505050"
     showgrid="false"
     inkscape:zoom="13.21875"
     inkscape:cx="48.491726"
     inkscape:cy="31.621749"
     inkscape:current-layer="svg10" /><circle
     cx="8.4664993"
     cy="8.4664993"
     r="7.1436095"
     fill="#ff9800"
     style="stroke-width:0.999945;paint-order:stroke markers fill"
     id="circle2" /><path
     d="m 8.2024496,2.6457805 a 5.82,5.8202083 0 0 0 -3.7051,1.3358478 V 4.6916737 A 5.292,5.2921894 0 0 0 2.9103499,8.4657088 5.292,5.2921894 0 0 0 4.4973496,12.239743 v 0.712626 a 5.82,5.8202083 0 0 0 3.7051,1.334849 A 5.82,5.8202083 0 0 0 14.022649,8.4668088 5.82,5.8202083 0 0 0 8.2024496,2.6459005 Z"
     fill="#000000"
     opacity="0.1"
     style="stroke-width:1.00002;paint-order:stroke markers fill"
     id="path1013" /><g
     fill="#ffffff"
     id="g531"
     transform="translate(-5.0067139e-4,-280.0645)"
     inkscape:label="settings"><circle
       cx="8.467"
       cy="288.53"
       r="3.4400001"
       opacity="0.15"
       id="circle525" /><path
       d="m 8.467,285.62 a 2.91,2.91 0 0 0 -2.91,2.91 2.91,2.91 0 0 0 2.91,2.91 2.91,2.91 0 0 0 2.91,-2.91 2.91,2.91 0 0 0 -2.91,-2.91 z m 0,1.323 a 1.587,1.587 0 0 1 1.587,1.587 1.587,1.587 0 0 1 -1.587,1.588 1.587,1.587 0 0 1 -1.588,-1.588 1.587,1.587 0 0 1 1.588,-1.587 z"
       id="path527" /><path
       d="m 7.938,284.43 h 1.058 v 1.852 H 7.938 Z m 0,6.35 h 1.058 v 1.852 H 7.938 Z m 4.63,-2.778 v 1.058 h -1.852 v -1.058 z m -6.35,0 v 1.058 H 4.366 v -1.058 z m 5.522,3.056 -0.747,0.747 -1.31,-1.31 0.748,-0.747 z m -4.49,-4.49 -0.747,0.747 -1.31,-1.31 0.748,-0.747 z m -1.309,5.237 -0.748,-0.748 1.31,-1.31 0.748,0.749 z m 4.49,-4.49 -0.748,-0.748 1.31,-1.31 0.748,0.749 z"
       id="path529" /></g></svg>
