<?xml version="1.0" encoding="UTF-8" standalone="no"?>
<svg
   width="64"
   height="64"
   viewBox="0 0 16.933 16.933"
   version="1.1"
   id="svg39"
   sodipodi:docname="system-monitor.svg"
   inkscape:version="1.2.2 (b0a8486541, 2022-12-01)"
   xmlns:inkscape="http://www.inkscape.org/namespaces/inkscape"
   xmlns:sodipodi="http://sodipodi.sourceforge.net/DTD/sodipodi-0.dtd"
   xmlns:xlink="http://www.w3.org/1999/xlink"
   xmlns="http://www.w3.org/2000/svg"
   xmlns:svg="http://www.w3.org/2000/svg">
  <sodipodi:namedview
     id="namedview41"
     pagecolor="#505050"
     bordercolor="#eeeeee"
     borderopacity="1"
     inkscape:showpageshadow="0"
     inkscape:pageopacity="0"
     inkscape:pagecheckerboard="0"
     inkscape:deskcolor="#505050"
     showgrid="false"
     inkscape:zoom="12.015625"
     inkscape:cx="2.5383615"
     inkscape:cy="26.63199"
     inkscape:current-layer="svg39" />
  <defs
     id="defs17">
    <linearGradient
       inkscape:collect="always"
       id="linearGradient1832">
      <stop
         style="stop-color:#ffffff;stop-opacity:1;"
         offset="0"
         id="stop1828" />
      <stop
         style="stop-color:#ffffff;stop-opacity:0.25106382;"
         offset="1"
         id="stop1830" />
    </linearGradient>
    <linearGradient
       id="b"
       x1="32"
       x2="53.891"
       y1="43.543"
       y2="43.543"
       gradientTransform="matrix(0.26458,0,0,0.26458,0.01435938,0.12043774)"
       gradientUnits="userSpaceOnUse">
      <stop
         stop-color="#b9c0ff"
         offset="0"
         id="stop2" />
      <stop
         stop-color="#7380ff"
         offset="1"
         id="stop4" />
    </linearGradient>
    <linearGradient
       id="a"
       x1="10"
       x2="53.891"
       y1="32"
       y2="32"
       gradientTransform="matrix(0.26525074,0,0,0.26458995,-0.00692665,-3.1813129e-4)"
       gradientUnits="userSpaceOnUse">
      <stop
         stop-color="#fff"
         offset="0"
         id="stop7" />
      <stop
         stop-color="#fff"
         stop-opacity="0"
         offset="1"
         id="stop9" />
    </linearGradient>
    <linearGradient
       id="c"
       x1="32"
       x2="32"
       y1="32"
       y2="6"
       gradientTransform="scale(.26458)"
       gradientUnits="userSpaceOnUse">
      <stop
         stop-color="#fff"
         offset="0"
         id="stop12" />
      <stop
         stop-color="#fff"
         offset="1"
         id="stop14" />
    </linearGradient>
    <linearGradient
       inkscape:collect="always"
       xlink:href="#linearGradient1832"
       id="linearGradient1834"
       x1="-13.245968"
       y1="3.1725292"
       x2="-1.6045305"
       y2="14.813967"
       gradientUnits="userSpaceOnUse"
       gradientTransform="translate(15.891749,-0.52674778)" />
    <clipPath
       clipPathUnits="userSpaceOnUse"
       id="clipPath2069">
      <circle
         cx="11.997773"
         cy="11.99983"
         opacity="0.25"
         id="circle2071"
         style="fill:#444c98;fill-opacity:1;stroke-width:3.77942"
         r="22" />
    </clipPath>
    <mask
       maskUnits="userSpaceOnUse"
       id="mask2134">
      <path
         id="path2136"
         style="fill:url(#linearGradient2138);fill-opacity:1;stroke-width:3.77942"
         d="m 11.997774,-10.000169 a 22,22 0 0 0 -22,22 22,22 0 0 0 22,22.000001 22,22 0 0 0 22.000001,-22.000001 22,22 0 0 0 -22.000001,-22 z m 0,1.9999998 A 20,20 0 0 1 31.997776,11.999831 20,20 0 0 1 11.997774,31.999829 20,20 0 0 1 -8.0022271,11.999831 20,20 0 0 1 11.997774,-8.0001692 Z" />
    </mask>
    <linearGradient
       inkscape:collect="always"
       xlink:href="#linearGradient1832"
       id="linearGradient2138"
       gradientUnits="userSpaceOnUse"
       gradientTransform="matrix(3.7796021,0,0,3.7796021,40.06226,-21.991067)"
       x1="-13.245968"
       y1="3.1725292"
       x2="-1.6045305"
       y2="14.813967" />
    <clipPath
       clipPathUnits="userSpaceOnUse"
       id="clipPath2172">
      <circle
         cx="8.4665003"
         cy="8.4665003"
         opacity="0.25"
         id="circle2174"
         style="opacity:1;fill:#984444;fill-opacity:1;stroke-width:0.909032"
         r="5.2915626" />
    </clipPath>
  </defs>
  <circle
     cx="8.4665003"
     cy="8.4665003"
     fill="#5b65cb"
     fill-rule="evenodd"
     id="circle19"
     style="stroke-width:0.999946"
     r="7.1436095" />
  <g
     fill-rule="evenodd"
     id="g37">
    <circle
       cx="8.4665003"
       cy="8.4665003"
       opacity="0.25"
       id="circle23"
       style="stroke-width:0.999952;opacity:1;fill:#444c98;fill-opacity:1"
       r="5.8207188" />
    <path
       id="circle23-3"
       style="opacity:1;fill:url(#linearGradient1834);fill-opacity:1;stroke-width:0.999952"
       d="M 8.4665003,2.6457815 A 5.8207188,5.8207188 0 0 0 2.6457815,8.4665003 5.8207188,5.8207188 0 0 0 8.4665003,14.287219 5.8207188,5.8207188 0 0 0 14.287219,8.4665003 5.8207188,5.8207188 0 0 0 8.4665003,2.6457815 Z m 0,0.5291563 A 5.2915626,5.2915626 0 0 1 13.758063,8.4665003 5.2915626,5.2915626 0 0 1 8.4665003,13.758062 5.2915626,5.2915626 0 0 1 3.1749375,8.4665003 5.2915626,5.2915626 0 0 1 8.4665003,3.1749378 Z" />
  </g>
  <g
     id="g2170"
     clip-path="url(#clipPath2172)">
    <path
       d="m 10.301615,5.0467485 c -0.215897,-0.5202307 -0.9207335,-0.5202307 -1.1366285,0 L 7.196525,9.797679 6.4916889,8.1069293 C 6.383741,7.8468136 6.1678453,7.6861542 5.92655,7.6861542 H 2.116625 v 1.5300906 h 3.4162328 l 1.0921785,2.6394062 c 0.1142977,0.260115 0.3301934,0.420774 0.5714887,0.420774 0.2412953,0 0.457191,-0.160659 0.5651389,-0.420774 L 9.7364745,7.1047203 10.441311,8.7954697 c 0.107948,0.2601156 0.323844,0.4207751 0.56514,0.4207751 h 3.809925 V 7.6861542 h -3.416233 z"
       id="path278"
       style="fill:#ffffff;fill-opacity:1;stroke-width:0.696988" />
  </g>
</svg>
