<?xml version="1.0" encoding="UTF-8" standalone="no"?>
<svg
   inkscape:version="1.2.2 (b0a8486541, 2022-12-01)"
   sodipodi:docname="io.github.Bavarder.Bavarder.svg"
   id="svg12"
   version="1.1"
   viewBox="0 0 16.933 16.933"
   height="64"
   width="64"
   xml:space="preserve"
   xmlns:inkscape="http://www.inkscape.org/namespaces/inkscape"
   xmlns:sodipodi="http://sodipodi.sourceforge.net/DTD/sodipodi-0.dtd"
   xmlns="http://www.w3.org/2000/svg"
   xmlns:svg="http://www.w3.org/2000/svg"><defs
     id="defs16"><linearGradient
       id="linearGradient1229"
       inkscape:swatch="solid"><stop
         style="stop-color:#000000;stop-opacity:1;"
         offset="0"
         id="stop1227" /></linearGradient><rect
       x="4.4382802"
       y="5.592233"
       width="31.334258"
       height="14.401861"
       id="rect2126" /><rect
       x="4.4382801"
       y="5.5922332"
       width="31.334257"
       height="14.401861"
       id="rect2126-3" /><clipPath
       id="o"><path
         d="m 40,58 h 24 v 2 H 40 Z m 0,4 h 24 v 2 H 40 Z m 0,4 h 24 v 2 H 40 Z m 0,0"
         id="path170" /></clipPath></defs><sodipodi:namedview
     id="namedview14"
     pagecolor="#505050"
     bordercolor="#eeeeee"
     borderopacity="1"
     inkscape:showpageshadow="0"
     inkscape:pageopacity="0"
     inkscape:pagecheckerboard="0"
     inkscape:deskcolor="#505050"
     showgrid="false"
     inkscape:zoom="11.313709"
     inkscape:cx="51.265239"
     inkscape:cy="27.842328"
     inkscape:window-width="1920"
     inkscape:window-height="972"
     inkscape:window-x="0"
     inkscape:window-y="0"
     inkscape:window-maximized="1"
     inkscape:current-layer="svg12" /><circle
     cx="8.4665003"
     cy="8.4665003"
     fill="#5f5f5f"
     style="fill:#313436;fill-opacity:1;stroke-width:0.999946;paint-order:stroke markers fill"
     id="circle2"
     r="7.1436095" /><g
     id="g823"
     transform="matrix(0.99794183,0,0,0.99794183,0.03032111,0.03616745)"><g
       id="g2370"
       transform="matrix(0.98370542,0,0,0.98370542,0.1379508,0.47965463)"><g
         id="g1076"
         style="fill:#c0c0be;fill-opacity:1"
         transform="matrix(0.10483307,0,0,0.10483307,1.7566831,1.7506836)"><path
           d="m 27.957031,8.785156 2.828125,-2.828125 22.628906,22.628907 -2.828124,2.828124 z m 0,0"
           fill="url(#b)"
           id="path173"
           style="fill:#c0c0be;fill-opacity:1" /><path
           d="m 76.042969,8.785156 -2.828125,-2.828125 -22.628906,22.628907 2.828124,2.828124 z m 0,0"
           fill="url(#g)"
           id="path179"
           style="fill:#c0c0be;fill-opacity:1" /></g><g
         id="g1071"
         style="fill:#9d9c99;fill-opacity:1"
         transform="matrix(0.10483307,0,0,0.10483307,1.7566831,1.7506836)"><path
           d="m 33.613281,3.128906 c 2.34375,2.34375 2.34375,6.144532 0,8.484375 -2.339843,2.34375 -6.140625,2.34375 -8.484375,0 -2.34375,-2.339843 -2.34375,-6.140625 0,-8.484375 2.34375,-2.34375 6.144532,-2.34375 8.484375,0 z m 0,0"
           fill="url(#d)"
           id="path175"
           style="fill:#9d9c99;fill-opacity:1" /><path
           d="m 70.386719,3.128906 c -2.34375,2.34375 -2.34375,6.144532 0,8.484375 2.339843,2.34375 6.140625,2.34375 8.484375,0 2.34375,-2.339843 2.34375,-6.140625 0,-8.484375 -2.34375,-2.34375 -6.144532,-2.34375 -8.484375,0 z m 0,0"
           fill="url(#h)"
           id="path181"
           style="fill:#9d9c99;fill-opacity:1" /></g><g
         id="g276"
         inkscape:label="orange b"><g
           id="g1264"><path
             d="m 12.23999,12.862989 v 1.467663 l -1.677329,-1.467663 z m 0,0"
             fill="#e66100"
             fill-rule="evenodd"
             id="path187"
             style="stroke-width:0.104834" /><path
             d="m 12.23999,12.653323 v 1.467663 l -1.677329,-1.467663 z m 0,0"
             fill="#ff7800"
             fill-rule="evenodd"
             id="path191"
             style="stroke-width:0.104834" /></g><path
           d="m 4.6944661,10.032496 c -8.219e-4,0.03481 -0.00246,0.06961 -0.00246,0.104833 0,1.626141 1.3091847,2.935326 2.9353256,2.935326 h 4.1933253 c 1.626141,0 2.935326,-1.309185 2.935326,-2.935326 0,-0.03521 -0.0016,-0.07003 -0.0029,-0.104833 -0.05488,1.577001 -1.34154,2.830493 -2.932464,2.830493 H 7.6273347 c -1.5909234,0 -2.8775856,-1.253492 -2.9328686,-2.830493 z m 0,0"
           fill="#e66100"
           id="path189"
           style="stroke-width:0.104834" /><path
           d="m 7.6273347,7.2020031 h 4.1933223 c 1.621228,0 2.935328,1.3140989 2.935328,2.9353259 0,1.621227 -1.3141,2.935326 -2.935328,2.935326 H 7.6273347 c -1.6212269,0 -2.9353257,-1.314099 -2.9353257,-2.935326 0,-1.621227 1.3140988,-2.9353259 2.9353257,-2.9353259 z m 0,0"
           fill="#ff7800"
           id="path185"
           style="stroke-width:0.104834" /><g
           fill="#c0bfbc"
           id="g227"
           style="fill:#ffffff;fill-opacity:1"
           transform="matrix(0.10483307,0,0,0.10483307,1.7566831,1.7506836)"><path
             d="m 105.625,70.003906 c 3.28906,-0.1875 6.19531,2.34375 6.375,5.625 0,2.804688 -0.75781,3.84375 -3.1875,5.6875 -0.38281,0.289063 -0.64844,0.5 -0.75,0.625 -0.10156,0.125 -0.0625,0.0625 -0.0625,0.0625 0.0156,1.054688 -0.94531,2 -2,2 -1.05469,0 -2.01562,-0.945312 -2,-2 0,-1.007812 0.45313,-1.890625 0.9375,-2.5 0.49219,-0.617187 0.98438,-1.03125 1.4375,-1.375 0.40625,-0.320312 0.92188,-0.765625 1.375,-1.3125 0.1875,-0.226562 0.25781,-0.617187 0.25,-0.875 v -0.0625 c -0.0625,-1.125 -1,-1.9375 -2.125,-1.875 -1.125,0.0625 -1.9375,0.875 -1.875,2 h -4 c -0.179688,-3.28125 2.34375,-5.8125 5.625,-6 z m 0.375,16 c 1.10156,0 2,0.898438 2,2 0,1.101563 -0.89844,2 -2,2 -1.10156,0 -2,-0.898437 -2,-2 0,-1.101562 0.89844,-2 2,-2 z m 0,0"
             id="path221"
             style="fill:#ffffff;fill-opacity:1" /><path
             d="m 91.625,70.003906 c 3.289062,-0.1875 6.195312,2.34375 6.375,5.625 0,2.804688 -0.757812,3.84375 -3.1875,5.6875 -0.382812,0.289063 -0.648438,0.5 -0.75,0.625 -0.101562,0.125 -0.0625,0.0625 -0.0625,0.0625 0.01563,1.054688 -0.945312,2 -2,2 -1.054688,0 -2.015625,-0.945312 -2,-2 0,-1.007812 0.453125,-1.890625 0.9375,-2.5 0.492188,-0.617187 0.984375,-1.03125 1.4375,-1.375 0.40625,-0.320312 0.921875,-0.765625 1.375,-1.3125 0.1875,-0.226562 0.257812,-0.617187 0.25,-0.875 v -0.0625 c -0.0625,-1.125 -1,-1.9375 -2.125,-1.875 -1.125,0.0625 -1.9375,0.875 -1.875,2 h -4 c -0.179688,-3.28125 2.34375,-5.8125 5.625,-6 z m 0.375,16 c 1.101562,0 2,0.898438 2,2 0,1.101563 -0.898438,2 -2,2 -1.101562,0 -2,-0.898437 -2,-2 0,-1.101562 0.898438,-2 2,-2 z m 0,0"
             id="path223"
             style="fill:#ffffff;fill-opacity:1" /><path
             d="m 77.625,70.003906 c 3.289062,-0.1875 6.195312,2.34375 6.375,5.625 0,2.804688 -0.757812,3.84375 -3.1875,5.6875 -0.382812,0.289063 -0.648438,0.5 -0.75,0.625 -0.101562,0.125 -0.0625,0.0625 -0.0625,0.0625 0.01563,1.054688 -0.945312,2 -2,2 -1.054688,0 -2.015625,-0.945312 -2,-2 0,-1.007812 0.453125,-1.890625 0.9375,-2.5 0.492188,-0.617187 0.984375,-1.03125 1.4375,-1.375 0.40625,-0.320312 0.921875,-0.765625 1.375,-1.3125 0.1875,-0.226562 0.257812,-0.617187 0.25,-0.875 v -0.0625 c -0.0625,-1.125 -1,-1.9375 -2.125,-1.875 -1.125,0.0625 -1.9375,0.875 -1.875,2 h -4 c -0.179688,-3.28125 2.34375,-5.8125 5.625,-6 z m 0.375,16 c 1.101562,0 2,0.898438 2,2 0,1.101563 -0.898438,2 -2,2 -1.101562,0 -2,-0.898437 -2,-2 0,-1.101562 0.898438,-2 2,-2 z m 0,0"
             id="path225"
             style="fill:#ffffff;fill-opacity:1" /></g></g><g
         id="g270"
         inkscape:label="blue b"><g
           id="g385"
           transform="matrix(-0.99999999,0,0,0.99999999,1.063111,0)"><path
             d="m -4.0482302,10.137329 v 1.467663 l -1.677329,-1.467663 z m 0,0"
             fill="#e66100"
             fill-rule="evenodd"
             id="path187-3"
             style="fill:#1b74ca;fill-opacity:1;stroke-width:0.104834"
             inkscape:label="path" /><path
             d="m -4.0482302,9.9276631 v 1.4676629 l -1.677329,-1.4676629 z m 0,0"
             fill="#ff7800"
             fill-rule="evenodd"
             id="path191-6"
             style="fill:#3584e4;fill-opacity:1;stroke-width:0.104834"
             inkscape:label="path" /></g><path
           d="m 2.1784724,7.0971699 c -8.219e-4,0.034806 -0.00246,0.069611 -0.00246,0.1048332 0,1.6261409 1.3091848,2.9353259 2.935326,2.9353259 h 4.1933223 c 1.6261423,0 2.9353263,-1.309185 2.9353263,-2.9353259 0,-0.035217 -0.0016,-0.070023 -0.0029,-0.1048332 -0.05484,1.5770009 -1.341497,2.8304922 -2.9324212,2.8304922 H 5.1113412 c -1.5909236,0 -2.8775859,-1.2534913 -2.9328688,-2.8304922 z m 0,0"
           fill="#1a5fb4"
           id="path203"
           style="stroke-width:0.104834" /><path
           d="m 5.1113412,4.2666773 h 4.1933226 c 1.6212272,0 2.9353262,1.3140987 2.9353262,2.9353258 0,1.6212272 -1.314099,2.9353259 -2.9353262,2.9353259 H 5.1113412 c -1.621227,0 -2.9353259,-1.3140987 -2.9353259,-2.9353259 0,-1.6212271 1.3140989,-2.9353258 2.9353259,-2.9353258 z m 0,0"
           fill="#3584e4"
           id="path193"
           style="stroke-width:0.104834" /><path
           d="m 5.0065082,4.6860095 h 4.4029889 c 1.3317079,0 2.4111599,1.0794531 2.4111599,2.4111604 0,1.3317079 -1.079452,2.4111612 -2.4111599,2.4111612 H 5.0065082 c -1.3317076,0 -2.4111606,-1.0794533 -2.4111606,-2.4111612 0,-1.3317073 1.079453,-2.4111604 2.4111606,-2.4111604 z m 0,0"
           fill="#241f31"
           id="path195"
           style="stroke-width:0.104834" /><g
           id="g1764"
           style="fill:#62a0ea;fill-opacity:1"
           transform="matrix(0.10483307,0,0,0.10483307,1.7566831,1.7506836)"><path
             id="path1963"
             style="fill:#62a0ea;fill-opacity:1;fill-rule:evenodd;stroke-width:0.689705;stroke-linecap:round;paint-order:stroke markers fill"
             d="m 39.230583,55.717134 a 12.769402,12.414688 0 0 0 6.385159,10.751493 12.769402,12.414688 0 0 0 12.770318,0 12.769402,12.414688 0 0 0 6.383357,-10.751493 H 60.61503 a 8.6143696,8.6143696 0 0 1 -4.307069,7.461025 8.6143696,8.6143696 0 0 1 -8.614129,0 8.6143696,8.6143696 0 0 1 -4.30706,-7.461025 z" /><circle
             style="fill:#62a0ea;fill-opacity:1;fill-rule:evenodd;stroke-width:0.75;stroke-linecap:round;paint-order:stroke markers fill"
             id="path1761"
             cx="34"
             cy="44"
             r="10" /><circle
             style="fill:#62a0ea;fill-opacity:1;fill-rule:evenodd;stroke-width:0.75;stroke-linecap:round;paint-order:stroke markers fill"
             id="path1759"
             cx="70"
             cy="44"
             r="10" /></g></g><g
         clip-path="url(#o)"
         id="g219"
         transform="matrix(0.10483307,0,0,0.10483307,1.7566831,1.7506836)" /></g></g></svg>
