<?xml version="1.0" encoding="UTF-8" standalone="no"?>
<svg
   inkscape:version="1.2.2 (b0a8486541, 2022-12-01)"
   sodipodi:docname="White background.svg"
   id="svg12"
   version="1.1"
   viewBox="0 0 16.933 16.933"
   height="64"
   width="64"
   xmlns:inkscape="http://www.inkscape.org/namespaces/inkscape"
   xmlns:sodipodi="http://sodipodi.sourceforge.net/DTD/sodipodi-0.dtd"
   xmlns="http://www.w3.org/2000/svg"
   xmlns:svg="http://www.w3.org/2000/svg">
  <defs
     id="defs16">
    <linearGradient
       id="linearGradient1229"
       inkscape:swatch="solid">
      <stop
         style="stop-color:#000000;stop-opacity:1;"
         offset="0"
         id="stop1227" />
    </linearGradient>
    <rect
       x="4.4382802"
       y="5.592233"
       width="31.334258"
       height="14.401861"
       id="rect2126" />
    <rect
       x="4.4382801"
       y="5.5922332"
       width="31.334257"
       height="14.401861"
       id="rect2126-3" />
    <linearGradient
       id="n"
       gradientUnits="userSpaceOnUse"
       x1="4"
       x2="56"
       y1="38.5"
       y2="38.5"
       gradientTransform="matrix(0.26457812,0,0,0.26457812,-9.4286687,-8.5659458)">
      <stop
         offset="0"
         stop-color="#ffffff"
         stop-opacity="0"
         id="stop79" />
      <stop
         offset="0.3"
         stop-color="#ffffff"
         stop-opacity="0.262745"
         id="stop81" />
      <stop
         offset="1"
         stop-color="#ffffff"
         stop-opacity="0"
         id="stop83" />
    </linearGradient>
    <radialGradient
       id="m"
       cx="30"
       cy="186"
       gradientTransform="matrix(0.31470562,0,0,0.26457812,-10.932496,-54.073382)"
       gradientUnits="userSpaceOnUse"
       r="14">
      <stop
         offset="0"
         stop-color="#9a9996"
         stop-opacity="0"
         id="stop72" />
      <stop
         offset="0.779321"
         stop-color="#9a9996"
         stop-opacity="0"
         id="stop74" />
      <stop
         offset="1"
         stop-color="#77767b"
         id="stop76" />
    </radialGradient>
    <linearGradient
       id="l"
       gradientUnits="userSpaceOnUse"
       x1="-2.958482"
       x2="62.958481"
       y1="42"
       y2="42"
       gradientTransform="matrix(0.26457812,0,0,0.26457812,-9.4286687,-8.5659458)">
      <stop
         offset="0"
         stop-color="#241f31"
         id="stop63" />
      <stop
         offset="0.287612"
         stop-color="#77767b"
         id="stop65" />
      <stop
         offset="0.651706"
         stop-color="#2f2840"
         id="stop67" />
      <stop
         offset="1"
         stop-color="#241f31"
         id="stop69" />
    </linearGradient>
    <radialGradient
       id="k"
       cx="26"
       cy="190.16667"
       gradientTransform="matrix(0.26457812,0,0,0.45356257,-9.4286687,-91.114319)"
       gradientUnits="userSpaceOnUse"
       r="14">
      <stop
         offset="0"
         stop-color="#5e5c64"
         id="stop58" />
      <stop
         offset="1"
         stop-color="#241f31"
         id="stop60" />
    </radialGradient>
    <linearGradient
       id="j"
       gradientUnits="userSpaceOnUse"
       x1="16"
       x2="30"
       y1="86"
       y2="86"
       gradientTransform="matrix(0.26457812,0,0,0.26457812,-9.4286687,-8.5659458)">
      <stop
         offset="0"
         stop-color="#f6f5f4"
         stop-opacity="0.501961"
         id="stop53" />
      <stop
         offset="1"
         stop-color="#ffffff"
         stop-opacity="0"
         id="stop55" />
    </linearGradient>
    <linearGradient
       id="i"
       gradientTransform="matrix(0.2143178,-0.18708504,0.2143178,0.18708504,-65.786941,-17.1527)"
       gradientUnits="userSpaceOnUse"
       x1="72.062195"
       x2="40.970352"
       y1="230.29051"
       y2="310.56241">
      <stop
         offset="0"
         stop-color="#1ebef1"
         id="stop48" />
      <stop
         offset="1"
         stop-color="#2509e8"
         id="stop50" />
    </linearGradient>
    <clipPath
       id="h">
      <rect
         height="152"
         width="192"
         id="rect45"
         x="0"
         y="0" />
    </clipPath>
    <mask
       id="g">
      <g
         filter="url(#f)"
         id="g42">
        <rect
           fill-opacity="0.3"
           height="128"
           width="128"
           id="rect40"
           x="0"
           y="0" />
      </g>
    </mask>
    <filter
       id="f"
       height="1"
       width="1"
       x="0"
       y="0">
      <feColorMatrix
         in="SourceGraphic"
         type="matrix"
         values="0 0 0 0 1 0 0 0 0 1 0 0 0 0 1 0 0 0 1 0"
         id="feColorMatrix37" />
    </filter>
    <linearGradient
       id="e"
       gradientTransform="matrix(0,-0.26457812,0.26457812,0,-60.756824,31.120772)"
       gradientUnits="userSpaceOnUse"
       x1="50"
       x2="70"
       y1="258"
       y2="258">
      <stop
         offset="0"
         stop-color="#576ce3"
         id="stop30" />
      <stop
         offset="0"
         stop-color="#bb34b1"
         id="stop32" />
      <stop
         offset="1"
         stop-color="#e31f9e"
         id="stop34" />
    </linearGradient>
    <linearGradient
       id="d"
       gradientTransform="matrix(0,-0.26457812,0.26457812,0,-51.761168,40.116428)"
       gradientUnits="userSpaceOnUse"
       x1="84"
       x2="104"
       y1="258"
       y2="258">
      <stop
         offset="0"
         stop-color="#e5a50a"
         id="stop25" />
      <stop
         offset="1"
         stop-color="#f6d32d"
         id="stop27" />
    </linearGradient>
    <linearGradient
       id="c"
       gradientTransform="matrix(0,-0.26457812,0.26457812,0,-60.756824,21.59596)"
       gradientUnits="userSpaceOnUse"
       x1="50"
       x2="70"
       y1="258"
       y2="258">
      <stop
         offset="0"
         stop-color="#c9c8c5"
         id="stop20" />
      <stop
         offset="1"
         stop-color="#f6f5f4"
         id="stop22" />
    </linearGradient>
    <linearGradient
       id="b"
       gradientTransform="matrix(0,-0.26457812,0.26457812,0,-51.761168,30.591616)"
       gradientUnits="userSpaceOnUse"
       x1="84"
       x2="104"
       y1="258"
       y2="258">
      <stop
         offset="0"
         stop-color="#46a2ed"
         id="stop15" />
      <stop
         offset="1"
         stop-color="#41c6f1"
         id="stop17" />
    </linearGradient>
    <linearGradient
       id="a"
       gradientTransform="matrix(0.26457812,0,0,0.20352328,-11.545294,1.7728107)"
       gradientUnits="userSpaceOnUse"
       x1="15.999999"
       x2="128"
       y1="73.999687"
       y2="73.999687">
      <stop
         offset="0"
         stop-color="#3d3846"
         id="stop2" />
      <stop
         offset="0.0357143"
         stop-color="#5e5c64"
         id="stop4" />
      <stop
         offset="0.0714286"
         stop-color="#3d3846"
         id="stop6" />
      <stop
         offset="0.928571"
         stop-color="#3d3846"
         id="stop8" />
      <stop
         offset="0.964286"
         stop-color="#5e5c64"
         id="stop10" />
      <stop
         offset="1"
         stop-color="#3d3846"
         id="stop12" />
    </linearGradient>
  </defs>
  <sodipodi:namedview
     id="namedview14"
     pagecolor="#505050"
     bordercolor="#eeeeee"
     borderopacity="1"
     inkscape:showpageshadow="0"
     inkscape:pageopacity="0"
     inkscape:pagecheckerboard="0"
     inkscape:deskcolor="#505050"
     showgrid="false"
     inkscape:zoom="5.6328125"
     inkscape:cx="66.21914"
     inkscape:cy="25.386963"
     inkscape:window-width="1920"
     inkscape:window-height="972"
     inkscape:window-x="0"
     inkscape:window-y="0"
     inkscape:window-maximized="1"
     inkscape:current-layer="g1014" />
  <circle
     cx="8.4664993"
     cy="8.4664993"
     fill="#32a3d7"
     style="fill:#5e5c64;fill-opacity:1;stroke-width:0.999946;paint-order:stroke fill markers;stroke:none;stroke-opacity:1"
     id="circle2"
     r="7.1436095" />
  <g
     id="g1014"
     transform="matrix(0.41379311,0,0,0.41379311,5.3612589,4.1284252)"
     inkscape:label="g1014">
    <g
       id="g1672"
       transform="translate(0.51080816,1.7445622)">
      <path
         d="m 15.812795,1.0663529 c 2.045313,0 3.704094,1.6587807 3.704094,3.7040937 0,2.045313 -1.658781,3.7040937 -3.704094,3.7040937 -2.045313,0 -3.704094,-1.6587807 -3.704094,-3.7040937 0,-2.045313 1.658781,-3.7040937 3.704094,-3.7040937 z m 0,0"
         fill="url(#b)"
         id="path90"
         style="fill:#46a2ed;fill-opacity:1;stroke-width:0.264578" />
      <path
         d="m 6.8612353,1.0663529 c 2.0453129,0 3.7040947,1.6587807 3.7040947,3.7040937 0,2.045313 -1.6587818,3.7040937 -3.7040947,3.7040937 -2.045313,0 -3.7040937,-1.6587807 -3.7040937,-3.7040937 0,-2.045313 1.6587807,-3.7040937 3.7040937,-3.7040937 z m 0,0"
         fill="url(#c)"
         id="path92"
         style="fill:#ffffff;fill-opacity:1;stroke-width:0.264578" />
      <path
         d="m 15.812795,10.017913 c 2.045313,0 3.704094,1.658781 3.704094,3.704094 0,2.045312 -1.658781,3.704093 -3.704094,3.704093 -2.045313,0 -3.704094,-1.658781 -3.704094,-3.704093 0,-2.045313 1.658781,-3.704094 3.704094,-3.704094 z m 0,0"
         fill="url(#d)"
         id="path94"
         style="fill:#e5a50a;fill-opacity:1;stroke-width:0.264578" />
      <path
         d="m 6.8612353,10.017913 c 2.0453129,0 3.7040937,1.658781 3.7040937,3.704094 0,2.045312 -1.6587808,3.704093 -3.7040937,3.704093 -2.045313,0 -3.7040937,-1.658781 -3.7040937,-3.704093 0,-2.045313 1.6587807,-3.704094 3.7040937,-3.704094 z m 0,0"
         fill="url(#e)"
         id="path96"
         style="fill:#e31f9e;fill-opacity:1;stroke-width:0.264578" />
    </g>
    <g
       id="g1691"
       transform="matrix(0.74358975,0,0,0.76719578,-1.2973888,4.0029174)">
      <g
         id="g1666"
         inkscape:label="bttm">
        <path
           d="M -5.1954188,3.6046477 V 18.315604 c 0,0.934291 0.5363909,2.240646 1.0304077,3.032314 0.6449092,1.033508 0.9911345,2.110423 1.2681147,3.422979 h 2.81114256 C 0.19122638,23.458341 0.53745172,22.381426 1.1823609,21.347918 1.6763777,20.55625 2.2127686,19.249895 2.2127686,18.315604 V 3.6046477 Z m 0,0"
           fill="#ffffff"
           fill-opacity="0.6"
           id="path102"
           style="stroke-width:0.264578" />
        <path
           d="m 0.26873957,8.379456 c -0.77616479,0.1043842 -1.02213989,0.8361081 -1.33219207,1.4913525 -0.5890999,1.2691485 -1.2030039,-0.00723 -2.1424629,0 -0.1839643,0.00103 -0.3772305,0.095083 -0.567396,0.2428745 -0.132289,0.09922 -0.2604441,0.23874 -0.3637949,0.347259 v 7.854662 c 0,0.530191 0.4702463,1.831378 0.8702138,2.472152 0.5735972,0.91879 0.906387,1.893387 1.1750992,2.924829 h 1.20093645 C -0.6221447,22.681143 -0.2893549,21.706546 0.28424226,20.787756 0.68420977,20.146982 1.1544561,18.845795 1.1544561,18.315604 L 1.1534242,8.4828068 C 0.84233805,8.3804894 0.56432439,8.364987 0.26874116,8.379456 Z m 0,0"
           fill="url(#i)"
           id="path104"
           style="fill:#1ebef1;fill-opacity:1;stroke-width:0.264578" />
        <path
           d="M -5.1954188,3.6046477 V 18.315604 c 0,0.934291 0.5363909,2.240646 1.0304077,3.032314 0.6449092,1.033508 0.9911345,2.110423 1.2681147,3.422979 h 2.81114256 C 0.19122638,23.458341 0.53745172,22.381426 1.1823609,21.347918 1.6763777,20.55625 2.2127686,19.249895 2.2127686,18.315604 V 3.6046477 Z m 0,0"
           fill="url(#j)"
           id="path106"
           style="fill:url(#j);stroke-width:0.264578" />
        <path
           d="M -3.0787938,18.735209 V 4.6629602"
           fill="none"
           stroke="#ffffff"
           stroke-linecap="round"
           stroke-opacity="0.141176"
           stroke-width="4.23325"
           id="path108" />
        <path
           d="M -3.0787938,18.206053 V 4.133804"
           fill="none"
           stroke="#ffffff"
           stroke-linecap="round"
           stroke-opacity="0.301961"
           stroke-width="1.05831"
           id="path110" />
      </g>
      <g
         id="g1659"
         inkscape:label="top">
        <path
           d="m -1.4913251,-8.5659458 c 2.04531295,0 3.7040937,1.6587807 3.7040937,3.7040937 v 5.29156238 c 0,2.04531292 -1.65878075,3.70409372 -3.7040937,3.70409372 -2.045313,0 -3.7040937,-1.6587808 -3.7040937,-3.70409372 V -4.8618521 c 0,-2.045313 1.6587807,-3.7040937 3.7040937,-3.7040937 z m 0,0"
           fill="url(#k)"
           id="path112"
           style="fill:#2d283e;fill-opacity:1;stroke-width:0.264578" />
        <path
           d="M -7.5766219,0.95886652 H 4.5939717 c 0.4382075,0 0.7937343,0.35552688 0.7937343,0.79373438 v 1.5874687 c 0,0.4382075 -0.3555268,0.7937344 -0.7937343,0.7937344 H -7.5766219 c -0.4382075,0 -0.7937343,-0.3555269 -0.7937343,-0.7937344 V 1.7526009 c 0,-0.4382075 0.3555268,-0.79373438 0.7937343,-0.79373438 z m 0,0"
           fill="url(#l)"
           id="path114"
           style="fill:#2f2840;fill-opacity:1;stroke-width:0.264578" />
      </g>
    </g>
  </g>
</svg>
