<?xml version="1.0" encoding="UTF-8" standalone="no"?>
<svg
   inkscape:version="1.2.2 (b0a8486541, 2022-12-01)"
   sodipodi:docname="converter.svg"
   id="svg12"
   version="1.1"
   viewBox="0 0 16.933 16.933"
   height="64"
   width="64"
   xmlns:inkscape="http://www.inkscape.org/namespaces/inkscape"
   xmlns:sodipodi="http://sodipodi.sourceforge.net/DTD/sodipodi-0.dtd"
   xmlns="http://www.w3.org/2000/svg"
   xmlns:svg="http://www.w3.org/2000/svg">
  <defs
     id="defs16">
    <linearGradient
       id="linearGradient1229"
       inkscape:swatch="solid">
      <stop
         style="stop-color:#000000;stop-opacity:1;"
         offset="0"
         id="stop1227" />
    </linearGradient>
    <rect
       x="4.4382802"
       y="5.592233"
       width="31.334258"
       height="14.401861"
       id="rect2126" />
    <rect
       x="4.4382801"
       y="5.5922332"
       width="31.334257"
       height="14.401861"
       id="rect2126-3" />
  </defs>
  <sodipodi:namedview
     id="namedview14"
     pagecolor="#505050"
     bordercolor="#eeeeee"
     borderopacity="1"
     inkscape:showpageshadow="0"
     inkscape:pageopacity="0"
     inkscape:pagecheckerboard="0"
     inkscape:deskcolor="#505050"
     showgrid="false"
     inkscape:zoom="8"
     inkscape:cx="0.9375"
     inkscape:cy="41.25"
     inkscape:window-width="1920"
     inkscape:window-height="972"
     inkscape:window-x="0"
     inkscape:window-y="0"
     inkscape:window-maximized="1"
     inkscape:current-layer="svg12" />
  <circle
     cx="8.4664993"
     cy="8.4664993"
     fill="#32a3d7"
     style="fill:#fffefe;fill-opacity:1;stroke-width:0.999946;paint-order:stroke fill markers;stroke:none;stroke-opacity:1"
     id="circle2"
     r="7.1436095" />
  <g
     id="g555"
     transform="matrix(0.32868884,0,0,0.32726875,1.9879841,3.9881327)">
    <path
       id="path145"
       style="fill:#ffa348;stroke-width:0.264578"
       class="uuid-e3b76f0a-9372-4124-be32-5990c84f8d9f"
       d="m 21.389498,-0.86790944 c -0.949842,0 -1.85499,0.73252245 -1.85499,1.82786234 V 4.1144687 H 7.0908347 c -1.2514479,0 -2.2722331,1.0120991 -2.2722331,2.2476894 V 19.618358 c 0,0.616471 0.2538154,1.1775 0.6665562,1.587592 0.4101086,0.407444 0.9786288,0.66139 1.6056769,0.66139 H 19.537092 v 3.155807 c 0,0.206376 0.03222,0.400162 0.09042,0.577424 0.02647,0.07674 0.05468,0.150746 0.09172,0.222185 0.01587,0.03705 0.03438,0.07153 0.05555,0.105926 0.04234,0.07937 0.0955,0.155979 0.153722,0.224769 v 0.0026 c 0.03704,0.04498 0.07656,0.08684 0.11626,0.129178 0.0344,0.03705 0.07148,0.07159 0.108509,0.103342 0.05557,0.05027 0.116109,0.09589 0.176973,0.13822 0.10847,0.07409 0.225776,0.137038 0.347488,0.187307 0.05027,0.02117 0.103321,0.03967 0.158888,0.05555 0.05292,0.01587 0.105921,0.03205 0.161472,0.04263 0.01059,0.0026 0.01788,0.0052 0.02583,0.0052 0.04497,0.01058 0.08677,0.01537 0.131761,0.02067 0.01587,0.0026 0.03193,0.0052 0.0478,0.0052 0.06085,0.0079 0.125103,0.01163 0.188599,0.01163 0.211675,0 0.425251,-0.03819 0.634262,-0.117552 h 0.0026 c 0.156093,-0.05822 0.307947,-0.13695 0.450829,-0.245437 0.04762,-0.03703 0.09453,-0.07391 0.139512,-0.11626 l 4.358451,-3.928289 v 1.377032 l 0.0052,-0.0052 v 0.0078 l 5.465502,-4.930707 3.516213,-3.172601 c 1.40372,-1.40372 1.402356,-2.677054 -0.0026,-4.08201 l -0.0026,0.0052 L 22.614101,-0.38866073 C 22.24898,-0.71938342 21.815464,-0.86790944 21.389498,-0.86790944 Z M 26.900212,22.349172 c 0.02826,0.03081 0.05442,0.06074 0.08009,0.08913 v 0.0026 h -0.0026 c -0.02586,-0.02855 -0.05164,-0.05811 -0.07751,-0.09172 z"
       sodipodi:nodetypes="sscssscscsccccccccccccccscccccccccccccscccccc" />
    <ellipse
       class="uuid-cca5360f-d207-4cbf-8cfc-2abb1584d4ea"
       cx="25.298824"
       cy="7.6016097"
       rx="2.5606883"
       ry="2.5364048"
       id="ellipse147"
       style="fill:#c64600;stroke-width:0.264578" />
    <path
       class="uuid-7cf73bb6-6fe8-4ef3-acd8-7657c6aa3b63"
       d="m 25.143493,14.432425 h -0.134938 l 0.0053,-0.0026 h -0.05027 c -0.415374,0.0026 -0.838708,0.0344 -1.280549,0.09524 -0.100541,0.01587 -0.198434,0.03175 -0.296326,0.04762 -1.394332,0.246056 -2.706645,0.788454 -3.868131,1.521324 l -0.0026,0.0026 c 0,0 -0.0026,0 -0.0026,-0.0026 -0.412741,-0.222236 -0.83606,-0.433912 -1.27262,-0.627049 -0.129641,-0.06085 -0.26193,-0.119063 -0.391571,-0.171966 -0.02912,-0.01587 -0.05822,-0.02647 -0.08996,-0.03969 -0.132289,-0.05292 -0.267227,-0.105837 -0.399516,-0.15874 -0.150811,-0.05822 -0.301607,-0.113783 -0.452418,-0.166686 -0.150812,-0.05292 -0.304271,-0.103189 -0.457731,-0.153459 -0.177263,-0.05822 -0.357174,-0.113767 -0.539734,-0.164038 -0.171982,-0.04762 -0.343948,-0.09261 -0.515931,-0.132289 -0.15874,-0.03969 -0.320129,-0.07674 -0.481534,-0.108486 -0.06085,-0.01323 -0.121695,-0.02645 -0.182559,-0.03703 -0.10847,-0.02117 -0.216956,-0.04234 -0.328074,-0.05822 -0.0635,-0.01587 -0.129641,-0.02645 -0.195786,-0.0344 -0.0582,-0.01058 -0.116415,-0.01852 -0.177263,-0.02645 -0.02912,-0.0053 -0.06086,-0.01059 -0.09261,-0.01323 -0.124343,-0.01852 -0.248704,-0.0344 -0.373048,-0.04762 -0.148163,-0.01852 -0.298974,-0.03176 -0.447137,-0.04234 -0.164037,-0.01587 -0.330723,-0.02645 -0.497408,-0.03175 -0.07937,-0.0053 -0.158741,-0.0079 -0.238127,-0.0079 -0.113767,-0.0053 -0.224885,-0.0079 -0.338652,-0.0079 h -0.113766 v 0.0026 c -0.09525,0 -0.187857,0.0026 -0.283101,0.0026 -0.09524,0.0026 -0.187856,0.0079 -0.2831,0.01058 -0.571482,0.02645 -1.150909,0.08467 -1.740929,0.182559 -0.5238596,0.08467 -1.1853049,0.224885 -1.9102463,0.412742 -0.1031892,0.0291 -0.2090271,0.06085 -0.317497,0.08732 -0.2090108,0.06085 -0.4206863,0.121696 -0.6349938,0.18784 -0.1058217,0.0344 -0.2143077,0.06879 -0.325426,0.10319 -0.5423819,0.177262 -1.0874122,0.383641 -1.6112717,0.611174 v 3.952798 c 0,0.616472 0.2539846,1.177376 0.6667259,1.587469 0.4100928,0.407444 0.9789422,0.661445 1.6059911,0.661445 H 19.539714 v 4.537521 c 0,1.097989 0.904869,1.830876 1.854695,1.830876 0.425983,0 0.862528,-0.148164 1.227647,-0.478887 l 4.35761,-3.928977 0.0026,-0.0026 6.151635,-5.547585 -0.688078,-0.762681 0.0053,-0.0026 c -1.949932,-1.735632 -4.487244,-3.04 -7.30764,-3.079677 z m 1.838805,8.014066 -0.0026,0.0026 v -0.0053 h 0.0026 z"
       id="path151"
       style="fill:#e66100;stroke-width:0.264578"
       sodipodi:nodetypes="cccccccccccccccccccccccccccsccccccccccscscssccccccccccccc" />
    <polygon
       class="uuid-4da18ef4-00e1-475d-8e9f-8d583a6f5526"
       points="87.789978,97.119995 87.780029,97.130005 87.780029,97.109985 87.789978,97.109985 "
       id="polygon153"
       style="fill:#4fcd7c"
       transform="matrix(0.26457812,0,0,0.26457812,3.7549906,-3.2493351)" />
    <path
       class="uuid-7cf73bb6-6fe8-4ef3-acd8-7657c6aa3b63"
       d="m 19.539918,4.1143846 c 0,1.5829296 -0.843864,2.4567274 -2.230022,3.3916124 -0.0291,0.018592 -0.0582,0.03984 -0.0873,0.058431 -0.119041,0.077022 -0.240726,0.1487323 -0.365058,0.2151303 -0.756567,0.4090118 -1.592495,0.6321094 -2.412549,0.6613252 -0.06613,0 -0.132267,0.00266 -0.198401,0.00266 h -0.03439 c -0.608428,-0.00531 -1.206276,-0.1142046 -1.756506,-0.3293346 -0.03968,-0.015936 -0.07672,-0.031871 -0.113749,-0.047807 -0.0291,-0.013279 -0.06084,-0.026558 -0.08994,-0.03984 C 12.21497,8.0079662 12.17529,7.9920307 12.138256,7.9734396 11.588025,7.7051918 11.1198,7.3307063 10.73358,6.8871678 9.9690771,7.5962988 9.0220457,8.074365 8.022107,8.2363765 c -0.034389,0.00531 -0.071424,0.010623 -0.1058135,0.015936 -0.1984005,0.026558 -0.396801,0.03984 -0.592556,0.042495 h -0.044971 c -0.1878193,0 -0.3756385,-0.010623 -0.560812,-0.031871 C 6.5856878,8.2469993 6.453421,8.2284072 6.3237994,8.2018488 6.1306895,8.1646658 5.9375797,8.1168589 5.7497606,8.0584284 5.651883,8.0292127 5.5566508,7.9973424 5.4614185,7.9628147 5.2445006,7.8831377 5.030228,7.7928359 4.8212462,7.6892549 V 6.3639511 c 0,-1.2376594 1.0211011,-2.249566 2.272347,-2.249566 0,0 12.4463248,0 12.4463248,-5e-7 z"
       id="path155"
       style="fill:#e66100;stroke-width:0.264578" />
    <path
       id="path157"
       style="fill:#c64600;stroke-width:0.264578"
       class="uuid-cca5360f-d207-4cbf-8cfc-2abb1584d4ea"
       d="m 11.927242,14.065015 v 0.0026 c -0.09525,0 -0.187659,0.0026 -0.282899,0.0026 -0.09524,0.0027 -0.18766,0.0077 -0.282898,0.01033 -0.571482,0.02645 -1.151295,0.08425 -1.7413138,0.18214 -0.5238586,0.08467 -1.1843044,0.225447 -1.9092442,0.415952 -0.103189,0.0291 -0.2093071,0.05749 -0.3177768,0.08397 -0.2090104,0.06085 -0.4212465,0.122451 -0.6355536,0.188599 -0.1058215,0.0344 -0.2144093,0.06894 -0.3255274,0.103342 -0.5423807,0.177263 -1.0869857,0.383479 -1.610844,0.61101 v 3.951542 1.380908 0.0013 c 0,8.68e-4 -1e-6,0.0017 0,0.0026 1.033e-4,0.06034 0.0042,0.120401 0.00904,0.179557 0.00262,0.0321 0.00635,0.06387 0.010334,0.09559 0.00737,0.05864 0.015263,0.117226 0.027127,0.17439 0.011863,0.05716 0.027751,0.112431 0.04392,0.167931 0.010032,0.03444 0.020659,0.0683 0.032294,0.10205 0.017618,0.05111 0.035676,0.101749 0.056838,0.151138 0.026303,0.06139 0.055035,0.121085 0.086549,0.179556 0.00302,0.0056 0.00598,0.01123 0.00904,0.01679 0.00562,0.01023 0.012306,0.01957 0.018085,0.02971 0.02244,0.03935 0.046331,0.07842 0.071048,0.11626 0.015987,0.02447 0.03218,0.04853 0.049087,0.07234 0.034237,0.04823 0.069361,0.09544 0.1072174,0.140803 0.039614,0.04747 0.081961,0.09284 0.1253022,0.136928 0.00751,0.0076 0.014343,0.01572 0.02196,0.02325 0.00693,0.0069 0.013651,0.0139 0.020668,0.02067 0.038259,0.0369 0.078055,0.07174 0.1188433,0.105925 0.00704,0.0059 0.013556,0.01227 0.020669,0.01808 2.561e-4,2.1e-4 0.00104,-2.09e-4 0.00129,0 0.00683,0.0056 0.013773,0.01129 0.020668,0.01679 0.049749,0.03969 0.1006747,0.07817 0.1537213,0.113676 0.060463,0.04047 0.1229221,0.07771 0.1873075,0.112385 0.058651,0.03159 0.1192494,0.06136 0.1808485,0.08784 0.0057,0.0024 0.011072,0.0053 0.016793,0.0077 3.624e-4,1.53e-4 9.294e-4,-1.52e-4 0.00129,0 0.00513,0.0022 0.010356,0.0043 0.015501,0.0065 0.058016,0.02384 0.1179684,0.0442 0.178265,0.0633 0.00482,0.0015 0.00938,0.0037 0.01421,0.0052 3.908e-4,1.21e-4 9.008e-4,-1.2e-4 0.00129,0 0.00427,0.0013 0.00864,0.0026 0.012918,0.0039 0.053147,0.01606 0.1067724,0.03041 0.1614719,0.04263 0.032809,0.0073 0.066146,0.01348 0.099467,0.01938 0.055404,0.0098 0.1112392,0.01882 0.1679309,0.02454 0.074957,0.0076 0.1517576,0.0115 0.2286442,0.01163 0.00129,2e-6 0.00259,0 0.00388,0 H 19.539675 v 1.777483 h -0.0013 -0.0013 v 1.380908 c 0,0.01711 0.0021,0.03344 0.0026,0.05038 8.72e-4,0.0337 0.0026,0.06649 0.0052,0.09947 0.003,0.03927 0.0075,0.07805 0.01292,0.116259 0.003,0.02121 0.0054,0.04243 0.009,0.0633 0.0088,0.05012 0.0196,0.09914 0.03229,0.147263 0.0017,0.0064 0.0034,0.01297 0.0052,0.01938 0.01125,0.0408 0.02356,0.08086 0.03746,0.120136 0.01117,0.0316 0.02336,0.06242 0.03617,0.09301 0.0097,0.02322 0.02036,0.04585 0.031,0.06846 0.01657,0.03528 0.03427,0.06956 0.05296,0.103342 0.01118,0.02016 0.02297,0.03981 0.03488,0.05942 0.0185,0.03054 0.03666,0.06124 0.05684,0.09042 0.01462,0.0211 0.02974,0.04163 0.04521,0.062 0.01951,0.02576 0.03992,0.05035 0.06071,0.07492 0.01524,0.01797 0.03061,0.03565 0.0465,0.05296 0.02631,0.02873 0.05336,0.05706 0.08138,0.08396 0.007,0.0067 0.01356,0.01407 0.02067,0.02067 h 0.0013 c 0.0065,0.006 0.0128,0.01217 0.01938,0.01808 0.03069,0.02769 0.06189,0.05456 0.0943,0.08009 0.0065,0.0051 0.01281,0.01048 0.01938,0.0155 h 0.0013 c 0.0096,0.0073 0.02,0.01354 0.02971,0.02067 0.02788,0.02049 0.05631,0.04052 0.08526,0.05942 0.0098,0.0064 0.01852,0.01447 0.02842,0.02067 h 0.0013 c 0.0061,0.0038 0.01197,0.0079 0.01808,0.01163 0.04347,0.02654 0.08888,0.05067 0.134344,0.07363 l 0.0013,0.0013 c 0.04736,0.02387 0.09547,0.04474 0.144679,0.06459 0.0048,0.0019 0.0094,0.0046 0.01421,0.0065 h 0.0013 c 0.0043,0.0017 0.0086,0.0035 0.01292,0.0052 0.04623,0.01779 0.09327,0.03364 0.140804,0.0478 0.0039,0.0012 0.0077,0.0027 0.01163,0.0039 h 0.0013 c 0.003,8.68e-4 0.006,0.0017 0.009,0.0026 0.05009,0.01427 0.101237,0.02605 0.152429,0.03617 0.0031,6.05e-4 0.006,0.002 0.009,0.0026 h 0.0013 c 0.0026,4.93e-4 0.0052,8.09e-4 0.0078,0.0013 0.11314,0.02122 0.227562,0.0323 0.343612,0.0323 0.106474,0 0.213846,-0.0093 0.320361,-0.02842 0.05326,-0.0095 0.106101,-0.02167 0.158888,-0.03617 0.105209,-0.02891 0.209881,-0.06821 0.311318,-0.117552 h 0.0013 c 0.05089,-0.0248 0.100391,-0.05254 0.149846,-0.08267 0.09891,-0.06026 0.19551,-0.13081 0.286774,-0.213143 l 5.044383,-4.552217 -0.685933,-0.759564 h 0.0026 v -0.0026 c -0.0529,-0.06085 -0.10461,-0.123751 -0.16018,-0.189891 -0.05292,-0.0635 -0.108486,-0.130256 -0.164056,-0.193766 -0.113767,-0.129641 -0.231072,-0.261637 -0.347487,-0.396575 -0.08996,-0.100524 -0.179955,-0.204318 -0.272565,-0.304859 -0.0926,-0.100541 -0.187592,-0.202962 -0.285482,-0.306151 -0.09524,-0.103174 -0.192708,-0.206773 -0.293233,-0.312609 -0.0026,0 -0.0026,-0.0026 -0.0026,-0.0026 C 25.355466,20.633863 25.254338,20.531492 25.151148,20.428302 24.942137,20.22194 24.730097,20.006942 24.507844,19.797915 24.285592,19.588904 24.058616,19.377847 23.825786,19.16882 23.513588,18.893666 23.187805,18.6159 22.851788,18.343376 22.682454,18.208439 22.511,18.072696 22.336369,17.937758 21.987126,17.673182 21.629443,17.414093 21.259029,17.16011 h -0.0026 c -0.140234,-0.09524 -0.279593,-0.185132 -0.419827,-0.277732 -0.132289,-0.08467 -0.268097,-0.16981 -0.403034,-0.25448 -0.01852,-0.01058 -0.03703,-0.02036 -0.05555,-0.03359 -0.283101,-0.169334 -0.567937,-0.33601 -0.861615,-0.49475 0,0 -0.0026,1.6e-5 -0.0026,-0.0026 -0.412741,-0.224883 -0.837131,-0.437249 -1.273691,-0.630386 -0.129641,-0.0582 -0.261767,-0.116303 -0.391408,-0.169223 -0.02911,-0.01588 -0.05738,-0.02676 -0.08913,-0.04263 -0.132289,-0.05292 -0.268162,-0.104697 -0.400451,-0.157597 -0.150811,-0.05822 -0.30131,-0.115031 -0.452121,-0.167931 -0.150812,-0.05292 -0.303829,-0.102159 -0.457289,-0.152429 -0.177263,-0.05557 -0.357402,-0.111202 -0.539962,-0.161472 -0.171982,-0.05027 -0.343435,-0.09596 -0.515418,-0.135637 -0.15874,-0.0397 -0.320428,-0.07676 -0.481833,-0.108509 -0.06085,-0.01322 -0.122572,-0.02559 -0.183432,-0.03617 -0.10847,-0.02117 -0.216993,-0.04226 -0.328111,-0.05813 -0.0635,-0.01588 -0.128908,-0.02698 -0.195058,-0.03488 -0.0582,-0.01058 -0.116123,-0.01923 -0.176973,-0.02713 -0.02911,-0.0053 -0.06126,-0.01032 -0.09301,-0.01292 -0.124343,-0.01852 -0.248979,-0.03457 -0.373323,-0.0478 -0.148163,-0.01852 -0.298791,-0.03076 -0.446954,-0.04134 -0.164037,-0.01588 -0.330649,-0.02699 -0.497334,-0.03229 -0.07937,-0.0053 -0.158297,-0.0078 -0.237687,-0.0078 -0.113765,-0.0053 -0.224678,-0.0078 -0.338445,-0.0078 z" />
  </g>
</svg>
