<?xml version="1.0" encoding="UTF-8" standalone="no"?>
<svg
   width="64"
   height="64"
   viewBox="0 0 16.933 16.933"
   version="1.1"
   id="svg12"
   sodipodi:docname="org.gnome.wolf.Apostrophe.svg"
   inkscape:version="1.2.2 (b0a8486541, 2022-12-01)"
   xmlns:inkscape="http://www.inkscape.org/namespaces/inkscape"
   xmlns:sodipodi="http://sodipodi.sourceforge.net/DTD/sodipodi-0.dtd"
   xmlns:xlink="http://www.w3.org/1999/xlink"
   xmlns="http://www.w3.org/2000/svg"
   xmlns:svg="http://www.w3.org/2000/svg">
  <defs
     id="defs16">
    <linearGradient
       y2="254"
       x2="116"
       y1="254"
       x1="11.999994"
       gradientTransform="matrix(1.0769231,0,0,1.0666667,-4.92308,-14.933327)"
       gradientUnits="userSpaceOnUse"
       id="linearGradient1820"
       xlink:href="#linearGradient1222" />
    <linearGradient
       id="linearGradient1222">
      <stop
         id="stop1210"
         offset="0"
         style="stop-color:#9a9996;stop-opacity:1" />
      <stop
         style="stop-color:#c0bfbc;stop-opacity:1"
         offset="0.03846159"
         id="stop1212" />
      <stop
         id="stop1214"
         offset="0.07692312"
         style="stop-color:#77767b;stop-opacity:1" />
      <stop
         style="stop-color:#77767b;stop-opacity:1"
         offset="0.92307693"
         id="stop1216" />
      <stop
         id="stop1218"
         offset="0.96153843"
         style="stop-color:#c0bfbc;stop-opacity:1" />
      <stop
         id="stop1220"
         offset="1"
         style="stop-color:#9a9996;stop-opacity:1" />
    </linearGradient>
    <linearGradient
       y2="209"
       x2="31"
       y1="209"
       x1="19"
       gradientTransform="rotate(90,20.159974,212.84003)"
       gradientUnits="userSpaceOnUse"
       id="linearGradient1822"
       xlink:href="#linearGradient1339" />
    <linearGradient
       id="linearGradient1339">
      <stop
         id="stop1335"
         offset="0"
         style="stop-color:#5e5c64;stop-opacity:1;" />
      <stop
         id="stop1337"
         offset="1"
         style="stop-color:#77767b;stop-opacity:1" />
    </linearGradient>
    <linearGradient
       y2="209"
       x2="31"
       y1="209"
       x1="19"
       gradientTransform="rotate(90,36.159974,272.84003)"
       gradientUnits="userSpaceOnUse"
       id="linearGradient1824"
       xlink:href="#linearGradient1339" />
    <linearGradient
       y2="209"
       x2="31"
       y1="209"
       x1="17"
       gradientTransform="rotate(90,10.159974,246.84003)"
       gradientUnits="userSpaceOnUse"
       id="linearGradient1826"
       xlink:href="#linearGradient1234" />
    <linearGradient
       id="linearGradient1234">
      <stop
         style="stop-color:#adadad;stop-opacity:1;"
         offset="0"
         id="stop1230" />
      <stop
         style="stop-color:#ceccc8;stop-opacity:1"
         offset="1"
         id="stop1232" />
    </linearGradient>
    <linearGradient
       y2="209"
       x2="31"
       y1="209"
       x1="19"
       gradientTransform="rotate(90,30.159974,222.84003)"
       gradientUnits="userSpaceOnUse"
       id="linearGradient1828"
       xlink:href="#linearGradient1339" />
    <linearGradient
       y2="209"
       x2="31"
       y1="209"
       x1="19"
       gradientTransform="rotate(90,40.159974,232.84003)"
       gradientUnits="userSpaceOnUse"
       id="linearGradient1830"
       xlink:href="#linearGradient1339" />
    <linearGradient
       y2="209"
       x2="31"
       y1="209"
       x1="19"
       gradientTransform="rotate(90,50.159974,242.84003)"
       gradientUnits="userSpaceOnUse"
       id="linearGradient1832"
       xlink:href="#linearGradient1339" />
    <linearGradient
       y2="209"
       x2="31"
       y1="209"
       x1="19"
       gradientTransform="rotate(90,60.159974,252.84003)"
       gradientUnits="userSpaceOnUse"
       id="linearGradient1834"
       xlink:href="#linearGradient1339" />
    <linearGradient
       y2="209"
       x2="31"
       y1="209"
       x1="19"
       gradientTransform="rotate(90,14.159974,228.84003)"
       gradientUnits="userSpaceOnUse"
       id="linearGradient1836"
       xlink:href="#linearGradient1339" />
    <linearGradient
       y2="209"
       x2="31"
       y1="209"
       x1="19"
       gradientTransform="rotate(90,24.159974,238.84003)"
       gradientUnits="userSpaceOnUse"
       id="linearGradient1838"
       xlink:href="#linearGradient1339" />
    <linearGradient
       y2="209"
       x2="31"
       y1="209"
       x1="19"
       gradientTransform="rotate(90,34.159974,248.84003)"
       gradientUnits="userSpaceOnUse"
       id="linearGradient1840"
       xlink:href="#linearGradient1339" />
    <linearGradient
       y2="209"
       x2="31"
       y1="209"
       x1="19"
       gradientTransform="rotate(90,49.159974,263.84003)"
       gradientUnits="userSpaceOnUse"
       id="linearGradient1842"
       xlink:href="#linearGradient1228" />
    <linearGradient
       id="linearGradient1228">
      <stop
         style="stop-color:#e66100;stop-opacity:1"
         offset="0"
         id="stop1224" />
      <stop
         style="stop-color:#ff7800;stop-opacity:1"
         offset="1"
         id="stop1226" />
    </linearGradient>
    <linearGradient
       y2="209"
       x2="31"
       y1="209"
       x1="19"
       gradientTransform="rotate(90,0.15997391,236.84003)"
       gradientUnits="userSpaceOnUse"
       id="linearGradient1844"
       xlink:href="#linearGradient1339" />
  </defs>
  <sodipodi:namedview
     id="namedview14"
     pagecolor="#505050"
     bordercolor="#eeeeee"
     borderopacity="1"
     inkscape:showpageshadow="0"
     inkscape:pageopacity="0"
     inkscape:pagecheckerboard="0"
     inkscape:deskcolor="#505050"
     showgrid="false"
     inkscape:zoom="11.313709"
     inkscape:cx="24.35099"
     inkscape:cy="38.360543"
     inkscape:current-layer="svg12" />
  <circle
     cx="8.4664993"
     cy="8.4664993"
     fill="#32a3d7"
     style="stroke-width:0.999946;paint-order:stroke fill markers;fill:#bf4040;fill-opacity:1"
     id="circle2"
     r="7.1436095" />
  <path
     d="M 5.895,2.38 A 6.614,6.614 0 0 0 5.339,2.645 h 6.264 A 6.614,6.614 0 0 0 11.055,2.38 Z M 3.969,3.624 A 6.614,6.614 0 0 0 3.627,3.97 H 3.704 V 5.027 H 2.827 A 6.614,6.614 0 0 0 2.664,5.292 h 1.04 V 6.35 H 2.206 A 6.614,6.614 0 0 0 2.121,6.615 H 3.704 V 7.673 H 1.905 A 6.614,6.614 0 0 0 1.878,7.938 H 3.704 V 8.996 H 1.876 A 6.614,6.614 0 0 0 1.908,9.26 h 1.796 v 1.06 H 2.121 a 6.614,6.614 0 0 0 0.088,0.263 h 1.495 v 1.06 H 2.672 a 6.614,6.614 0 0 0 0.151,0.263 h 0.881 v 1.059 H 3.625 a 6.614,6.614 0 0 0 0.344,0.34 v -0.076 h 9.086 a 6.614,6.614 0 0 0 0.25,-0.264 H 3.968 v -1.059 h 10.137 a 6.614,6.614 0 0 0 0.163,-0.264 h -10.3 v -1.059 h 10.757 a 6.614,6.614 0 0 0 0.086,-0.264 H 3.969 V 9.26 H 15.028 A 6.614,6.614 0 0 0 15.055,8.996 H 3.969 V 7.938 H 15.057 A 6.614,6.614 0 0 0 15.025,7.673 H 3.97 V 6.615 H 14.814 A 6.614,6.614 0 0 0 14.725,6.35 H 3.97 V 5.29 H 14.262 A 6.614,6.614 0 0 0 14.11,5.025 H 3.969 V 3.968 h 9.34 A 6.614,6.614 0 0 0 13.045,3.703 H 3.969 Z M 5.33,14.288 a 6.614,6.614 0 0 0 0.545,0.264 h 5.166 a 6.614,6.614 0 0 0 0.553,-0.264 z"
     fill="#ffffff"
     fill-opacity="0.3"
     id="path4"
     transform="matrix(0.99994532,0,0,0.99994532,9.6337129e-4,9.6337129e-4)" />
  <g
     id="g1576"
     inkscape:label="g1576"
     transform="matrix(1.1185823,0,0,1.149715,-0.95269297,-0.97736308)">
    <path
       id="rect1768"
       style="display:inline;opacity:1;vector-effect:none;fill:#fefefe;fill-opacity:1;stroke:none;stroke-width:3.6343;stroke-linecap:butt;stroke-linejoin:round;stroke-miterlimit:4;stroke-dasharray:none;stroke-dashoffset:0;stroke-opacity:1;enable-background:new"
       d="m 16.002015,203.35807 c -4.431996,0 -7.9999079,3.25036 -7.9999079,7.29413 v 19.12185 35.62344 4.00054 c 0,3.65866 3.5679119,6.604 7.9999079,6.604 h 95.998895 c 4.43199,0 7.99991,-2.94534 7.99991,-6.604 v -4.00054 -35.62344 -19.12185 c 0,-4.04377 -3.56792,-7.29413 -7.99991,-7.29413 z"
       transform="matrix(0.07602833,0,0,0.07602833,3.791258,-10.008384)" />
    <path
       id="path1800"
       d="m 87,259.68005 v 4 c 0,2.216 -1.784,4 -4,4 H 45 c -2.216,0 -4,-1.784 -4,-4 v -4 c 0,-2.216 1.784,-4 4,-4 h 38 c 2.216,0 4,1.784 4,4 z"
       style="display:inline;opacity:1;vector-effect:none;fill:#adadad;fill-opacity:1;stroke:none;stroke-width:4;stroke-linecap:butt;stroke-linejoin:round;stroke-miterlimit:4;stroke-dasharray:none;stroke-dashoffset:0;stroke-opacity:1;enable-background:new"
       transform="matrix(0.07602833,0,0,0.07602833,3.791258,-10.008384)" />
    <g
       id="g1540"
       style="display:inline;enable-background:new"
       transform="matrix(0.07602833,0,0,0.07602833,3.791258,-10.008384)">
      <path
         style="opacity:1;vector-effect:none;fill:#e66100;fill-opacity:1;stroke:none;stroke-width:4;stroke-linecap:butt;stroke-linejoin:round;stroke-miterlimit:4;stroke-dasharray:none;stroke-dashoffset:0;stroke-opacity:1"
         d="m 102,237.68005 v 4 c 0,2.216 -1.784,4 -4,4 h -7 c -2.216,0 -4,-1.784 -4,-4 v -4 c 0,-2.216 1.784,-4 4,-4 h 7 c 2.216,0 4,1.784 4,4 z"
         id="path1816" />
    </g>
    <g
       id="g1537"
       style="display:inline;fill:#5e5c64;fill-opacity:1;enable-background:new"
       transform="matrix(0.07602833,0,0,0.07602833,3.791258,-10.008384)">
      <path
         style="opacity:1;vector-effect:none;fill:#5e5c64;fill-opacity:1;stroke:none;stroke-width:4;stroke-linecap:butt;stroke-linejoin:round;stroke-miterlimit:4;stroke-dasharray:none;stroke-dashoffset:0;stroke-opacity:1"
         d="m 31,215.68005 v 4 c 0,2.216 -1.784,4 -4,4 h -6 c -2.216,0 -4,-1.784 -4,-4 v -4 c 0,-2.216 1.784,-4 4,-4 h 6 c 2.216,0 4,1.784 4,4 z"
         id="path1774" />
      <path
         style="opacity:1;vector-effect:none;fill:#5e5c64;fill-opacity:1;stroke:none;stroke-width:4;stroke-linecap:butt;stroke-linejoin:round;stroke-miterlimit:4;stroke-dasharray:none;stroke-dashoffset:0;stroke-opacity:1"
         d="m 107,259.68005 v 4 c 0,2.216 -1.784,4 -4,4 h -6 c -2.216,0 -4,-1.784 -4,-4 v -4 c 0,-2.216 1.784,-4 4,-4 h 6 c 2.216,0 4,1.784 4,4 z"
         id="path1796" />
      <path
         id="path1802"
         d="m 51,215.68005 v 4 c 0,2.216 -1.784,4 -4,4 h -6 c -2.216,0 -4,-1.784 -4,-4 v -4 c 0,-2.216 1.784,-4 4,-4 h 6 c 2.216,0 4,1.784 4,4 z"
         style="opacity:1;vector-effect:none;fill:#5e5c64;fill-opacity:1;stroke:none;stroke-width:4;stroke-linecap:butt;stroke-linejoin:round;stroke-miterlimit:4;stroke-dasharray:none;stroke-dashoffset:0;stroke-opacity:1" />
      <path
         id="path1804"
         d="m 71,215.68005 v 4 c 0,2.216 -1.784,4 -4,4 h -6 c -2.216,0 -4,-1.784 -4,-4 v -4 c 0,-2.216 1.784,-4 4,-4 h 6 c 2.216,0 4,1.784 4,4 z"
         style="opacity:1;vector-effect:none;fill:#5e5c64;fill-opacity:1;stroke:none;stroke-width:4;stroke-linecap:butt;stroke-linejoin:round;stroke-miterlimit:4;stroke-dasharray:none;stroke-dashoffset:0;stroke-opacity:1" />
      <path
         style="opacity:1;vector-effect:none;fill:#5e5c64;fill-opacity:1;stroke:none;stroke-width:4;stroke-linecap:butt;stroke-linejoin:round;stroke-miterlimit:4;stroke-dasharray:none;stroke-dashoffset:0;stroke-opacity:1"
         d="m 91,215.68005 v 4 c 0,2.216 -1.784,4 -4,4 h -6 c -2.216,0 -4,-1.784 -4,-4 v -4 c 0,-2.216 1.784,-4 4,-4 h 6 c 2.216,0 4,1.784 4,4 z"
         id="path1806" />
      <path
         id="path1808"
         d="m 111,215.68005 v 4 c 0,2.216 -1.784,4 -4,4 h -6 c -2.216,0 -4,-1.784 -4,-4 v -4 c 0,-2.216 1.784,-4 4,-4 h 6 c 2.216,0 4,1.784 4,4 z"
         style="opacity:1;vector-effect:none;fill:#5e5c64;fill-opacity:1;stroke:none;stroke-width:4;stroke-linecap:butt;stroke-linejoin:round;stroke-miterlimit:4;stroke-dasharray:none;stroke-dashoffset:0;stroke-opacity:1" />
      <path
         style="opacity:1;vector-effect:none;fill:#5e5c64;fill-opacity:1;stroke:none;stroke-width:4;stroke-linecap:butt;stroke-linejoin:round;stroke-miterlimit:4;stroke-dasharray:none;stroke-dashoffset:0;stroke-opacity:1"
         d="m 41,237.68005 v 4 c 0,2.216 -1.784,4 -4,4 h -6 c -2.216,0 -4,-1.784 -4,-4 v -4 c 0,-2.216 1.784,-4 4,-4 h 6 c 2.216,0 4,1.784 4,4 z"
         id="path1810" />
      <path
         style="opacity:1;vector-effect:none;fill:#5e5c64;fill-opacity:1;stroke:none;stroke-width:4;stroke-linecap:butt;stroke-linejoin:round;stroke-miterlimit:4;stroke-dasharray:none;stroke-dashoffset:0;stroke-opacity:1"
         d="m 61,237.68005 v 4 c 0,2.216 -1.784,4 -4,4 h -6 c -2.216,0 -4,-1.784 -4,-4 v -4 c 0,-2.216 1.784,-4 4,-4 h 6 c 2.216,0 4,1.784 4,4 z"
         id="path1812" />
      <path
         id="path1814"
         d="m 81,237.68005 v 4 c 0,2.216 -1.784,4 -4,4 h -6 c -2.216,0 -4,-1.784 -4,-4 v -4 c 0,-2.216 1.784,-4 4,-4 h 6 c 2.216,0 4,1.784 4,4 z"
         style="opacity:1;vector-effect:none;fill:#5e5c64;fill-opacity:1;stroke:none;stroke-width:4;stroke-linecap:butt;stroke-linejoin:round;stroke-miterlimit:4;stroke-dasharray:none;stroke-dashoffset:0;stroke-opacity:1" />
      <path
         id="path1818"
         d="m 35,259.68005 v 4 c 0,2.216 -1.784,4 -4,4 h -6 c -2.216,0 -4,-1.784 -4,-4 v -4 c 0,-2.216 1.784,-4 4,-4 h 6 c 2.216,0 4,1.784 4,4 z"
         style="opacity:1;vector-effect:none;fill:#5e5c64;fill-opacity:1;stroke:none;stroke-width:4;stroke-linecap:butt;stroke-linejoin:round;stroke-miterlimit:4;stroke-dasharray:none;stroke-dashoffset:0;stroke-opacity:1" />
    </g>
  </g>
</svg>
