<?xml version="1.0" encoding="UTF-8" standalone="no"?>
<svg
   width="64"
   height="64"
   viewBox="0 0 16.933 16.933"
   version="1.1"
   id="svg5"
   sodipodi:docname="chromium.svg"
   inkscape:version="1.3.2 (091e20ef0f, 2023-11-25)"
   xmlns:inkscape="http://www.inkscape.org/namespaces/inkscape"
   xmlns:sodipodi="http://sodipodi.sourceforge.net/DTD/sodipodi-0.dtd"
   xmlns:xlink="http://www.w3.org/1999/xlink"
   xmlns="http://www.w3.org/2000/svg"
   xmlns:svg="http://www.w3.org/2000/svg">
  <defs
     id="defs5">
    <linearGradient
       id="linearGradient8"
       inkscape:collect="always">
      <stop
         style="stop-color:#3966fa;stop-opacity:1;"
         offset="0"
         id="stop8" />
      <stop
         style="stop-color:#98cbff;stop-opacity:1;"
         offset="1"
         id="stop9" />
    </linearGradient>
    <linearGradient
       id="linearGradient6"
       inkscape:collect="always">
      <stop
         style="stop-color:#0d0d0d;stop-opacity:1;"
         offset="0"
         id="stop6" />
      <stop
         style="stop-color:#333333;stop-opacity:1;"
         offset="1"
         id="stop7" />
    </linearGradient>
    <linearGradient
       inkscape:collect="always"
       xlink:href="#linearGradient6"
       id="linearGradient7"
       x1="8.4659996"
       y1="11.906"
       x2="8.4659996"
       y2="5.027"
       gradientUnits="userSpaceOnUse" />
    <linearGradient
       inkscape:collect="always"
       xlink:href="#linearGradient8"
       id="linearGradient9"
       x1="5.8209932"
       y1="8.466"
       x2="11.112007"
       y2="8.466"
       gradientUnits="userSpaceOnUse" />
  </defs>
  <sodipodi:namedview
     id="namedview5"
     pagecolor="#505050"
     bordercolor="#eeeeee"
     borderopacity="1"
     inkscape:showpageshadow="0"
     inkscape:pageopacity="0"
     inkscape:pagecheckerboard="0"
     inkscape:deskcolor="#d1d1d1"
     inkscape:zoom="12.387519"
     inkscape:cx="36.730518"
     inkscape:cy="30.393494"
     inkscape:current-layer="svg5" />
  <g
     id="g6">
    <g
       fill-rule="evenodd"
       stroke-width=".927"
       id="g3">
      <path
         d="M2.754 4.182A7.183 7.182 0 0 0 1.323 8.49a7.109 7.108 0 0 0 7.144 7.12l2.5-5.12-4.643-.949z"
         fill="#649af5"
         id="path1"
         style="fill:#cce6ff;fill-opacity:1" />
      <path
         d="m8.823 5.253 2.144 5.214-2.5 5.143a7.128 7.127 0 0 0 7.143-7.144 7.129 7.128 0 0 0-.765-3.213z"
         fill="#a2c2f8"
         id="path2"
         style="fill:#99c4ff;fill-opacity:1" />
      <path
         d="M8.465 1.324a7.115 7.114 0 0 0-5.713 2.86l3.57 5.355 4.644.928-2.144-5.215h6.022a7.121 7.12 0 0 0-6.379-3.93z"
         fill="#3b6bd4"
         id="path3"
         style="fill:#577ff6;fill-opacity:1" />
    </g>
    <g
       id="g5">
      <path
         d="M8.466 5.027a3.433 3.433 0 0 1 3.44 3.439 3.433 3.433 0 0 1-3.44 3.44 3.433 3.433 0 0 1-3.439-3.44 3.433 3.433 0 0 1 3.439-3.439z"
         fill="#fff"
         id="path4"
         style="fill:url(#linearGradient7)" />
      <path
         d="M8.465 5.82a2.64 2.64 0 0 1 2.647 2.646 2.64 2.64 0 0 1-2.647 2.646 2.64 2.64 0 0 1-2.644-2.646A2.64 2.64 0 0 1 8.465 5.82z"
         fill="#59f"
         id="path5"
         style="fill:url(#linearGradient9)" />
    </g>
  </g>
</svg>
