<?xml version="1.0" encoding="UTF-8" standalone="no"?>
<svg
   inkscape:version="1.3.2 (091e20ef0f, 2023-11-25)"
   sodipodi:docname="ue4editor.svg"
   id="svg12"
   version="1.1"
   viewBox="0 0 16.933 16.933"
   height="64"
   width="64"
   xml:space="preserve"
   xmlns:inkscape="http://www.inkscape.org/namespaces/inkscape"
   xmlns:sodipodi="http://sodipodi.sourceforge.net/DTD/sodipodi-0.dtd"
   xmlns="http://www.w3.org/2000/svg"
   xmlns:svg="http://www.w3.org/2000/svg"><defs
     id="defs16"><linearGradient
       id="linearGradient1229"
       inkscape:swatch="solid"><stop
         style="stop-color:#000000;stop-opacity:1;"
         offset="0"
         id="stop1227" /></linearGradient><rect
       x="4.4382802"
       y="5.592233"
       width="31.334258"
       height="14.401861"
       id="rect2126" /><rect
       x="4.4382801"
       y="5.5922332"
       width="31.334257"
       height="14.401861"
       id="rect2126-3" /><linearGradient
       id="n"
       gradientUnits="userSpaceOnUse"
       x1="4"
       x2="56"
       y1="38.5"
       y2="38.5"
       gradientTransform="matrix(0.26457812,0,0,0.26457812,-9.4286687,-8.5659458)"><stop
         offset="0"
         stop-color="#ffffff"
         stop-opacity="0"
         id="stop79" /><stop
         offset="0.3"
         stop-color="#ffffff"
         stop-opacity="0.262745"
         id="stop81" /><stop
         offset="1"
         stop-color="#ffffff"
         stop-opacity="0"
         id="stop83" /></linearGradient><radialGradient
       id="m"
       cx="30"
       cy="186"
       gradientTransform="matrix(0.31470562,0,0,0.26457812,-10.932496,-54.073382)"
       gradientUnits="userSpaceOnUse"
       r="14"><stop
         offset="0"
         stop-color="#9a9996"
         stop-opacity="0"
         id="stop72" /><stop
         offset="0.779321"
         stop-color="#9a9996"
         stop-opacity="0"
         id="stop74" /><stop
         offset="1"
         stop-color="#77767b"
         id="stop76" /></radialGradient><linearGradient
       id="l"
       gradientUnits="userSpaceOnUse"
       x1="-2.958482"
       x2="62.958481"
       y1="42"
       y2="42"
       gradientTransform="matrix(0.26457812,0,0,0.26457812,-9.4286687,-8.5659458)"><stop
         offset="0"
         stop-color="#241f31"
         id="stop63" /><stop
         offset="0.287612"
         stop-color="#77767b"
         id="stop65" /><stop
         offset="0.651706"
         stop-color="#2f2840"
         id="stop67" /><stop
         offset="1"
         stop-color="#241f31"
         id="stop69" /></linearGradient><radialGradient
       id="k"
       cx="26"
       cy="190.16667"
       gradientTransform="matrix(0.26457812,0,0,0.45356257,-9.4286687,-91.114319)"
       gradientUnits="userSpaceOnUse"
       r="14"><stop
         offset="0"
         stop-color="#5e5c64"
         id="stop58" /><stop
         offset="1"
         stop-color="#241f31"
         id="stop60" /></radialGradient><linearGradient
       id="j"
       gradientUnits="userSpaceOnUse"
       x1="16"
       x2="30"
       y1="86"
       y2="86"
       gradientTransform="matrix(0.26457812,0,0,0.26457812,-9.4286687,-8.5659458)"><stop
         offset="0"
         stop-color="#f6f5f4"
         stop-opacity="0.501961"
         id="stop53" /><stop
         offset="1"
         stop-color="#ffffff"
         stop-opacity="0"
         id="stop55" /></linearGradient><linearGradient
       id="i"
       gradientTransform="matrix(0.2143178,-0.18708504,0.2143178,0.18708504,-65.786941,-17.1527)"
       gradientUnits="userSpaceOnUse"
       x1="72.062195"
       x2="40.970352"
       y1="230.29051"
       y2="310.56241"><stop
         offset="0"
         stop-color="#1ebef1"
         id="stop48" /><stop
         offset="1"
         stop-color="#2509e8"
         id="stop50" /></linearGradient><clipPath
       id="h"><rect
         height="152"
         width="192"
         id="rect45"
         x="0"
         y="0" /></clipPath><mask
       id="g"><g
         filter="url(#f)"
         id="g42"><rect
           fill-opacity="0.3"
           height="128"
           width="128"
           id="rect40"
           x="0"
           y="0" /></g></mask><filter
       id="f"
       height="1"
       width="1"
       x="0"
       y="0"><feColorMatrix
         in="SourceGraphic"
         type="matrix"
         values="0 0 0 0 1 0 0 0 0 1 0 0 0 0 1 0 0 0 1 0"
         id="feColorMatrix37" /></filter><linearGradient
       id="e"
       gradientTransform="matrix(0,-0.26457812,0.26457812,0,-60.756824,31.120772)"
       gradientUnits="userSpaceOnUse"
       x1="50"
       x2="70"
       y1="258"
       y2="258"><stop
         offset="0"
         stop-color="#576ce3"
         id="stop30" /><stop
         offset="0"
         stop-color="#bb34b1"
         id="stop32" /><stop
         offset="1"
         stop-color="#e31f9e"
         id="stop34" /></linearGradient><linearGradient
       id="d"
       gradientTransform="matrix(0,-0.26457812,0.26457812,0,-51.761168,40.116428)"
       gradientUnits="userSpaceOnUse"
       x1="84"
       x2="104"
       y1="258"
       y2="258"><stop
         offset="0"
         stop-color="#e5a50a"
         id="stop25" /><stop
         offset="1"
         stop-color="#f6d32d"
         id="stop27" /></linearGradient><linearGradient
       id="c"
       gradientTransform="matrix(0,-0.26457812,0.26457812,0,-60.756824,21.59596)"
       gradientUnits="userSpaceOnUse"
       x1="50"
       x2="70"
       y1="258"
       y2="258"><stop
         offset="0"
         stop-color="#c9c8c5"
         id="stop20" /><stop
         offset="1"
         stop-color="#f6f5f4"
         id="stop22" /></linearGradient><linearGradient
       id="b"
       gradientTransform="matrix(0,-0.26457812,0.26457812,0,-51.761168,30.591616)"
       gradientUnits="userSpaceOnUse"
       x1="84"
       x2="104"
       y1="258"
       y2="258"><stop
         offset="0"
         stop-color="#46a2ed"
         id="stop15" /><stop
         offset="1"
         stop-color="#41c6f1"
         id="stop17" /></linearGradient><linearGradient
       id="a"
       gradientTransform="matrix(0.26457812,0,0,0.20352328,-11.545294,1.7728107)"
       gradientUnits="userSpaceOnUse"
       x1="15.999999"
       x2="128"
       y1="73.999687"
       y2="73.999687"><stop
         offset="0"
         stop-color="#3d3846"
         id="stop2" /><stop
         offset="0.0357143"
         stop-color="#5e5c64"
         id="stop4" /><stop
         offset="0.0714286"
         stop-color="#3d3846"
         id="stop6" /><stop
         offset="0.928571"
         stop-color="#3d3846"
         id="stop8" /><stop
         offset="0.964286"
         stop-color="#5e5c64"
         id="stop10" /><stop
         offset="1"
         stop-color="#3d3846"
         id="stop12" /></linearGradient></defs><sodipodi:namedview
     id="namedview14"
     pagecolor="#505050"
     bordercolor="#eeeeee"
     borderopacity="1"
     inkscape:showpageshadow="0"
     inkscape:pageopacity="0"
     inkscape:pagecheckerboard="0"
     inkscape:deskcolor="#505050"
     showgrid="false"
     inkscape:zoom="8.2285045"
     inkscape:cx="30.989835"
     inkscape:cy="29.470726"
     inkscape:window-width="1920"
     inkscape:window-height="972"
     inkscape:window-x="0"
     inkscape:window-y="0"
     inkscape:window-maximized="1"
     inkscape:current-layer="svg12" /><circle
     fill="#32a3d7"
     style="fill:#000000;fill-opacity:1;stroke-width:0.999946;paint-order:stroke fill markers;stroke:none;stroke-opacity:1"
     id="circle2"
     r="7.1436095"
     cy="8.4664993"
     cx="8.4664993" /><path
     style="fill:#ffffff"
     d="M 23.420812,36.967229 C 20.106374,36.535302 16.935461,35.274062 15.027734,33.628858 14.487017,33.16255 13.405721,32.031262 13.5,32 c 0.30887,0.05969 0.955175,0.345629 1.58569,0.362642 0.630515,0.01701 1.070972,-0.362642 1.380315,-0.87066 v -5.330808 c 0,-5.878968 0.02571,-5.492987 -0.390009,-5.855993 -0.504929,-0.440908 -1.496526,-0.303486 -2.502342,0.370162 -1.534221,1.027552 -3.791557,2.985142 -5.0898164,5.354218 -0.2305539,0.420715 -0.4386995,0.783255 -0.4625466,0.805644 -0.023849,0.02239 -0.028358,-0.434515 -0.00999,-1.015342 0.697788,-5.939657 6.78924,-11.233449 11.586842,-13.419618 0.606786,-0.259578 2.77235,-0.90049 2.901857,-0.90049 0.02084,0 -0.885776,0.529253 -1.098026,0.684279 -1.272286,0.929262 -1.712282,1.218147 -1.896974,2.349958 -0.136625,0.837254 0.05284,1.354369 0.421703,1.767749 0.1911,0.214164 0.261567,0.251099 0.52756,0.276518 0.364779,-0.03821 0.670275,-0.04747 1.045737,-0.07902 v 14.000373 c 0,1 1,1 1.992,1.063077 1.008,-0.06308 2.008,-0.617904 3.0064,-1.265378 L 26.5,24.202367 26.5016,18.607036 26.094528,17.833709 C 25.65773,17.087212 24.583016,16.981248 24,16.5 c 1.022559,0.01899 2.60526,0.171922 3.5,0.5 2.607041,-2.064176 5.023416,-4.811599 8,-5.5 -1.296801,2.053613 -2.613708,4.001862 -4,6 v 12.099524 c 0.141285,0.169307 0.884905,0.383696 1.231512,0.414952 2.353509,-0.333805 3.455422,-1.658201 5.018057,-3.014476 0.04604,0.04579 -0.927624,2.278026 -1.459139,3.074673 -1.619633,2.427537 -4.201067,4.371632 -6.357006,5.742425 -0.404316,0.257073 -0.408854,0.258292 -0.549569,0.147747 C 28.412732,35.207408 27.806796,34.738232 26.5,34 c -1.156817,1.101728 -1.619689,1.82972 -2.827548,2.999974 -0.03825,-0.005 -0.151452,-0.01972 -0.251571,-0.03276 z"
     id="path2"
     transform="matrix(0.35718047,0,0,0.35718047,-0.10583211,-0.10583212)" /></svg>
