<?xml version="1.0" encoding="UTF-8" standalone="no"?>
<svg
   inkscape:version="1.2.2 (b0a8486541, 2022-12-01)"
   sodipodi:docname="zenvidia.svg"
   id="svg12"
   version="1.1"
   viewBox="0 0 16.933 16.933"
   height="64"
   width="64"
   xml:space="preserve"
   xmlns:inkscape="http://www.inkscape.org/namespaces/inkscape"
   xmlns:sodipodi="http://sodipodi.sourceforge.net/DTD/sodipodi-0.dtd"
   xmlns="http://www.w3.org/2000/svg"
   xmlns:svg="http://www.w3.org/2000/svg"><defs
     id="defs16"><linearGradient
       id="linearGradient1229"
       inkscape:swatch="solid"><stop
         style="stop-color:#000000;stop-opacity:1;"
         offset="0"
         id="stop1227" /></linearGradient><rect
       x="4.4382802"
       y="5.592233"
       width="31.334258"
       height="14.401861"
       id="rect2126" /><rect
       x="4.4382801"
       y="5.5922332"
       width="31.334257"
       height="14.401861"
       id="rect2126-3" /></defs><sodipodi:namedview
     id="namedview14"
     pagecolor="#505050"
     bordercolor="#eeeeee"
     borderopacity="1"
     inkscape:showpageshadow="0"
     inkscape:pageopacity="0"
     inkscape:pagecheckerboard="0"
     inkscape:deskcolor="#505050"
     showgrid="false"
     inkscape:zoom="16.000001"
     inkscape:cx="45.781248"
     inkscape:cy="35.499998"
     inkscape:window-width="1920"
     inkscape:window-height="972"
     inkscape:window-x="0"
     inkscape:window-y="0"
     inkscape:window-maximized="1"
     inkscape:current-layer="g1000" /><circle
     cx="8.4664993"
     cy="8.4664993"
     fill="#32a3d7"
     style="fill:#fffefe;fill-opacity:1;stroke-width:0.999946;paint-order:stroke fill markers;stroke:none;stroke-opacity:1"
     id="circle2"
     r="7.1436095" /><g
     id="g1000"
     transform="matrix(0.85789994,0,0,0.91355278,4.2152407,-0.02759784)"><g
       id="g269"
       transform="matrix(0.17601211,-0.17601212,0.17601212,0.17601211,-5.5283875,8.4289006)"><g
         id="g1015"><path
           id="path237"
           style="fill:#a6a6a6;fill-opacity:1"
           d="M 28.684605 3.5829872 C 28.684605 3.5829872 24.60657 10.630845 29.48523 15.509505 L 38.677246 24.701521 L 44.240192 19.138576 L 28.684605 3.5829872 z M 31.631616 8.6028465 L 35.871819 12.846264 C 36.262819 13.237264 36.262484 13.868966 35.871485 14.259966 C 35.676485 14.454965 35.420709 14.552656 35.164709 14.552656 C 34.908709 14.552656 34.652783 14.4553 34.457783 14.2603 L 30.21758 10.016882 C 29.82658 9.6258825 29.825204 8.9924696 30.216203 8.60147 C 30.607203 8.2104704 31.240616 8.2118469 31.631616 8.6028465 z " /></g><g
         id="g1019"><path
           id="path239"
           style="fill:#a6a6a6;fill-opacity:1"
           d="M 26.025891 41.185734 L 17.520073 40.119673 C 17.413409 40.101923 17.330293 40.208149 17.358718 40.311827 C 18.960929 46.125036 10.355775 41.412803 8.6589158 40.562229 C 8.4985758 40.481819 8.3143712 40.458302 8.1380399 40.494487 L 3.4842702 41.445442 C 2.727767 41.426512 2.0725425 41.966519 1.9463055 42.713053 L 1.5513973 45.072301 C 1.4279988 45.806145 1.8516932 46.523346 2.5542674 46.766121 L 7.0848631 48.330455 L 22.787107 50.776112 C 22.111827 48.741726 22.361762 46.424606 23.67849 44.542683 L 26.025891 41.185734 z M 15.857386 46.121703 C 16.081495 46.351468 16.191937 46.685443 16.122712 47.023345 C 16.037212 47.436622 15.707146 47.737651 15.315339 47.806763 C 15.194252 47.828123 15.068071 47.82793 14.940618 47.80162 L 10.338115 46.8499 C 9.7966873 46.738181 9.4510713 46.209332 9.5618314 45.668688 C 9.6745604 45.127698 10.204293 44.777362 10.743925 44.890414 L 15.344821 45.84374 C 15.547857 45.885635 15.72292 45.983844 15.857386 46.121703 z " /></g><path
         style="fill:none;fill-opacity:1;stroke:#a6a6a6;stroke-width:1.93696;stroke-linecap:round;stroke-miterlimit:10;stroke-opacity:1"
         d="m 22.956789,52.032161 c -0.157039,0.285764 -0.29144,0.589124 -0.36657,0.929265 -0.451359,2.043472 0.881014,4.233255 2.97561,4.890487 2.094601,0.657232 4.158915,-0.466756 4.610275,-2.510231 0.285205,-1.291233 -0.144142,-2.638805 -1.025923,-3.622634"
         id="path253" /><path
         style="fill:#a6a6a6;fill-opacity:1"
         d="m 18.980216,43.6416 0.484215,0.130224 7.208553,1.938553 3.336027,-4.824265 -4.450797,-2.298656 3.275932,-4.599169 -4.450795,-2.298658 3.275934,-4.59917 -4.450796,-2.298656 3.275932,-4.599168 -4.450796,-2.298657 3.164749,-4.446301 c 0.04083,-0.05703 -0.0079,-0.135182 -0.0776,-0.123955 L 18.401327,14.4432 c -2.725033,0.454437 -4.55793,3.028395 -4.094573,5.749052 5e-4,8.66e-4 4.438185,23.386079 4.673453,23.449348 z"
         id="path249" /></g><g
       id="g1011"><g
         id="g1004"
         transform="matrix(0.98425026,0,0,0.95485748,-0.99116754,-0.03283048)"><path
           style="fill:#dd352e"
           d="M 56.309,26.87 32.267,50.912 c -2.722,2.722 -7.177,2.722 -9.899,0 v 0 c -2.722,-2.722 -2.722,-7.177 0,-9.899 L 46.41,16.971 c 2.722,-2.722 7.177,-2.722 9.899,0 v 0 c 2.722,2.722 2.722,7.177 0,9.899 z"
           id="path241"
           transform="matrix(0.17601211,-0.17601212,0.17601212,0.17601211,-4.4316684,9.4164372)" /></g><g
         id="g987"><path
           style="fill:#b02721;stroke-width:0.248919"
           d="m 8.3689482,12.852375 c -0.189037,0.189037 -0.4384461,0.29306 -0.7022883,0.292884 -0.1376415,0 -0.2490571,-0.111416 -0.2490571,-0.249057 1.76e-4,-0.137466 0.1114156,-0.248705 0.2488811,-0.248881 0.262434,-1.76e-4 0.4979382,-0.235681 0.4977622,-0.497763 L 8.16407,7.8736959 c 0,-0.1376414 0.1112396,-0.2488811 0.2488811,-0.2488811 0.1376415,0 0.2488812,0.1112397 0.2488812,0.2488811 l 1.761e-4,4.2758621 c 0,0.264018 -0.1038471,0.513604 -0.2930602,0.702817 z"
           id="path247"
           sodipodi:nodetypes="scccccsccs" /><path
           d="m 7.5147516,3.1370189 c 0,0 0.5019102,0.3065385 0.5537605,0.905305 H 8.2504027 C 8.1902562,3.3788484 7.5531207,2.7979183 7.5531207,2.7979183 c 0,0 -1.0664556,0.3318415 -1.163934,1.2446131 H 6.5826918 C 6.6783036,3.3726263 7.514959,3.1370189 7.514959,3.1370189 Z M 6.9674205,4.0423239 H 6.7903001 C 6.8925488,3.5362657 7.4892413,3.389011 7.4892413,3.389011 c 0,0 0.3048793,0.2497107 0.3546556,0.6533129 H 7.6493548 V 4.0417017 C 7.6783909,3.8299454 7.4537757,3.65801 7.4537757,3.65801 c 0,0 -0.3774697,0.099138 -0.4861478,0.3845214 m 1.6187644,0 H 8.2506102 c 0.00166,0.019495 0.00311,0.032354 0.00394,0.05185 0.028828,0.7545246 -0.7012226,1.2460648 -0.7012226,1.2460648 0,0 -0.7779609,-0.5647528 -0.7779609,-1.1527345 0,-0.053924 0.00539,-0.097893 0.014933,-0.1451807 H 6.5826944 c -0.00581,0.040443 -0.00913,0.075909 -0.00913,0.1198779 0,0.5471237 0.3167013,0.943052 0.6916822,1.3261215 -0.2592473,0.3772631 0,0 -0.2592473,0.3772631 C 6.6600546,5.5013899 6.3813077,4.6522904 6.3813077,4.1707054 c 0,-0.046459 0.00311,-0.084412 0.00809,-0.1281738 H 6.097581 v 1.8080946 c 0,0.1316587 0.1316765,0.2672544 0.2645781,0.2667409 l 1.9596551,-0.00207 c 0.1315724,0 0.2645781,-0.1330057 0.2645781,-0.2646739 V 4.0427387 Z m -0.7424954,0 h 0.2244078 c 0.00145,0.019289 0.0027,0.032147 0.00353,0.05185 0.019289,0.5425608 -0.5284575,0.8984608 -0.5284575,0.8984608 0,0 -0.605196,-0.3843139 -0.605196,-0.7964196 0,-0.059524 0.010993,-0.1061893 0.029243,-0.1538916 H 7.6493548 C 7.6203186,4.2536659 7.5145442,4.2895462 7.2747887,4.416683 l 0.2698286,0.2822723 c 0,0 0.3065386,-0.2061565 0.3065386,-0.5537605 0,-0.03754 -0.00311,-0.067198 -0.00726,-0.1026634"
           fill="#aaaaaa"
           id="path975"
           style="fill:#4acf38;fill-opacity:1;stroke-width:0.207401"
           sodipodi:nodetypes="ccccccccccccccccccccsccsccsccccccccccccsccccsc" /></g></g></g></svg>
