<?xml version="1.0" encoding="UTF-8" standalone="no"?>
<svg
   width="64"
   height="64"
   version="1"
   id="svg2127"
   sodipodi:docname="folder-orange-apple.svg"
   inkscape:version="1.2.2 (b0a8486541, 2022-12-01)"
   xmlns:inkscape="http://www.inkscape.org/namespaces/inkscape"
   xmlns:sodipodi="http://sodipodi.sourceforge.net/DTD/sodipodi-0.dtd"
   xmlns:xlink="http://www.w3.org/1999/xlink"
   xmlns="http://www.w3.org/2000/svg"
   xmlns:svg="http://www.w3.org/2000/svg">
  <defs
     id="defs2131">
    <linearGradient
       inkscape:collect="always"
       xlink:href="#linearGradient1331"
       id="linearGradient1333"
       x1="72.800003"
       y1="48.800144"
       x2="78.800003"
       y2="54.790291"
       gradientUnits="userSpaceOnUse"
       gradientTransform="translate(-18.8,2.2097087)" />
    <linearGradient
       inkscape:collect="always"
       id="linearGradient1331">
      <stop
         style="stop-color:#000000;stop-opacity:0;"
         offset="0"
         id="stop1327" />
      <stop
         style="stop-color:#000000;stop-opacity:0.148;"
         offset="0.14867319"
         id="stop1337" />
      <stop
         style="stop-color:#000000;stop-opacity:0.132;"
         offset="0.44666761"
         id="stop1335" />
      <stop
         style="stop-color:#ffffff;stop-opacity:0.048;"
         offset="0.80090499"
         id="stop1329" />
    </linearGradient>
  </defs>
  <sodipodi:namedview
     id="namedview2129"
     pagecolor="#505050"
     bordercolor="#eeeeee"
     borderopacity="1"
     inkscape:showpageshadow="0"
     inkscape:pageopacity="0"
     inkscape:pagecheckerboard="0"
     inkscape:deskcolor="#505050"
     showgrid="false"
     inkscape:zoom="12.015625"
     inkscape:cx="31.958388"
     inkscape:cy="31.958388"
     inkscape:current-layer="svg2127" />
  <g
     id="g1505"
     inkscape:label="folder"
     transform="translate(0,-0.5)">
    <rect
       style="opacity:0.2"
       width="56"
       height="36"
       x="4"
       y="22"
       rx="2.8"
       ry="2.8"
       id="rect2" />
    <path
       style="fill:#da670b;fill-opacity:1"
       d="M 4,46.2 C 4,47.751 5.2488,49 6.8,49 H 57.2 C 58.751,49 60,47.751 60,46.2 V 15.8 C 60,14.249 58.751,13 57.2,13 H 32 C 27.8,13 26.4,7 22.2,7 H 6.8 C 5.2488,7 4,8.2488 4,9.8"
       id="path4" />
    <rect
       style="opacity:0.2;fill:#000000;fill-opacity:1"
       width="56"
       height="36"
       x="4"
       y="20"
       rx="2.8"
       ry="2.8"
       id="rect6" />
    <rect
       style="fill:#ffffff;fill-opacity:1"
       width="48"
       height="22"
       x="8"
       y="16"
       rx="2.8"
       ry="2.8"
       id="rect8" />
    <path
       id="rect10"
       style="fill:#ff7800"
       d="m 6.8,21 h 50.4 c 1.5512,0 2.8,1.2488 2.8,2.8 V 54.2 C 60,55.7512 58.7512,57 57.2,57 H 6.8 C 5.2488,57 4,55.7512 4,54.2 V 23.8 C 4,22.2488 5.2488,21 6.8,21 Z"
       sodipodi:nodetypes="sssssssss" />
    <path
       style="opacity:0.1;fill:#ffffff"
       d="M 6.8008,7 C 5.2496,7 4,8.2496 4,9.8008 V 10.801 C 4,9.2496 5.2496,8 6.8008,8 H 22.199 c 4.2,0 5.601,6 9.801,6 H 57.199 C 58.75,14 60,15.25 60,16.801 v -1 C 60,14.25 58.75,13 57.199,13 H 32 C 27.8,13 26.399,7 22.199,7 Z"
       id="path12" />
    <path
       d="m 57.2,57.009709 c 1.5512,0 2.8,-1.2488 2.8,-2.8 V 45.01 L 48,57.009709 Z"
       style="fill:url(#linearGradient1333);fill-opacity:1"
       id="path1208"
       sodipodi:nodetypes="ccccc" />
  </g>
  <g
     id="g2310"
     inkscape:label="ugly logo"
     style="display:inline">
    <path
       style="display:inline;fill:#533314"
       d="m 35.98,29 c -0.991,0.035 -2.195,0.579 -2.906,1.311 -0.639,0.65 -1.201,1.685 -1.051,2.68 1.107,0.076 2.241,-0.495 2.93,-1.227 C 35.641,31.03 36.107,30.015 35.98,29 Z m -0.656,4.01 c -1.315,0.105 -2.516,0.969 -3.196,0.969 -0.774,0 -1.969,-0.939 -3.238,-0.914 -1.668,0.027 -3.208,1.038 -4.067,2.641 -1.732,3.226 -0.446,8.005 1.243,10.622 0.825,1.281 1.836,2.672 3.105,2.672 1.269,0 1.715,-0.867 3.219,-0.867 1.504,0 1.915,0.867 3.243,0.867 1.328,0 2.184,-1.333 3.004,-2.617 0.947,-1.486 1.34,-2.927 1.363,-3.001 -0.03,-0.014 -2.611,-1.072 -2.637,-4.262 -0.025,-2.67 2.034,-3.952 2.125,-4.015 -1.154,-1.813 -2.953,-2.062 -3.594,-2.09 -0.191,-0.021 -0.382,-0.019 -0.57,-0.004 z"
       id="path2125" />
  </g>
</svg>
