<?xml version="1.0" encoding="UTF-8" standalone="no"?>
<svg
   width="64"
   height="64"
   version="1"
   id="svg14"
   sodipodi:docname="folder-b.svg"
   inkscape:version="1.2.2 (b0a8486541, 2022-12-01)"
   xmlns:inkscape="http://www.inkscape.org/namespaces/inkscape"
   xmlns:sodipodi="http://sodipodi.sourceforge.net/DTD/sodipodi-0.dtd"
   xmlns:xlink="http://www.w3.org/1999/xlink"
   xmlns="http://www.w3.org/2000/svg"
   xmlns:svg="http://www.w3.org/2000/svg">
  <defs
     id="defs18">
    <linearGradient
       inkscape:collect="always"
       id="linearGradient1331">
      <stop
         style="stop-color:#000000;stop-opacity:0;"
         offset="0"
         id="stop1327" />
      <stop
         style="stop-color:#000000;stop-opacity:0.148;"
         offset="0.14867319"
         id="stop1337" />
      <stop
         style="stop-color:#000000;stop-opacity:0.132;"
         offset="0.44666761"
         id="stop1335" />
      <stop
         style="stop-color:#ffffff;stop-opacity:0.048;"
         offset="0.80090499"
         id="stop1329" />
    </linearGradient>
    <linearGradient
       inkscape:collect="always"
       xlink:href="#linearGradient1331"
       id="linearGradient720"
       gradientUnits="userSpaceOnUse"
       gradientTransform="translate(-18.8,2.2097087)"
       x1="72.800003"
       y1="48.800144"
       x2="78.800003"
       y2="54.790291" />
  </defs>
  <sodipodi:namedview
     id="namedview16"
     pagecolor="#505050"
     bordercolor="#eeeeee"
     borderopacity="1"
     inkscape:showpageshadow="0"
     inkscape:pageopacity="0"
     inkscape:pagecheckerboard="0"
     inkscape:deskcolor="#505050"
     showgrid="false"
     inkscape:zoom="11.313709"
     inkscape:cx="41.719298"
     inkscape:cy="39.50959"
     inkscape:current-layer="svg14" />
  <g
     id="g176"
     transform="translate(0,-0.5)"
     style="display:inline"
     inkscape:label="open folder">
    <path
       style="fill:#da670b;fill-opacity:1"
       d="M 4,46.2 C 4,47.751 5.2488,49 6.8,49 H 57.2 C 58.751,49 60,47.751 60,46.2 V 15.8 C 60,14.249 58.751,13 57.2,13 H 32 C 27.8,13 26.4,7 22.2,7 H 6.8 C 5.2488,7 4,8.2488 4,9.8"
       id="path4-3" />
    <path
       id="rect2-6"
       style="opacity:0.2;stroke-width:0.917663"
       d="M 6.8007812,26 C 5.2495828,26 4,27.052281 4,28.358553 v 1.684209 23.914476 1.684209 C 4,56.947719 5.2495828,58 6.8007812,58 H 57.199219 C 58.750417,58 60,56.947719 60,55.641447 V 53.957238 30.042762 28.358553 C 60,27.052281 58.750417,26 57.199219,26 Z" />
    <rect
       style="fill:#e4e4e4"
       width="48"
       height="22"
       x="8"
       y="16.5"
       rx="2.8"
       ry="2.8"
       id="rect8-3" />
    <path
       id="rect10-5"
       style="fill:#ff7800;stroke-width:0.917663"
       d="m 6.8,26.842106 h 50.4 c 1.5512,0 2.8,1.05162 2.8,2.357894 v 25.6 c 0,1.306274 -1.2488,2.357894 -2.8,2.357894 H 6.8 C 5.2488,57.157894 4,56.106274 4,54.8 V 29.2 c 0,-1.306274 1.2488,-2.357894 2.8,-2.357894 z"
       sodipodi:nodetypes="sssssssss" />
    <path
       style="opacity:0.1;fill:#ffffff"
       d="M 6.8008,7 C 5.2496,7 4,8.2496 4,9.8008 V 10.801 C 4,9.2496 5.2496,8 6.8008,8 H 22.199 c 4.2,0 5.601,6 9.801,6 H 57.199 C 58.75,14 60,15.25 60,16.801 v -1 C 60,14.25 58.75,13 57.199,13 H 32 C 27.8,13 26.399,7 22.199,7 Z"
       id="path12-3" />
    <path
       d="m 57.2,57.009709 c 1.5512,0 2.8,-1.2488 2.8,-2.8 V 45.01 L 48,57.009709 Z"
       style="fill:url(#linearGradient720);fill-opacity:1"
       id="path1208-5"
       sodipodi:nodetypes="ccccc" />
  </g>
</svg>
