<?xml version="1.0" encoding="UTF-8" standalone="no"?>
<svg
   width="64"
   height="64"
   version="1"
   id="svg2877"
   sodipodi:docname="folder-orange-arduino.svg"
   inkscape:version="1.2.2 (b0a8486541, 2022-12-01)"
   xmlns:inkscape="http://www.inkscape.org/namespaces/inkscape"
   xmlns:sodipodi="http://sodipodi.sourceforge.net/DTD/sodipodi-0.dtd"
   xmlns:xlink="http://www.w3.org/1999/xlink"
   xmlns="http://www.w3.org/2000/svg"
   xmlns:svg="http://www.w3.org/2000/svg">
  <defs
     id="defs2881">
    <linearGradient
       inkscape:collect="always"
       xlink:href="#linearGradient1331"
       id="linearGradient1333"
       x1="72.800003"
       y1="48.800144"
       x2="78.800003"
       y2="54.790291"
       gradientUnits="userSpaceOnUse"
       gradientTransform="translate(-18.8,2.2097087)" />
    <linearGradient
       inkscape:collect="always"
       id="linearGradient1331">
      <stop
         style="stop-color:#000000;stop-opacity:0;"
         offset="0"
         id="stop1327" />
      <stop
         style="stop-color:#000000;stop-opacity:0.148;"
         offset="0.14867319"
         id="stop1337" />
      <stop
         style="stop-color:#000000;stop-opacity:0.132;"
         offset="0.44666761"
         id="stop1335" />
      <stop
         style="stop-color:#ffffff;stop-opacity:0.048;"
         offset="0.80090499"
         id="stop1329" />
    </linearGradient>
  </defs>
  <sodipodi:namedview
     id="namedview2879"
     pagecolor="#505050"
     bordercolor="#eeeeee"
     borderopacity="1"
     inkscape:showpageshadow="0"
     inkscape:pageopacity="0"
     inkscape:pagecheckerboard="0"
     inkscape:deskcolor="#505050"
     showgrid="false"
     inkscape:zoom="12.015625"
     inkscape:cx="31.958388"
     inkscape:cy="32.124837"
     inkscape:current-layer="svg2877" />
  <g
     id="g1505"
     inkscape:label="folder"
     transform="translate(0,-0.5)">
    <rect
       style="opacity:0.2"
       width="56"
       height="36"
       x="4"
       y="22"
       rx="2.8"
       ry="2.8"
       id="rect2" />
    <path
       style="fill:#da670b;fill-opacity:1"
       d="M 4,46.2 C 4,47.751 5.2488,49 6.8,49 H 57.2 C 58.751,49 60,47.751 60,46.2 V 15.8 C 60,14.249 58.751,13 57.2,13 H 32 C 27.8,13 26.4,7 22.2,7 H 6.8 C 5.2488,7 4,8.2488 4,9.8"
       id="path4" />
    <rect
       style="opacity:0.2;fill:#000000;fill-opacity:1"
       width="56"
       height="36"
       x="4"
       y="20"
       rx="2.8"
       ry="2.8"
       id="rect6" />
    <rect
       style="fill:#ffffff;fill-opacity:1"
       width="48"
       height="22"
       x="8"
       y="16"
       rx="2.8"
       ry="2.8"
       id="rect8" />
    <path
       id="rect10"
       style="fill:#ff7800"
       d="m 6.8,21 h 50.4 c 1.5512,0 2.8,1.2488 2.8,2.8 V 54.2 C 60,55.7512 58.7512,57 57.2,57 H 6.8 C 5.2488,57 4,55.7512 4,54.2 V 23.8 C 4,22.2488 5.2488,21 6.8,21 Z"
       sodipodi:nodetypes="sssssssss" />
    <path
       style="opacity:0.1;fill:#ffffff"
       d="M 6.8008,7 C 5.2496,7 4,8.2496 4,9.8008 V 10.801 C 4,9.2496 5.2496,8 6.8008,8 H 22.199 c 4.2,0 5.601,6 9.801,6 H 57.199 C 58.75,14 60,15.25 60,16.801 v -1 C 60,14.25 58.75,13 57.199,13 H 32 C 27.8,13 26.399,7 22.199,7 Z"
       id="path12" />
    <path
       d="m 57.2,57.009709 c 1.5512,0 2.8,-1.2488 2.8,-2.8 V 45.01 L 48,57.009709 Z"
       style="fill:url(#linearGradient1333);fill-opacity:1"
       id="path1208"
       sodipodi:nodetypes="ccccc" />
  </g>
  <g
     id="g3001"
     inkscape:label="arduino"
     style="display:inline"
     transform="translate(-2.6e-4,-0.49983945)">
    <path
       style="fill:#533314"
       d="m 24.81644,32 c -0.88834,0 -1.7727,0.17787 -2.5957,0.52539 -0.82301,0.34753 -1.5746,0.8592 -2.209,1.5059 -0.63432,0.64667 -1.1424,1.4203 -1.4883,2.2715 -0.345,0.851 -0.523,1.769 -0.523,2.693 0,0.92432 0.17758,1.8421 0.52344,2.6934 0.34588,0.85121 0.85396,1.6248 1.4883,2.2715 0.63434,0.64665 1.386,1.1583 2.209,1.5059 0.8042,0.3396 1.6674,0.51547 2.5352,0.52344 0.0205,7.42e-4 0.04015,0.0012 0.06055,0.002 2.1101,0.09994 3.8103,-0.73742 5.0547,-1.9531 0.85065,-0.83103 1.519,-1.8124 2.1289,-2.8125 0.60993,1.0001 1.2782,1.9815 2.1289,2.8125 1.2444,1.2157 2.9446,2.053 5.0547,1.9531 0.0204,-7.42e-4 0.04005,-9.81e-4 0.06055,-0.002 0.86777,-0.0074 1.729,-0.18384 2.5332,-0.52344 0.82301,-0.34752 1.5766,-0.8592 2.2109,-1.5059 l 0.0039,-0.0078 c 0.63171,-0.64549 1.1395,-1.415 1.4844,-2.2637 0.345,-0.851 0.523,-1.769 0.523,-2.693 0,-0.92433 -0.17759,-1.8422 -0.52344,-2.6934 l -0.0059,-0.01172 c -0.346,-0.846 -0.852,-1.616 -1.483,-2.26 -0.634,-0.646 -1.386,-1.158 -2.209,-1.506 -0.823,-0.347 -1.707,-0.525 -2.595,-0.525 -2.2231,0 -3.9788,0.91425 -5.2754,2.1855 -0.75,0.734 -1.358,1.574 -1.909,2.433 -0.551,-0.859 -1.159,-1.699 -1.908,-2.433 -1.297,-1.272 -3.053,-2.186 -5.276,-2.186 z M 24.793,34 c 1.7735,0 2.9063,0.63555 3.9453,1.6875 0.82362,0.83385 1.5458,1.9682 2.2617,3.2051 -0.81704,1.4451 -1.6067,2.765 -2.4941,3.6602 -0.97826,0.98682 -1.992,1.531 -3.6484,1.4355 h -0.06445 c -0.63169,0 -1.2685,-0.13332 -1.8496,-0.38672 -0.57334,-0.25 -1.1024,-0.62145 -1.5391,-1.0762 L 21.38677,42.5078 c -0.44,-0.462 -0.794,-1.02 -1.03,-1.618 -0.235,-0.599 -0.357,-1.251 -0.357,-1.895 0,-0.64429 0.12199,-1.2963 0.35742,-1.8945 0.23541,-0.59829 0.58922,-1.154 1.0293,-1.6172 l 0.01758,-0.01953 c 0.43666,-0.45472 0.96573,-0.82618 1.5391,-1.0762 0.581,-0.253 1.217,-0.386 1.849,-0.386 z m 14.414,0 c 0.6317,0 1.2685,0.13332 1.8496,0.38672 0.57333,0.25 1.1024,0.62145 1.5391,1.0762 l 0.01758,0.01953 c 0.44008,0.46323 0.79389,1.0189 1.0293,1.6172 0.235,0.598 0.357,1.25 0.357,1.894 0,0.64431 -0.12199,1.2962 -0.35742,1.8945 -0.23541,0.59828 -0.58921,1.1559 -1.0293,1.6191 l -0.01758,0.01758 c -0.43666,0.45472 -0.96573,0.82617 -1.5391,1.0762 -0.58114,0.2534 -1.2179,0.38672 -1.8496,0.38672 h -0.06445 c -1.656,0.095 -2.67,-0.449 -3.648,-1.436 -0.887,-0.895 -1.677,-2.215 -2.494,-3.66 0.716,-1.237 1.438,-2.372 2.262,-3.205 1.039,-1.052 2.172,-1.688 3.945,-1.688 z M 38,36 v 2 h -2 v 2 h 2 v 2 h 2 v -2 h 2 v -2 h -2 v -2 z m -16,2 v 2 h 6 v -2 z"
       id="path2875" />
  </g>
</svg>
