<?xml version="1.0" encoding="UTF-8" standalone="no"?>
<svg
   width="64"
   height="64"
   version="1"
   id="svg1514"
   sodipodi:docname="folder-orange-drag-accept.svg"
   inkscape:version="1.2.2 (b0a8486541, 2022-12-01)"
   xmlns:inkscape="http://www.inkscape.org/namespaces/inkscape"
   xmlns:sodipodi="http://sodipodi.sourceforge.net/DTD/sodipodi-0.dtd"
   xmlns:xlink="http://www.w3.org/1999/xlink"
   xmlns="http://www.w3.org/2000/svg"
   xmlns:svg="http://www.w3.org/2000/svg">
  <defs
     id="defs1518">
    <linearGradient
       inkscape:collect="always"
       xlink:href="#linearGradient1331"
       id="linearGradient720"
       gradientUnits="userSpaceOnUse"
       gradientTransform="translate(7.540702,12.487342)"
       x1="72.800003"
       y1="48.800144"
       x2="78.800003"
       y2="54.790291" />
    <linearGradient
       inkscape:collect="always"
       id="linearGradient1331">
      <stop
         style="stop-color:#000000;stop-opacity:0;"
         offset="0"
         id="stop1327" />
      <stop
         style="stop-color:#000000;stop-opacity:0.148;"
         offset="0.14867319"
         id="stop1337" />
      <stop
         style="stop-color:#000000;stop-opacity:0.132;"
         offset="0.44666761"
         id="stop1335" />
      <stop
         style="stop-color:#ffffff;stop-opacity:0.048;"
         offset="0.80090499"
         id="stop1329" />
    </linearGradient>
  </defs>
  <sodipodi:namedview
     id="namedview1516"
     pagecolor="#505050"
     bordercolor="#eeeeee"
     borderopacity="1"
     inkscape:showpageshadow="0"
     inkscape:pageopacity="0"
     inkscape:pagecheckerboard="0"
     inkscape:deskcolor="#505050"
     showgrid="false"
     inkscape:zoom="12.015625"
     inkscape:cx="31.958388"
     inkscape:cy="32.041612"
     inkscape:current-layer="svg1514" />
  <g
     id="g1694"
     inkscape:label="folder drag"
     transform="translate(-26.340702,-10.777633)">
    <path
       style="display:inline;fill:#da670b;fill-opacity:1"
       d="m 30.340702,56.477633 c 0,1.551 1.2488,2.8 2.8,2.8 h 50.4 c 1.551,0 2.8,-1.249 2.8,-2.8 v -30.4 c 0,-1.551 -1.249,-2.8 -2.8,-2.8 h -25.2 c -4.2,0 -5.6,-6 -9.8,-6 h -15.4 c -1.5512,0 -2.8,1.2488 -2.8,2.8"
       id="path4-3" />
    <path
       id="rect2-6"
       style="display:inline;opacity:0.2;stroke-width:0.917663"
       d="m 33.141483,36.277633 c -1.551198,0 -2.800781,1.052281 -2.800781,2.358553 v 1.684209 23.914476 1.684209 c 0,1.306272 1.249583,2.358553 2.800781,2.358553 h 50.398438 c 1.551198,0 2.800781,-1.052281 2.800781,-2.358553 V 64.234871 40.320395 38.636186 c 0,-1.306272 -1.249583,-2.358553 -2.800781,-2.358553 z" />
    <path
       id="rect10-5"
       style="display:inline;fill:#ff7800;stroke-width:0.917663"
       d="m 33.140702,37.119739 h 50.4 c 1.5512,0 2.8,1.05162 2.8,2.357894 v 25.6 c 0,1.306274 -1.2488,2.357894 -2.8,2.357894 h -50.4 c -1.5512,0 -2.8,-1.05162 -2.8,-2.357894 v -25.6 c 0,-1.306274 1.2488,-2.357894 2.8,-2.357894 z"
       sodipodi:nodetypes="sssssssss" />
    <path
       style="display:inline;opacity:0.1;fill:#ffffff"
       d="m 33.141502,17.277633 c -1.5512,0 -2.8008,1.2496 -2.8008,2.8008 v 1.0002 c 0,-1.5514 1.2496,-2.801 2.8008,-2.801 h 15.3982 c 4.2,0 5.601,6 9.801,6 h 25.199 c 1.551,0 2.801,1.25 2.801,2.801 v -1 c 0,-1.551 -1.25,-2.801 -2.801,-2.801 h -25.199 c -4.2,0 -5.601,-6 -9.801,-6 z"
       id="path12-3" />
    <path
       d="m 83.540702,67.287342 c 1.5512,0 2.8,-1.2488 2.8,-2.8 v -9.199709 l -12,11.999709 z"
       style="display:inline;fill:url(#linearGradient720);fill-opacity:1"
       id="path1208-5"
       sodipodi:nodetypes="ccccc" />
  </g>
</svg>
