<?xml version="1.0" encoding="UTF-8" standalone="no"?>
<svg
   width="64"
   height="64"
   viewBox="0 0 16.933 16.933"
   version="1.1"
   id="svg39"
   sodipodi:docname="utilities-system-monitor.svg"
   inkscape:version="1.3.2 (091e20ef0f, 2023-11-25)"
   xmlns:inkscape="http://www.inkscape.org/namespaces/inkscape"
   xmlns:sodipodi="http://sodipodi.sourceforge.net/DTD/sodipodi-0.dtd"
   xmlns:xlink="http://www.w3.org/1999/xlink"
   xmlns="http://www.w3.org/2000/svg"
   xmlns:svg="http://www.w3.org/2000/svg">
  <sodipodi:namedview
     id="namedview41"
     pagecolor="#505050"
     bordercolor="#eeeeee"
     borderopacity="1"
     inkscape:showpageshadow="0"
     inkscape:pageopacity="0"
     inkscape:pagecheckerboard="0"
     inkscape:deskcolor="#505050"
     showgrid="false"
     inkscape:zoom="4.248165"
     inkscape:cx="71.913403"
     inkscape:cy="4.5902172"
     inkscape:current-layer="svg39" />
  <defs
     id="defs17">
    <linearGradient
       inkscape:collect="always"
       id="linearGradient1832">
      <stop
         style="stop-color:#ffffff;stop-opacity:1;"
         offset="0"
         id="stop1828" />
      <stop
         style="stop-color:#ffffff;stop-opacity:0.25106382;"
         offset="1"
         id="stop1830" />
    </linearGradient>
    <linearGradient
       id="b"
       x1="32"
       x2="53.891"
       y1="43.543"
       y2="43.543"
       gradientTransform="matrix(0.26458,0,0,0.26458,0.01435938,0.12043774)"
       gradientUnits="userSpaceOnUse">
      <stop
         stop-color="#b9c0ff"
         offset="0"
         id="stop2" />
      <stop
         stop-color="#7380ff"
         offset="1"
         id="stop4" />
    </linearGradient>
    <linearGradient
       id="a"
       x1="10"
       x2="53.891"
       y1="32"
       y2="32"
       gradientTransform="matrix(0.26525074,0,0,0.26458995,-0.00692665,-3.1813129e-4)"
       gradientUnits="userSpaceOnUse">
      <stop
         stop-color="#fff"
         offset="0"
         id="stop7" />
      <stop
         stop-color="#fff"
         stop-opacity="0"
         offset="1"
         id="stop9" />
    </linearGradient>
    <linearGradient
       id="c"
       x1="32"
       x2="32"
       y1="32"
       y2="6"
       gradientTransform="scale(.26458)"
       gradientUnits="userSpaceOnUse">
      <stop
         stop-color="#fff"
         offset="0"
         id="stop12" />
      <stop
         stop-color="#fff"
         offset="1"
         id="stop14" />
    </linearGradient>
    <linearGradient
       inkscape:collect="always"
       xlink:href="#linearGradient1832"
       id="linearGradient1834"
       x1="-13.245968"
       y1="3.1725292"
       x2="-1.6045305"
       y2="14.813967"
       gradientUnits="userSpaceOnUse"
       gradientTransform="translate(15.891749,-0.52674778)" />
    <clipPath
       clipPathUnits="userSpaceOnUse"
       id="clipPath2069">
      <circle
         cx="11.997773"
         cy="11.99983"
         opacity="0.25"
         id="circle2071"
         style="fill:#444c98;fill-opacity:1;stroke-width:3.77942"
         r="22" />
    </clipPath>
    <mask
       maskUnits="userSpaceOnUse"
       id="mask2134">
      <path
         id="path2136"
         style="fill:url(#linearGradient2138);fill-opacity:1;stroke-width:3.77942"
         d="m 11.997774,-10.000169 a 22,22 0 0 0 -22,22 22,22 0 0 0 22,22.000001 22,22 0 0 0 22.000001,-22.000001 22,22 0 0 0 -22.000001,-22 z m 0,1.9999998 A 20,20 0 0 1 31.997776,11.999831 20,20 0 0 1 11.997774,31.999829 20,20 0 0 1 -8.0022271,11.999831 20,20 0 0 1 11.997774,-8.0001692 Z" />
    </mask>
    <linearGradient
       inkscape:collect="always"
       xlink:href="#linearGradient1832"
       id="linearGradient2138"
       gradientUnits="userSpaceOnUse"
       gradientTransform="matrix(3.7796021,0,0,3.7796021,40.06226,-21.991067)"
       x1="-13.245968"
       y1="3.1725292"
       x2="-1.6045305"
       y2="14.813967" />
    <clipPath
       clipPathUnits="userSpaceOnUse"
       id="clipPath2172">
      <circle
         cx="8.4665003"
         cy="8.4665003"
         opacity="0.25"
         id="circle2174"
         style="opacity:1;fill:#984444;fill-opacity:1;stroke-width:0.909032"
         r="5.2915626" />
    </clipPath>
  </defs>
  <circle
     cx="8.4665003"
     cy="8.4665003"
     fill="#5b65cb"
     fill-rule="evenodd"
     id="circle19"
     style="stroke-width:0.999946"
     r="7.1436095" />
  <g
     fill-rule="evenodd"
     id="g37">
    <circle
       cx="8.4665003"
       cy="8.4665003"
       opacity="0.25"
       id="circle23"
       style="stroke-width:0.999952;opacity:1;fill:#444c98;fill-opacity:1"
       r="5.8207188" />
    <path
       id="circle23-3"
       style="opacity:1;fill:url(#linearGradient1834);fill-opacity:1;stroke-width:0.999952"
       d="M 8.4665003,2.6457815 A 5.8207188,5.8207188 0 0 0 2.6457815,8.4665003 5.8207188,5.8207188 0 0 0 8.4665003,14.287219 5.8207188,5.8207188 0 0 0 14.287219,8.4665003 5.8207188,5.8207188 0 0 0 8.4665003,2.6457815 Z m 0,0.5291563 A 5.2915626,5.2915626 0 0 1 13.758063,8.4665003 5.2915626,5.2915626 0 0 1 8.4665003,13.758062 5.2915626,5.2915626 0 0 1 3.1749375,8.4665003 5.2915626,5.2915626 0 0 1 8.4665003,3.1749378 Z" />
  </g>
  <g
     id="g2170"
     clip-path="url(#clipPath2172)">
    <path
       d="m 9.6899097,6.1866658 c -0.1439312,-0.3468204 -0.613822,-0.3468204 -0.757752,0 L 7.6198501,9.3539527 7.1499593,8.2267863 C 7.0779941,8.0533758 6.9340637,7.9462695 6.7732001,7.9462695 H 3.1749375 v 1.0200603 h 3.3358012 l 0.728119,1.7596032 c 0.076198,0.173411 0.2201288,0.280517 0.3809924,0.280517 0.1608636,0 0.304794,-0.107106 0.3767592,-0.280517 L 9.3131497,7.5586469 9.7830405,8.6858131 c 0.071966,0.1734104 0.2158964,0.2805167 0.3767605,0.2805167 h 3.598261 V 7.9462695 h -3.3358 z"
       id="path278"
       style="fill:#ffffff;fill-opacity:1;stroke-width:0.464658"
       sodipodi:nodetypes="ccccsccccscccscccc" />
  </g>
</svg>
