<?xml version="1.0" encoding="UTF-8" standalone="no"?>
<svg
   inkscape:version="1.2.2 (b0a8486541, 2022-12-01)"
   sodipodi:docname="apex legends.svg"
   id="svg12"
   version="1.1"
   viewBox="0 0 16.933 16.933"
   height="64"
   width="64"
   xml:space="preserve"
   xmlns:inkscape="http://www.inkscape.org/namespaces/inkscape"
   xmlns:sodipodi="http://sodipodi.sourceforge.net/DTD/sodipodi-0.dtd"
   xmlns="http://www.w3.org/2000/svg"
   xmlns:svg="http://www.w3.org/2000/svg"><defs
     id="defs16"><linearGradient
       id="linearGradient1229"
       inkscape:swatch="solid"><stop
         style="stop-color:#000000;stop-opacity:1;"
         offset="0"
         id="stop1227" /></linearGradient><rect
       x="4.4382802"
       y="5.592233"
       width="31.334258"
       height="14.401861"
       id="rect2126" /><rect
       x="4.4382801"
       y="5.5922332"
       width="31.334257"
       height="14.401861"
       id="rect2126-3" /></defs><sodipodi:namedview
     id="namedview14"
     pagecolor="#505050"
     bordercolor="#eeeeee"
     borderopacity="1"
     inkscape:showpageshadow="0"
     inkscape:pageopacity="0"
     inkscape:pagecheckerboard="0"
     inkscape:deskcolor="#505050"
     showgrid="false"
     inkscape:zoom="7.9659998"
     inkscape:cx="23.600302"
     inkscape:cy="25.232238"
     inkscape:window-width="1920"
     inkscape:window-height="972"
     inkscape:window-x="0"
     inkscape:window-y="0"
     inkscape:window-maximized="1"
     inkscape:current-layer="svg12" /><g
     aria-label="{"
     transform="matrix(0.31582349,0,0,0.31582349,3.3165659,0.99650058)"
     id="text5907"
     style="white-space:pre;shape-inside:url(#rect2126);display:inline;fill:#ffffff;stroke:#e68900;stroke-width:1.67548098;stroke-opacity:1;stroke-dasharray:none;paint-order:markers stroke fill" /><g
     inkscape:label="Calque 1"
     id="layer1"
     transform="matrix(0.99998031,0,0,0.99998031,-96.531433,-140.03058)"><path
       d="m 105,141.35625 c 3.94547,0 7.14375,3.19828 7.14375,7.14375 0,3.94546 -3.19855,7.14375 -7.14375,7.14375 -3.9452,0 -7.143749,-3.19855 -7.143749,-7.14375 0,-3.94521 3.198279,-7.14375 7.143749,-7.14375 z"
       fill="#b89961"
       id="path76"
       style="mix-blend-mode:normal;fill:#e30613;fill-opacity:1;stroke-width:0.264583" /><circle
       style="fill:#454545;fill-opacity:1;stroke:#e68900;stroke-width:0;stroke-dasharray:none;paint-order:markers stroke fill"
       id="path996"
       cx="105"
       cy="148.5"
       r="5.6152482" /><g
       id="g317"
       transform="matrix(0.00768079,0,0,-0.00768079,105,144.14478)"
       style="fill:#e30613;fill-opacity:1"><path
         d="M 0,0 515.151,-878.788 363.637,-1000 74.616,-803.071 H 242.301 L 0,-378.788 -241.527,-803.071 H -75.652 L -363.636,-1000 -515.151,-878.788 Z"
         style="fill:#e30613;fill-opacity:1;fill-rule:nonzero;stroke:none"
         id="path319" /></g></g></svg>
