<?xml version="1.0" encoding="UTF-8" standalone="no"?>
<svg
   inkscape:version="1.2.2 (b0a8486541, 2022-12-01)"
   sodipodi:docname="decoder.svg"
   id="svg12"
   version="1.1"
   viewBox="0 0 16.933 16.933"
   height="64"
   width="64"
   xmlns:inkscape="http://www.inkscape.org/namespaces/inkscape"
   xmlns:sodipodi="http://sodipodi.sourceforge.net/DTD/sodipodi-0.dtd"
   xmlns="http://www.w3.org/2000/svg"
   xmlns:svg="http://www.w3.org/2000/svg">
  <defs
     id="defs16">
    <linearGradient
       id="linearGradient1229"
       inkscape:swatch="solid">
      <stop
         style="stop-color:#000000;stop-opacity:1;"
         offset="0"
         id="stop1227" />
    </linearGradient>
    <rect
       x="4.4382802"
       y="5.592233"
       width="31.334258"
       height="14.401861"
       id="rect2126" />
    <rect
       x="4.4382801"
       y="5.5922332"
       width="31.334257"
       height="14.401861"
       id="rect2126-3" />
    <clipPath
       id="h">
      <rect
         height="152"
         width="192"
         id="rect274"
         x="0"
         y="0" />
    </clipPath>
    <mask
       id="f">
      <g
         filter="url(#c)"
         id="g266">
        <rect
           fill-opacity="0.8"
           height="128"
           width="128"
           id="rect264"
           x="0"
           y="0" />
      </g>
    </mask>
    <filter
       id="c"
       height="1"
       width="1"
       x="0"
       y="0">
      <feColorMatrix
         in="SourceGraphic"
         type="matrix"
         values="0 0 0 0 1 0 0 0 0 1 0 0 0 0 1 0 0 0 1 0"
         id="feColorMatrix253" />
    </filter>
    <linearGradient
       id="g"
       gradientTransform="matrix(0,-0.689655,1.529413,0,442.11801,48.965483)"
       gradientUnits="userSpaceOnUse"
       x1="-65.300034"
       x2="-21.800039"
       y1="-242.00003"
       y2="-242.00003">
      <stop
         offset="0"
         stop-color="#ed333b"
         stop-opacity="0.9"
         id="stop269" />
      <stop
         offset="1"
         stop-color="#ed333b"
         stop-opacity="0"
         id="stop271" />
    </linearGradient>
    <clipPath
       id="e">
      <rect
         height="152"
         width="192"
         id="rect261"
         x="0"
         y="0" />
    </clipPath>
    <mask
       id="d">
      <g
         filter="url(#c)"
         id="g258">
        <rect
           fill-opacity="0.5"
           height="128"
           width="128"
           id="rect256"
           x="0"
           y="0" />
      </g>
    </mask>
    <filter
       id="filter557"
       height="1"
       width="1"
       x="0"
       y="0">
      <feColorMatrix
         in="SourceGraphic"
         type="matrix"
         values="0 0 0 0 1 0 0 0 0 1 0 0 0 0 1 0 0 0 1 0"
         id="feColorMatrix555" />
    </filter>
    <clipPath
       id="b">
      <path
         d="M 12,3.007812 H 115.98047 V 128 H 12 Z m 0,0"
         id="path250" />
    </clipPath>
    <linearGradient
       id="a"
       gradientTransform="matrix(0.02834767,0,0,0.0401687,-0.39486161,32.015925)"
       gradientUnits="userSpaceOnUse"
       x1="88.595886"
       x2="536.59589"
       y1="-449.39401"
       y2="-449.39401">
      <stop
         offset="0"
         stop-color="#c0bfbc"
         id="stop237" />
      <stop
         offset="0.0384615"
         stop-color="#deddda"
         id="stop239" />
      <stop
         offset="0.0768555"
         stop-color="#c0bfbc"
         id="stop241" />
      <stop
         offset="0.923077"
         stop-color="#c0bfbc"
         id="stop243" />
      <stop
         offset="0.961538"
         stop-color="#deddda"
         id="stop245" />
      <stop
         offset="1"
         stop-color="#c0bfbc"
         id="stop247" />
    </linearGradient>
  </defs>
  <sodipodi:namedview
     id="namedview14"
     pagecolor="#505050"
     bordercolor="#eeeeee"
     borderopacity="1"
     inkscape:showpageshadow="0"
     inkscape:pageopacity="0"
     inkscape:pagecheckerboard="0"
     inkscape:deskcolor="#505050"
     showgrid="false"
     inkscape:zoom="5.6568543"
     inkscape:cx="10.783378"
     inkscape:cy="19.79899"
     inkscape:window-width="1920"
     inkscape:window-height="972"
     inkscape:window-x="0"
     inkscape:window-y="0"
     inkscape:window-maximized="1"
     inkscape:current-layer="svg12" />
  <circle
     cx="8.4664993"
     cy="8.4664993"
     fill="#32a3d7"
     style="fill:#fffefe;fill-opacity:1;stroke-width:0.999946;paint-order:stroke fill markers;stroke:none;stroke-opacity:1"
     id="circle2"
     r="7.1436095" />
  <g
     id="g1210"
     transform="matrix(0.92857128,0,0,0.92857128,0.60475054,1.6227143)">
    <path
       d="m 3.0935291,8.5913625 h 3.9076157 v 3.9076145 h -2.930712 c -0.5700028,0 -0.9769037,-0.408404 -0.9769037,-0.976904 z"
       fill="#3d3846"
       id="path283"
       style="stroke-width:0.122114"
       sodipodi:nodetypes="cccccc" />
    <path
       d="m 4.0704328,2.2414855 h 2.930712 v 3.907615 H 3.0935291 v -2.93071 c 0,-0.5704322 0.4079685,-0.976905 0.9769037,-0.976905 z"
       fill="#3d3846"
       id="path285"
       style="stroke-width:0.122114"
       sodipodi:nodetypes="cccccc" />
    <path
       d="m 9.9318561,2.2414855 h 2.9307099 c 0.570556,0 0.976905,0.408293 0.976905,0.976905 v 2.93071 H 9.9318561 Z"
       fill="#3d3846"
       id="path287"
       style="stroke-width:0.122114"
       sodipodi:nodetypes="cccccc" />
    <path
       d="m 4.0704328,3.2183905 h 1.9538079 v 1.953807 H 4.0704328 Z m 0,0"
       fill="#f6f5f4"
       id="path289"
       style="stroke-width:0.122114" />
    <path
       d="m 4.5588848,3.7068405 h 0.9769038 v 0.976905 H 4.5588848 Z m 0,0"
       fill="#3d3846"
       id="path291"
       style="stroke-width:0.122114" />
    <path
       d="m 10.908759,3.2183905 h 1.953807 v 1.953807 h -1.953807 z m 0,0"
       fill="#f6f5f4"
       id="path293"
       style="stroke-width:0.122114" />
    <path
       d="m 11.397212,3.7068405 h 0.976904 v 0.976905 h -0.976904 z m 0,0"
       fill="#3d3846"
       id="path295"
       style="stroke-width:0.122114" />
    <path
       d="M 4.0704328,9.5682665 H 6.0242407 V 11.522073 H 4.0704328 Z m 0,0"
       fill="#f6f5f4"
       id="path297"
       style="stroke-width:0.122114" />
    <g
       fill="#3d3846"
       id="g395"
       transform="matrix(0.12211297,0,0,0.12211297,0.65126954,-0.20077445)">
      <path
         d="m 32,84 h 8 v 8 h -8 z m 0,0"
         id="path299" />
      <path
         d="m 20,56 h 4 v 4 h -4 z m 0,0"
         id="path301" />
      <path
         d="m 24,60 h 8 v 8 h -8 z m 0,0"
         id="path303" />
      <path
         d="m 32,56 h 8 v 4 h -8 z m 0,0"
         id="path305" />
      <path
         d="m 44,60 h 8 v 8 h -8 z m 0,0"
         id="path307" />
      <path
         d="m 56,60 h 20 v 8 H 56 Z m 0,0"
         id="path309" />
      <path
         d="m 36,64 h 4 v 4 h -4 z m 0,0"
         id="path311" />
      <path
         d="m 40,60 h 4 v 4 h -4 z m 0,0"
         id="path313" />
      <path
         d="m 52,60 h 4 v 4 h -4 z m 0,0"
         id="path315" />
      <path
         d="m 56,56 h 4 v 4 h -4 z m 0,0"
         id="path317" />
      <path
         d="m 60,52 h 4 v 4 h -4 z m 0,0"
         id="path319" />
      <path
         d="m 64,56 h 8 v 4 h -8 z m 0,0"
         id="path321" />
      <path
         d="m 56,44 h 16 v 8 H 56 Z m 0,0"
         id="path323" />
      <path
         d="m 60,72 h 12 v 4 H 60 Z m 0,0"
         id="path325" />
      <path
         d="m 56,100 h 16 v 4 H 56 Z m 0,0"
         id="path327" />
      <path
         d="m 56,76 h 8 v 12 h -8 z m 0,0"
         id="path329" />
      <path
         d="m 64,20 h 8 v 12 h -8 z m 0,0"
         id="path331" />
      <path
         d="m 60,32 h 4 v 4 h -4 z m 0,0"
         id="path333" />
      <path
         d="m 64,36 h 4 v 4 h -4 z m 0,0"
         id="path335" />
      <path
         d="m 56,40 h 4 v 4 h -4 z m 0,0"
         id="path337" />
      <path
         d="m 56,24 h 12 v 4 H 56 Z m 0,0"
         id="path339" />
      <path
         d="M 80,64 H 92 V 60 H 80 Z m 0,0"
         id="path341" />
      <path
         d="m 84,60 h 4 v -4 h -4 z m 0,0"
         id="path343" />
      <path
         d="m 88,76 h 12 V 72 H 88 Z m 0,0"
         id="path345" />
      <path
         d="m 80,68 h 4 v -4 h -4 z m 0,0"
         id="path347" />
      <path
         d="m 76,60 h 4 v -4 h -4 z m 0,0"
         id="path349" />
      <path
         d="m 96,56 h 8 v 8 h -8 z m 0,0"
         id="path351" />
      <path
         d="m 72,76 h 16 v 4 H 72 Z m 0,0"
         id="path353" />
      <path
         d="m 80,76 h 4 v -4 h -4 z m 0,0"
         id="path355" />
      <path
         d="m 76,72 h 4 v -4 h -4 z m 0,0"
         id="path357" />
      <path
         d="M 80,84 H 92 V 96 H 80 Z m 0,0"
         id="path359" />
      <path
         d="m 72,96 h 4 v 4 h -4 z m 0,0"
         id="path361" />
      <path
         d="m 68,92 h 4 v -4 h -4 z m 0,0"
         id="path363" />
      <path
         d="m 64,88 h 4 v -4 h -4 z m 0,0"
         id="path365" />
      <path
         d="m 56,92 h 4 v 4 h -4 z m 0,0"
         id="path367" />
      <path
         d="m 62,96 h 4 v 4 h -4 z m 0,0"
         id="path369" />
      <path
         d="m 80,100 h 8 v 4 h -8 z m 0,0"
         id="path371" />
      <path
         d="m 56,68 h 4 v 4 h -4 z m 0,0"
         id="path373" />
      <path
         d="m 104,80 h 4 v -4 h -4 z m 0,0"
         id="path375" />
      <path
         d="m 104,72 h 4 v -4 h -4 z m 0,0"
         id="path377" />
      <path
         d="m 92,96 h 4 v -4 h -4 z m 0,0"
         id="path379" />
      <path
         d="m 96,92 h 4 v -4 h -4 z m 0,0"
         id="path381" />
      <path
         d="m 88,84 h 4 v 16 h -4 z m 0,0"
         id="path383" />
      <path
         d="m 96,96 h 12 v 0 c 0,4.67486 -3.32996,8 -8,8 h -4 z"
         id="path385"
         sodipodi:nodetypes="cccccc" />
      <path
         d="m 104,96 h 4 v -4 h -4 z m 0,0"
         id="path387" />
      <path
         d="m 92,88 h 4 v -8 h -4 z m 0,0"
         id="path389" />
      <path
         d="m 100,88 h 4 V 76 h -4 z m 0,0"
         id="path391" />
      <path
         d="m 92,104 h 4 v -4 h -4 z m 0,0"
         id="path393" />
    </g>
    <g
       clip-path="url(#e)"
       mask="url(#d)"
       transform="matrix(0.12211297,0,0,0.12211297,-0.32563451,-2.1545795)"
       id="g403">
      <path
         d="m 100,96 v 4 H 40 v -4 z m 0,0"
         fill="#ffffff"
         id="path401" />
    </g>
    <g
       clip-path="url(#h)"
       mask="url(#f)"
       transform="matrix(0.12211297,0,0,0.12211297,-0.32563451,-2.1545795)"
       id="g407">
      <path
         d="M 20,100 V 60 h 104 v 40 z m 0,0"
         fill="url(#g)"
         id="path405"
         style="fill:url(#g)" />
    </g>
    <path
       d="M 2.1166252,10.056717 H 14.816374 V 9.5682665 H 2.1166252 Z m 0,0"
       fill="#fccbc5"
       id="path409"
       style="stroke-width:0.122114" />
  </g>
</svg>
