<?xml version="1.0" encoding="UTF-8" standalone="no"?>
<svg
   inkscape:version="1.2.2 (b0a8486541, 2022-12-01)"
   sodipodi:docname="io.elementary.code.svg"
   id="svg12"
   version="1.1"
   viewBox="0 0 16.933 16.933"
   height="64"
   width="64"
   xmlns:inkscape="http://www.inkscape.org/namespaces/inkscape"
   xmlns:sodipodi="http://sodipodi.sourceforge.net/DTD/sodipodi-0.dtd"
   xmlns="http://www.w3.org/2000/svg"
   xmlns:svg="http://www.w3.org/2000/svg">
  <defs
     id="defs16">
    <linearGradient
       id="linearGradient1229"
       inkscape:swatch="solid">
      <stop
         style="stop-color:#000000;stop-opacity:1;"
         offset="0"
         id="stop1227" />
    </linearGradient>
    <rect
       x="4.4382802"
       y="5.592233"
       width="31.334258"
       height="14.401861"
       id="rect2126" />
    <rect
       x="4.4382801"
       y="5.5922332"
       width="31.334257"
       height="14.401861"
       id="rect2126-3" />
  </defs>
  <sodipodi:namedview
     id="namedview14"
     pagecolor="#505050"
     bordercolor="#eeeeee"
     borderopacity="1"
     inkscape:showpageshadow="0"
     inkscape:pageopacity="0"
     inkscape:pagecheckerboard="0"
     inkscape:deskcolor="#505050"
     showgrid="false"
     inkscape:zoom="11.265625"
     inkscape:cx="55.212205"
     inkscape:cy="24.854369"
     inkscape:window-width="1920"
     inkscape:window-height="972"
     inkscape:window-x="0"
     inkscape:window-y="0"
     inkscape:window-maximized="1"
     inkscape:current-layer="svg12" />
  <circle
     cx="8.4664993"
     cy="8.4664993"
     fill="#32a3d7"
     style="fill:#c77305;fill-opacity:1;stroke-width:0.999946;paint-order:stroke fill markers"
     id="circle2"
     r="7.1436095" />
  <g
     id="g1256">
    <circle
       style="display:inline;opacity:1;fill:#e58900;fill-opacity:1;stroke:none;stroke-width:0.105664;stroke-linecap:round;stroke-opacity:1;paint-order:stroke markers fill"
       id="path903"
       cx="8.4664993"
       cy="8.4664993"
       r="6.6144533" />
    <g
       fill-rule="evenodd"
       id="g10"
       transform="matrix(0.99994531,0,0,0.99994531,9.6337028e-4,9.6337028e-4)">
      <path
         d="m 5.894499,2.379999 a 6.614,6.614 0 0 0 -0.556,0.265 h 6.264 a 6.614,6.614 0 0 0 -0.548,-0.265 z m -1.926,1.244 a 6.614,6.614 0 0 0 -0.342,0.346 h 0.077 v 1.057 h -0.877 a 6.614,6.614 0 0 0 -0.163,0.265 h 1.04 v 1.058 h -1.498 a 6.614,6.614 0 0 0 -0.085,0.265 h 1.583 v 1.058 h -1.799 a 6.614,6.614 0 0 0 -0.027,0.265 h 1.826 v 1.058 h -1.828 a 6.614,6.614 0 0 0 0.032,0.264 h 1.796 v 1.06 h -1.583 a 6.614,6.614 0 0 0 0.088,0.263 h 1.495 v 1.06 h -1.032 a 6.614,6.614 0 0 0 0.151,0.263 h 0.881 v 1.059 h -0.079 a 6.614,6.614 0 0 0 0.344,0.34 v -0.076 h 9.086 a 6.614,6.614 0 0 0 0.25,-0.264 h -9.337 v -1.059 h 10.137 a 6.614,6.614 0 0 0 0.163,-0.264 h -10.3 v -1.059 h 10.757 a 6.614,6.614 0 0 0 0.086,-0.264 h -10.842 v -1.059 h 11.059 a 6.614,6.614 0 0 0 0.027,-0.264 h -11.086 v -1.058 h 11.088 a 6.614,6.614 0 0 0 -0.032,-0.265 h -11.055 v -1.058 h 10.844 a 6.614,6.614 0 0 0 -0.089,-0.265 h -10.755 v -1.06 h 10.292 a 6.614,6.614 0 0 0 -0.152,-0.265 h -10.141 v -1.057 h 9.34 a 6.614,6.614 0 0 0 -0.264,-0.265 h -9.076 z m 1.361,10.664 a 6.614,6.614 0 0 0 0.545,0.264 h 5.166 a 6.614,6.614 0 0 0 0.553,-0.264 z"
         fill="#ffffff"
         fill-opacity="0.3"
         id="path4" />
    </g>
    <g
       aria-label="{"
       transform="matrix(0.31580622,0,0,0.31580622,3.3173479,0.99740946)"
       id="text5907"
       style="white-space:pre;shape-inside:url(#rect2126);display:inline;fill:#ffffff;stroke:#e68900;stroke-width:1.67548;stroke-dasharray:none;stroke-opacity:1;paint-order:markers stroke fill"
       inkscape:label="text5907">
      <path
         d="m 8.6135,18.406299 q -0.732,-0.012 -1.272,-0.216 -0.528,-0.204 -0.816,-0.636 -0.288,-0.42 -0.288,-1.056 v -1.764 q 0,-0.408 -0.168,-0.648 -0.168,-0.252 -0.492,-0.36 -0.324,-0.12 -0.804,-0.12 v -0.876 q 0.48,-0.012 0.804,-0.12 0.324,-0.108 0.492,-0.348 0.168,-0.252 0.168,-0.648 V 9.8382991 q 0,-0.636 0.3,-1.056 0.3,-0.42 0.84,-0.624 0.54,-0.216 1.236,-0.216 v 0.864 q -0.408,0.012 -0.708,0.132 -0.3,0.12 -0.468,0.36 -0.156,0.24 -0.156,0.636 v 1.7279999 q 0,0.612 -0.324,0.984 -0.324,0.36 -0.984,0.48 v 0.072 q 0.672,0.12 0.984,0.492 0.324,0.36 0.324,0.972 v 1.764 q 0,0.384 0.156,0.624 0.156,0.252 0.456,0.36 0.3,0.12 0.72,0.132 z"
         id="path1031"
         style="white-space:pre;shape-inside:url(#rect2126-3);display:inline;fill:#ffffff;stroke:#e68900;stroke-width:1.67548;stroke-dasharray:none;stroke-opacity:1;paint-order:markers stroke fill"
         transform="matrix(-1,0,0,1,35.060543,20.953974)" />
      <path
         d="m 8.6135,18.406299 q -0.732,-0.012 -1.272,-0.216 -0.528,-0.204 -0.816,-0.636 -0.288,-0.42 -0.288,-1.056 v -1.764 q 0,-0.408 -0.168,-0.648 -0.168,-0.252 -0.492,-0.36 -0.324,-0.12 -0.804,-0.12 v -0.876 q 0.48,-0.012 0.804,-0.12 0.324,-0.108 0.492,-0.348 0.168,-0.252 0.168,-0.648 V 9.8382991 q 0,-0.636 0.3,-1.056 0.3,-0.42 0.84,-0.624 0.54,-0.216 1.236,-0.216 v 0.864 q -0.408,0.012 -0.708,0.132 -0.3,0.12 -0.468,0.36 -0.156,0.24 -0.156,0.636 v 1.7279999 q 0,0.612 -0.324,0.984 -0.324,0.36 -0.984,0.48 v 0.072 q 0.672,0.12 0.984,0.492 0.324,0.36 0.324,0.972 v 1.764 q 0,0.384 0.156,0.624 0.156,0.252 0.456,0.36 0.3,0.12 0.72,0.132 z"
         id="path1028"
         style="stroke:#e68900;stroke-width:1.67548;stroke-dasharray:none;stroke-opacity:1;paint-order:markers stroke fill" />
    </g>
  </g>
</svg>
