<?xml version="1.0" encoding="UTF-8" standalone="no"?>
<svg
   width="64"
   height="64"
   version="1.1"
   viewBox="0 0 16.933 16.933"
   id="svg16"
   sodipodi:docname="minecraft-alt.svg"
   inkscape:version="1.2.2 (b0a8486541, 2022-12-01)"
   xmlns:inkscape="http://www.inkscape.org/namespaces/inkscape"
   xmlns:sodipodi="http://sodipodi.sourceforge.net/DTD/sodipodi-0.dtd"
   xmlns="http://www.w3.org/2000/svg"
   xmlns:svg="http://www.w3.org/2000/svg">
  <defs
     id="defs20" />
  <sodipodi:namedview
     id="namedview18"
     pagecolor="#505050"
     bordercolor="#eeeeee"
     borderopacity="1"
     inkscape:showpageshadow="0"
     inkscape:pageopacity="0"
     inkscape:pagecheckerboard="0"
     inkscape:deskcolor="#505050"
     showgrid="false"
     inkscape:zoom="6.0078125"
     inkscape:cx="51.26658"
     inkscape:cy="35.786736"
     inkscape:current-layer="svg16" />
  <g
     transform="matrix(0.46300456,0,0,0.45356497,-6.3495321,-6.0473234)"
     fill-rule="evenodd"
     id="g14">
    <path
       id="path4"
       d="m 26.447836,18.324617 c -4.745321,0.0082 -9.044974,2.872828 -10.896208,7.287375 l 9.574197,16.555229 c 0.438935,0.04999 0.880296,0.07512 1.322011,0.07526 0.441715,-1.45e-4 0.883076,-0.02527 1.322011,-0.07526 l 9.506379,-16.713035 c -1.858742,-4.410221 -6.084068,-7.128917 -10.82839,-7.129569 z"
       transform="matrix(1.3035,0,0,1.317,-2.475,-7.884)"
       style="fill:#549a42;fill-opacity:1"
       sodipodi:nodetypes="ccccccc" />
    <path
       id="path6"
       d="m 18.595751,24.199674 c -0.664979,1.18741 -1.170524,2.458185 -1.513914,3.780253 l 14.916801,8.694126 0.0011,-4.671199 z"
       style="fill:#59a849;fill-opacity:1"
       sodipodi:nodetypes="ccccc" />
    <path
       id="path8"
       d="m 45.419878,24.186002 -13.420124,7.813434 v 4.666642 L 46.91378,27.964969 C 46.570653,26.64335 46.084381,25.373112 45.419878,24.186002 Z"
       style="fill:#458235;fill-opacity:1"
       sodipodi:nodetypes="ccccc" />
    <path
       id="path10"
       d="m 15.00379,27.229801 c -0.266205,0.995823 -0.386898,2.02226 -0.392402,3.05375 1e-6,6.604398 5.298837,11.958454 11.835592,11.958932 v -8.415545 z"
       transform="matrix(1.3035,0,0,1.317,-2.475,-7.884)"
       style="fill:#a97956;fill-opacity:1"
       sodipodi:nodetypes="ccccc" />
    <path
       id="path12"
       d="m 46.912931,27.965116 -14.913177,8.700962 v 11.083273 c 8.521097,-10e-7 15.42881,-7.051479 15.428809,-15.749916 -2.9e-4,-1.361875 -0.173612,-2.717958 -0.515632,-4.034319 z"
       style="fill:#7a523e;fill-opacity:1"
       sodipodi:nodetypes="ccccc" />
  </g>
</svg>
