<?xml version="1.0" encoding="UTF-8" standalone="no"?>
<svg
   width="64"
   height="64"
   viewBox="0 0 16.933 16.933"
   version="1.1"
   id="svg445"
   sodipodi:docname="console-orange.svg"
   inkscape:version="1.2.2 (b0a8486541, 2022-12-01)"
   xmlns:inkscape="http://www.inkscape.org/namespaces/inkscape"
   xmlns:sodipodi="http://sodipodi.sourceforge.net/DTD/sodipodi-0.dtd"
   xmlns="http://www.w3.org/2000/svg"
   xmlns:svg="http://www.w3.org/2000/svg">
  <sodipodi:namedview
     id="namedview447"
     pagecolor="#505050"
     bordercolor="#eeeeee"
     borderopacity="1"
     inkscape:showpageshadow="0"
     inkscape:pageopacity="0"
     inkscape:pagecheckerboard="0"
     inkscape:deskcolor="#505050"
     showgrid="false"
     inkscape:zoom="11.265625"
     inkscape:cx="41.897365"
     inkscape:cy="33.464633"
     inkscape:window-width="1920"
     inkscape:window-height="972"
     inkscape:window-x="0"
     inkscape:window-y="0"
     inkscape:window-maximized="1"
     inkscape:current-layer="svg445" />
  <defs
     id="defs435">
    <linearGradient
       id="a"
       x1="43"
       x2="49"
       y1="44"
       y2="50"
       gradientTransform="scale(.26458)"
       gradientUnits="userSpaceOnUse">
      <stop
         offset="0"
         id="stop430" />
      <stop
         stop-opacity="0"
         offset="1"
         id="stop432" />
    </linearGradient>
  </defs>
  <circle
     cx="8.4664993"
     cy="8.4664993"
     fill="#4d4d4d"
     style="stroke-width:0.999946;paint-order:stroke fill markers"
     id="circle437"
     r="7.1436095" />
  <rect
     x="5.821"
     y="9.525"
     width="4.233"
     height=".529"
     ry=".265"
     fill="#3faec7"
     style="paint-order:stroke markers fill;fill:#ff7800;fill-opacity:1"
     id="rect439" />
  <path
     d="M4.502 4.725a.264.264 0 0 0-.262.13.264.264 0 0 0 .097.362l2.842 1.64-2.842 1.641a.264.264 0 0 0-.097.362c.074.127.235.17.362.097l3.207-1.852a.26.26 0 0 0 .127-.225c.002-.008.001-.015.002-.022 0-.008 0-.015-.002-.023a.26.26 0 0 0-.127-.224L4.602 4.758a.266.266 0 0 0-.1-.033z"
     fill="#3faec7"
     style="paint-order:stroke markers fill;fill:#ff7800;fill-opacity:1"
     id="path441" />
  <path
     d="m15.582 9.024-6.563 6.562a7.144 7.144 0 0 0 6.563-6.562z"
     fill="url(#a)"
     opacity=".25"
     style="paint-order:stroke fill markers"
     id="path443" />
</svg>
