<?xml version="1.0" encoding="UTF-8" standalone="no"?>
<svg
   inkscape:version="1.2.2 (b0a8486541, 2022-12-01)"
   sodipodi:docname="prism launcher.svg"
   id="svg12"
   version="1.1"
   viewBox="0 0 16.933 16.933"
   height="64"
   width="64"
   xml:space="preserve"
   xmlns:inkscape="http://www.inkscape.org/namespaces/inkscape"
   xmlns:sodipodi="http://sodipodi.sourceforge.net/DTD/sodipodi-0.dtd"
   xmlns="http://www.w3.org/2000/svg"
   xmlns:svg="http://www.w3.org/2000/svg"><defs
     id="defs16"><linearGradient
       id="linearGradient1229"
       inkscape:swatch="solid"><stop
         style="stop-color:#000000;stop-opacity:1;"
         offset="0"
         id="stop1227" /></linearGradient><rect
       x="4.4382802"
       y="5.592233"
       width="31.334258"
       height="14.401861"
       id="rect2126" /><rect
       x="4.4382801"
       y="5.5922332"
       width="31.334257"
       height="14.401861"
       id="rect2126-3" /></defs><sodipodi:namedview
     id="namedview14"
     pagecolor="#505050"
     bordercolor="#eeeeee"
     borderopacity="1"
     inkscape:showpageshadow="0"
     inkscape:pageopacity="0"
     inkscape:pagecheckerboard="0"
     inkscape:deskcolor="#505050"
     showgrid="false"
     inkscape:zoom="7.9659998"
     inkscape:cx="40.798394"
     inkscape:cy="39.668593"
     inkscape:window-width="1920"
     inkscape:window-height="972"
     inkscape:window-x="0"
     inkscape:window-y="0"
     inkscape:window-maximized="1"
     inkscape:current-layer="svg12" /><g
     stroke-width="0.26458"
     id="g24"
     transform="matrix(1.3689675,0,0,1.3689178,-0.22758207,-0.2261126)"><path
       d="M 6.35,6.35"
       fill="#99cd61"
       id="path4" /><path
       id="path6"
       d="M 6.3510204,1.1315531 A 5.2183428,5.2183428 0 0 0 5.9943173,1.1451418 L 3.8291858,4.8948657 6.3498881,6.3499881 8.8702128,4.8948657 8.9781674,1.8419397 A 5.2183428,5.2183428 0 0 0 6.3510204,1.1315531 Z"
       style="fill:#df6277;fill-opacity:1" /><path
       id="path8"
       d="M 8.9589168,1.8306158 6.3498881,6.3499881 8.8702128,7.8051104 11.036477,4.0534992 A 5.2183428,5.2183428 0 0 0 8.9589168,1.8306158 Z"
       style="fill:#fb9168;fill-opacity:1" /><path
       id="path10"
       d="M 10.869638,3.7405819 6.3498881,6.3499881 8.8702128,7.8051104 11.568323,6.3715035 a 5.2183428,5.2183428 0 0 0 7.55e-4,-0.021515 5.2183428,5.2183428 0 0 0 -0.69944,-2.6094066 z"
       style="fill:#f3db6c;fill-opacity:1" /><path
       id="path12"
       d="M 6.3498881,6.3499881 V 9.2602328 H 10.680151 A 5.2183428,5.2183428 0 0 0 11.568323,6.3499881 Z"
       style="fill:#7ab392;fill-opacity:1" /><path
       id="path14"
       d="M 6.3498881,6.3499881 V 9.2602328 L 8.9392887,10.879552 A 5.2183428,5.2183428 0 0 0 10.86926,8.9590168 Z"
       style="fill:#4b7cbc;fill-opacity:1" /><path
       id="path16"
       d="M 6.3498881,6.3499881 3.8291858,7.8051104 5.9943173,11.554834 a 5.2183428,5.2183428 0 0 0 0.3567031,0.01359 5.2183428,5.2183428 0 0 0 2.6082739,-0.698685 z"
       style="fill:#6f488c;fill-opacity:1" /><path
       id="path18"
       d="M 3.8291858,4.8948657 1.6648093,8.6434572 A 5.2183428,5.2183428 0 0 0 6.3498881,11.568423 V 6.3499881 Z"
       style="fill:#4d3f33;fill-opacity:1" /><path
       id="path20"
       d="M 2.0207575,3.4397433 A 5.2183428,5.2183428 0 0 0 1.1325855,6.3499881 5.2183428,5.2183428 0 0 0 1.8312707,8.9586393 L 6.3498881,6.3499881 V 3.4397433 Z"
       style="fill:#7a573b;fill-opacity:1" /><path
       id="path22"
       d="M 6.3498881,1.1315531 A 5.2183428,5.2183428 0 0 0 1.8312707,3.7413368 l 4.5186174,2.6086513 z"
       style="fill:#99cd61;fill-opacity:1" /></g><g
     id="g303"
     transform="matrix(1.2304331,0,0,1.2303885,0.65100841,0.65356651)"><g
       transform="matrix(0.88,0,0,0.88,-10.906,-1.2421)"
       id="g32"><g
         transform="translate(13.26,2.2776)"
         id="g28"><path
           transform="matrix(0.96975,0,0,0.96975,0.1921,0.1921)"
           d="m 6.3498,2.9393 c -0.34105,0 -2.7827,1.4099 -2.9532,1.7052 L 6.3498,9.7602 9.3036,4.6445 C 9.13308,4.34915 6.6909,2.9393 6.3498,2.9393 Z"
           fill="#ffffff"
           stroke-width="0.26458"
           id="path26" /></g><path
         d="m 16.746,6.9737 2.8639,4.9609 c 0.33073,0 2.6991,-1.3672 2.8644,-1.6536 0.16536,-0.28642 0.16536,-3.0209 0,-3.3073 l -2.8644,1.6536 z"
         fill="#dfdfdf"
         stroke-width="0.26458"
         id="path30" /></g><path
       d="m 3.8299,4.8948 c -0.14551,0.25205 -0.14553,2.6584 0,2.9104 0.14553,0.25204 2.2292,1.4552 2.5203,1.4552 V 6.35 Z"
       fill="#d6d2d2"
       stroke-width="0.26458"
       id="path34" /></g></svg>
