<?xml version="1.0" encoding="UTF-8" standalone="no"?>
<svg
   inkscape:version="1.2.2 (b0a8486541, 2022-12-01)"
   sodipodi:docname="zenvidia.svg"
   id="svg12"
   version="1.1"
   viewBox="0 0 16.933 16.933"
   height="64"
   width="64"
   xml:space="preserve"
   xmlns:inkscape="http://www.inkscape.org/namespaces/inkscape"
   xmlns:sodipodi="http://sodipodi.sourceforge.net/DTD/sodipodi-0.dtd"
   xmlns="http://www.w3.org/2000/svg"
   xmlns:svg="http://www.w3.org/2000/svg"><defs
     id="defs16"><linearGradient
       id="linearGradient1229"
       inkscape:swatch="solid"><stop
         style="stop-color:#000000;stop-opacity:1;"
         offset="0"
         id="stop1227" /></linearGradient><rect
       x="4.4382802"
       y="5.592233"
       width="31.334258"
       height="14.401861"
       id="rect2126" /><rect
       x="4.4382801"
       y="5.5922332"
       width="31.334257"
       height="14.401861"
       id="rect2126-3" /></defs><sodipodi:namedview
     id="namedview14"
     pagecolor="#505050"
     bordercolor="#eeeeee"
     borderopacity="1"
     inkscape:showpageshadow="0"
     inkscape:pageopacity="0"
     inkscape:pagecheckerboard="0"
     inkscape:deskcolor="#505050"
     showgrid="false"
     inkscape:zoom="11.313709"
     inkscape:cx="46.359688"
     inkscape:cy="30.184621"
     inkscape:window-width="1920"
     inkscape:window-height="972"
     inkscape:window-x="0"
     inkscape:window-y="0"
     inkscape:window-maximized="1"
     inkscape:current-layer="g1000" /><circle
     cx="8.4664993"
     cy="8.4664993"
     fill="#32a3d7"
     style="fill:#fffefe;fill-opacity:1;stroke-width:0.999946;paint-order:stroke fill markers;stroke:none;stroke-opacity:1"
     id="circle2"
     r="7.1436095" /><g
     id="g1000"
     transform="matrix(0.85789994,0,0,0.91355278,4.2152407,-0.02759784)"><g
       id="g269"
       transform="matrix(0.17601211,-0.17601212,0.17601212,0.17601211,-5.5283875,8.4289006)"><g
         id="g1015"><path
           style="fill:#c7cac7"
           d="m 29.485987,15.509013 9.192,9.192 5.562026,-5.562027 -15.556,-15.5559993 v 0 c 0,0 -4.076691,7.0473613 0.801974,11.9260263 z"
           id="path237"
           sodipodi:nodetypes="scccss" /><path
           style="fill:#ffffff"
           d="m 35.165327,14.552501 c -0.256,0 -0.512,-0.098 -0.707,-0.293 l -4.242,-4.242999 c -0.391,-0.3910003 -0.391,-1.0230003 0,-1.4140003 0.391,-0.391 1.023,-0.391 1.414,0 l 4.242,4.2429993 c 0.391,0.391 0.391,1.023 0,1.414 -0.195,0.195 -0.451,0.293 -0.707,0.293 z"
           id="path243"
           sodipodi:nodetypes="sccsccss" /></g><g
         id="g1019"><path
           style="fill:#c7cac7"
           d="M 23.677601,44.542078 26.026472,41.184973 17.5205,40.120462 c -0.106664,-0.01775 -0.189654,0.08729 -0.161229,0.190968 1.602213,5.813215 -7.003607,1.101299 -8.700468,0.250724 -0.1603402,-0.08041 -0.3441373,-0.103856 -0.5204688,-0.06767 l -4.6528924,0.950759 c -0.7565039,-0.01893 -1.4114221,0.5212 -1.5376592,1.267735 l -0.3971349,2.359671 c -0.1233986,0.733845 0.3011262,1.449257 1.0037011,1.692032 l 4.5298805,1.564732 15.7037877,2.44713 c -0.675281,-2.034388 -0.427146,-4.35254 0.889584,-6.234465 z"
           id="path239" /><path
           style="fill:#ffffff"
           d="m 15.316535,47.806754 c -0.121087,0.02136 -0.248136,0.02041 -0.375589,-0.0059 L 10.339619,46.850105 C 9.7981908,46.738386 9.4511902,46.209412 9.5619504,45.668768 9.6746795,45.127777 10.203866,44.77845 10.743499,44.891502 l 4.601327,0.950778 c 0.541428,0.111719 0.888428,0.640693 0.777668,1.181337 -0.0855,0.413277 -0.414151,0.714025 -0.805959,0.783137 z"
           id="path251" /></g><path
         style="fill:none;stroke:#c7cac7;stroke-width:2;stroke-linecap:round;stroke-miterlimit:10"
         d="m 22.682125,52.351403 c -0.176816,0.303373 -0.33112,0.623788 -0.426012,0.979228 -0.570089,2.135374 0.696416,4.331677 2.828505,4.905049 2.132094,0.573371 4.323075,-0.693129 4.893164,-2.828507 0.360229,-1.349305 -0.01538,-2.720668 -0.877141,-3.693088"
         id="path253" /><path
         style="fill:#c7cac7"
         d="m 18.980216,43.6416 0.484215,0.130224 7.208553,1.938553 3.336027,-4.824265 -4.450797,-2.298656 3.275932,-4.599169 -4.450795,-2.298658 3.275934,-4.59917 -4.450796,-2.298656 3.275932,-4.599168 -4.450796,-2.298657 3.164749,-4.446301 c 0.04083,-0.05703 -0.0079,-0.135182 -0.0776,-0.123955 L 18.401327,14.4432 c -2.725033,0.454437 -4.55793,3.028395 -4.094573,5.749052 5e-4,8.66e-4 4.438185,23.386079 4.673453,23.449348 z"
         id="path249" /></g><g
       id="g1011"><g
         id="g1004"
         transform="matrix(0.98425026,0,0,0.95485748,-0.99116754,-0.03283048)"><path
           style="fill:#dd352e"
           d="M 56.309,26.87 32.267,50.912 c -2.722,2.722 -7.177,2.722 -9.899,0 v 0 c -2.722,-2.722 -2.722,-7.177 0,-9.899 L 46.41,16.971 c 2.722,-2.722 7.177,-2.722 9.899,0 v 0 c 2.722,2.722 2.722,7.177 0,9.899 z"
           id="path241"
           transform="matrix(0.17601211,-0.17601212,0.17601212,0.17601211,-4.4316684,9.4164372)" /></g><g
         id="g987"><path
           style="fill:#b02721;stroke-width:0.248919"
           d="m 8.3689482,12.852375 c -0.189037,0.189037 -0.4384461,0.29306 -0.7022883,0.292884 -0.1376415,0 -0.2490571,-0.111416 -0.2490571,-0.249057 1.76e-4,-0.137466 0.1114156,-0.248705 0.2488811,-0.248881 0.262434,-1.76e-4 0.4979382,-0.235681 0.4977622,-0.497763 L 8.16407,7.8736959 c 0,-0.1376414 0.1112396,-0.2488811 0.2488811,-0.2488811 0.1376415,0 0.2488812,0.1112397 0.2488812,0.2488811 l 1.761e-4,4.2758621 c 0,0.264018 -0.1038471,0.513604 -0.2930602,0.702817 z"
           id="path247"
           sodipodi:nodetypes="scccccsccs" /><path
           d="m 7.5147516,3.1370189 c 0,0 0.5019102,0.3065385 0.5537605,0.905305 H 8.2504027 C 8.1902562,3.3788484 7.5531207,2.7979183 7.5531207,2.7979183 c 0,0 -1.0664556,0.3318415 -1.163934,1.2446131 H 6.5826918 C 6.6783036,3.3726263 7.514959,3.1370189 7.514959,3.1370189 Z M 6.9674205,4.0423239 H 6.7903001 C 6.8925488,3.5362657 7.4892413,3.389011 7.4892413,3.389011 c 0,0 0.3048793,0.2497107 0.3546556,0.6533129 H 7.6493548 V 4.0417017 C 7.6783909,3.8299454 7.4537757,3.65801 7.4537757,3.65801 c 0,0 -0.3774697,0.099138 -0.4861478,0.3845214 m 1.6187644,0 H 8.2506102 c 0.00166,0.019495 0.00311,0.032354 0.00394,0.05185 0.028828,0.7545246 -0.7012226,1.2460648 -0.7012226,1.2460648 0,0 -0.7779609,-0.5647528 -0.7779609,-1.1527345 0,-0.053924 0.00539,-0.097893 0.014933,-0.1451807 H 6.5826944 c -0.00581,0.040443 -0.00913,0.075909 -0.00913,0.1198779 0,0.5471237 0.3167013,0.943052 0.6916822,1.3261215 -0.2592473,0.3772631 0,0 -0.2592473,0.3772631 C 6.6600546,5.5013899 6.3813077,4.6522904 6.3813077,4.1707054 c 0,-0.046459 0.00311,-0.084412 0.00809,-0.1281738 H 6.097581 v 1.8080946 c 0,0.1316587 0.1316765,0.2672544 0.2645781,0.2667409 l 1.9596551,-0.00207 c 0.1315724,0 0.2645781,-0.1330057 0.2645781,-0.2646739 V 4.0427387 Z m -0.7424954,0 h 0.2244078 c 0.00145,0.019289 0.0027,0.032147 0.00353,0.05185 0.019289,0.5425608 -0.5284575,0.8984608 -0.5284575,0.8984608 0,0 -0.605196,-0.3843139 -0.605196,-0.7964196 0,-0.059524 0.010993,-0.1061893 0.029243,-0.1538916 H 7.6493548 C 7.6203186,4.2536659 7.5145442,4.2895462 7.2747887,4.416683 l 0.2698286,0.2822723 c 0,0 0.3065386,-0.2061565 0.3065386,-0.5537605 0,-0.03754 -0.00311,-0.067198 -0.00726,-0.1026634"
           fill="#aaaaaa"
           id="path975"
           style="fill:#4acf38;fill-opacity:1;stroke-width:0.207401"
           sodipodi:nodetypes="ccccccccccccccccccccsccsccsccccccccccccsccccsc" /></g></g></g></svg>
