<?xml version="1.0" encoding="UTF-8" standalone="no"?>
<svg
   width="64"
   height="64"
   viewBox="0 0 16.933 16.933"
   version="1.1"
   id="svg8"
   sodipodi:docname="epic-games.svg"
   inkscape:version="1.2.2 (b0a8486541, 2022-12-01)"
   xml:space="preserve"
   xmlns:inkscape="http://www.inkscape.org/namespaces/inkscape"
   xmlns:sodipodi="http://sodipodi.sourceforge.net/DTD/sodipodi-0.dtd"
   xmlns="http://www.w3.org/2000/svg"
   xmlns:svg="http://www.w3.org/2000/svg"><defs
     id="defs12"><clipPath
       id="clip0"><rect
         width="647.167"
         height="750.977"
         fill="white"
         transform="translate(647.167 986.977) rotate(-180)"
         id="rect304" /></clipPath><clipPath
       id="clip1"><rect
         width="647.167"
         height="750.977"
         fill="white"
         id="rect307" /></clipPath></defs><sodipodi:namedview
     id="namedview10"
     pagecolor="#505050"
     bordercolor="#eeeeee"
     borderopacity="1"
     inkscape:showpageshadow="0"
     inkscape:pageopacity="0"
     inkscape:pagecheckerboard="0"
     inkscape:deskcolor="#505050"
     showgrid="false"
     inkscape:zoom="7.9218057"
     inkscape:cx="20.197415"
     inkscape:cy="29.53872"
     inkscape:window-width="1920"
     inkscape:window-height="972"
     inkscape:window-x="0"
     inkscape:window-y="0"
     inkscape:window-maximized="1"
     inkscape:current-layer="svg8" /><circle
     cx="8.4664993"
     cy="8.4664993"
     fill="#5f5f5f"
     style="fill:#313436;fill-opacity:1;stroke-width:0;stroke-dasharray:none;paint-order:stroke markers fill"
     id="circle2"
     r="7.1436095" /><circle
     cx="8.4664993"
     cy="8.4664993"
     fill="#fff"
     opacity="0.1"
     style="fill:#ababab;fill-opacity:1;stroke-width:0;stroke-dasharray:none;paint-order:stroke markers fill"
     id="circle4"
     r="6.0846672" /><g
     style="fill:none"
     id="g341"
     transform="matrix(0.01437978,0,0,0.01437978,4.3603082,2.9548694)"><g
       clip-path="url(#clip0)"
       id="g276"><path
         d="m 94.2451,465.961 0.12,-1.196 0.1186,-1.314 0.24,-1.196 0.3574,-1.194 0.232,-1.076 0.36,-1.196 0.4773,-1.076 0.4787,-0.958 0.4706,-1.074 0.5973,-0.956 0.5974,-0.958 0.7107,-0.956 0.5986,-0.956 0.7093,-0.836 0.837,-0.837 0.711,-0.717 0.955,-0.838 0.83,-0.717 0.956,-0.717 0.95,-0.59 0.949,-0.717 1.076,-0.597 1.069,-0.479 1.068,-0.597 1.196,-0.479 1.188,-0.479 1.188,-0.357 1.188,-0.36 1.076,-0.357 1.188,-0.24 1.07,-0.239 1.068,-0.239 1.196,-0.24 1.189,-0.118 1.068,-0.12 1.196,-0.12 1.307,-0.12 1.189,-0.119 h 1.188 1.308 1.315 1.188 l 1.189,0.119 h 1.307 l 1.189,0.12 1.195,0.12 1.308,0.12 1.188,0.238 1.188,0.12 1.196,0.239 1.189,0.239 1.188,0.24 1.188,0.238 1.195,0.358 1.069,0.24 1.188,0.358 1.189,0.359 1.075,0.479 1.188,0.358 1.069,0.358 1.19,0.478 1.074,0.479 1.07,0.479 1.069,0.589 1.075,0.479 1.069,0.598 0.949,0.596 1.076,0.599 0.95,0.597 0.956,0.598 0.949,0.717 0.949,0.717 0.956,0.718 0.951,0.717 0.836,0.717 0.949,0.836 -0.717,0.956 -0.829,0.838 -0.718,0.957 -0.83,0.956 -0.718,0.836 -0.709,0.956 -0.837,0.957 -0.71,0.836 -0.837,0.956 -0.711,0.838 -0.836,0.956 -0.71,0.957 -0.718,0.836 -0.829,0.956 -0.717,0.957 -0.83,0.836 -0.717,0.956 -0.949,-0.717 -1.07,-0.717 -0.956,-0.718 -1.069,-0.717 -0.956,-0.597 -1.069,-0.716 -0.948,-0.599 -1.078,-0.477 -0.948,-0.599 -1.069,-0.479 -1.076,-0.477 -1.068,-0.479 -1.071,-0.358 -1.074,-0.478 -1.188,-0.358 -1.19,-0.359 -1.068,-0.359 -1.196,-0.24 -1.188,-0.238 -1.188,-0.239 -1.308,-0.12 -1.194,-0.239 h -1.19 l -1.306,-0.118 h -1.19 -1.426 l -1.308,0.118 -1.196,0.239 -1.068,0.24 -1.07,0.239 -0.956,0.358 -0.83,0.478 -0.956,0.717 -0.71,0.837 -0.478,0.958 -0.36,1.074 -0.118,1.196 v 0.239 l 0.118,1.435 0.478,1.196 0.599,0.836 0.829,0.717 0.958,0.717 0.949,0.478 1.068,0.478 1.196,0.479 1.427,0.596 0.83,0.24 0.948,0.239 1.076,0.36 1.07,0.238 1.188,0.359 1.196,0.239 1.306,0.358 1.19,0.239 1.308,0.359 1.188,0.238 1.196,0.359 1.186,0.24 1.19,0.359 1.076,0.357 1.186,0.24 1.071,0.359 1.068,0.358 1.076,0.359 1.308,0.479 1.188,0.478 1.189,0.478 1.195,0.478 1.068,0.598 1.189,0.597 0.956,0.597 1.07,0.598 0.949,0.717 0.956,0.597 0.829,0.719 0.836,0.836 0.831,0.837 0.717,0.838 0.71,0.836 0.598,0.836 0.591,0.957 0.597,1.075 0.479,0.829 0.359,0.957 0.35,1.076 0.359,0.956 0.24,1.196 0.239,1.076 0.12,1.195 0.118,1.196 0.12,1.313 v 1.316 0.239 1.196 l -0.12,1.195 -0.118,1.076 -0.12,1.196 -0.239,1.074 -0.24,1.076 -0.359,1.078 -0.238,1.074 -0.471,1.076 -0.479,1.076 -0.477,1.075 -0.592,1.077 -0.596,1.075 -0.711,0.957 -0.718,0.956 -0.83,0.956 -0.836,0.836 -0.83,0.958 -0.956,0.837 -0.83,0.597 -0.956,0.718 -0.95,0.717 -0.948,0.597 -1.076,0.598 -1.07,0.478 -1.068,0.597 -1.076,0.478 -1.188,0.36 -1.188,0.477 -1.076,0.359 -0.949,0.24 -1.071,0.239 -1.074,0.238 -1.188,0.239 -1.07,0.24 -1.188,0.119 -1.196,0.12 -1.188,0.12 -1.188,0.118 h -1.188 -1.314 -1.31 -1.306 l -1.308,-0.118 -1.308,-0.12 h -1.188 l -1.315,-0.12 -1.188,-0.239 -1.308,-0.12 -1.189,-0.239 -1.076,-0.238 -1.188,-0.239 -1.188,-0.24 -1.07,-0.239 -1.194,-0.358 -1.07,-0.359 -1.069,-0.24 -1.195,-0.478 -1.069,-0.358 -1.068,-0.477 -1.069,-0.479 -1.195,-0.479 -1.069,-0.597 -0.95,-0.479 -1.076,-0.597 -1.069,-0.597 -0.949,-0.599 -1.075,-0.717 -0.9506,-0.596 -0.956,-0.719 -0.9493,-0.717 -0.948,-0.716 0.7093,-0.958 0.5973,-0.956 0.7107,-0.956 0.7173,-0.957 0.7093,-1.075 0.599,-0.956 0.717,-0.957 0.711,-0.956 0.596,-0.956 0.712,-0.957 0.716,-0.956 0.598,-0.956 0.71,-1.076 0.718,-0.956 0.71,-0.956 0.597,-0.956 0.711,-0.956 0.956,0.716 1.068,0.598 0.95,0.598 0.956,0.717 1.068,0.477 0.958,0.599 1.068,0.479 0.949,0.477 1.076,0.479 0.949,0.477 1.068,0.359 0.956,0.478 1.31,0.358 1.188,0.36 1.188,0.357 1.196,0.24 1.188,0.239 1.188,0.24 1.188,0.12 1.196,0.118 1.068,0.12 h 1.189 1.427 l 1.308,-0.238 1.196,-0.24 1.068,-0.239 0.949,-0.479 0.837,-0.477 1.07,-0.957 0.717,-1.076 0.469,-1.076 0.122,-1.195 v -0.24 l -0.122,-1.553 -0.589,-1.315 -0.479,-0.717 -0.829,-0.838 -1.076,-0.597 -0.949,-0.597 -1.188,-0.479 -1.315,-0.479 -1.428,-0.477 -0.949,-0.239 -0.95,-0.358 -1.076,-0.239 -1.068,-0.359 -1.188,-0.24 -1.316,-0.358 -1.308,-0.358 -1.308,-0.36 -1.306,-0.238 -1.188,-0.359 -1.308,-0.359 -1.196,-0.238 -1.19,-0.359 -1.188,-0.359 -1.068,-0.358 -1.196,-0.359 -1.069,-0.359 -1.068,-0.358 -1.315,-0.471 -1.188,-0.599 -1.188,-0.477 -1.189,-0.597 -1.076,-0.599 -1.069,-0.597 -0.948,-0.598 -0.956,-0.717 -0.951,-0.597 -0.949,-0.838 -0.956,-0.836 -0.8296,-0.957 -0.836,-0.836 -0.7107,-0.957 -0.7173,-1.075 -0.5907,-0.956 -0.5986,-1.077 -0.4774,-0.956 -0.3586,-1.075 -0.352,-1.076 -0.2387,-1.076 -0.2387,-1.196 -0.2386,-1.196 -0.12,-1.195 -0.12,-1.314 v -1.315 -0.239 -1.316 z m 83.4589,-23.902 h 1.194 1.188 1.188 1.188 1.196 1.19 1.186 1.19 1.314 1.188 1.188 1.188 1.198 1.186 1.19 1.188 1.196 1.188 1.188 1.188 1.189 1.195 1.188 1.188 1.189 1.196 1.188 1.188 1.308 1.195 1.189 1.188 1.188 1.195 1.189 1.188 1.189 1.195 1.188 1.188 1.189 1.196 1.187 1.189 1.188 1.195 1.189 1.308 1.188 1.188 1.196 1.188 1.19 1.186 1.195 1.189 1.188 v 1.196 1.196 1.195 1.189 1.196 1.195 1.195 1.194 1.196 1.196 1.195 1.196 1.196 1.195 1.196 1.194 1.195 1.196 1.076 1.196 1.195 1.194 1.196 1.196 1.195 1.196 1.196 1.195 1.194 1.195 1.196 1.196 1.195 1.196 1.196 1.194 1.196 1.195 1.195 1.196 1.194 1.19 1.194 1.196 1.196 1.195 1.195 1.196 1.194 1.196 1.196 1.195 1.196 1.195 1.076 1.194 1.196 1.196 1.195 1.196 1.195 1.196 1.194 1.196 1.195 1.196 1.196 1.195 1.194 1.196 1.195 1.196 1.196 h -1.188 -1.189 -1.195 -1.186 -1.19 -1.188 -1.196 -1.188 -1.188 -1.189 -1.195 -1.189 -1.187 -1.189 -1.075 -1.189 -1.188 -1.189 -1.195 -1.188 -1.188 -1.189 -1.195 -1.188 -1.188 -1.189 -1.196 -1.188 -1.188 -1.188 -1.196 -1.19 -1.186 -1.188 -1.19 -1.196 -1.188 -1.188 -1.188 -1.196 -1.188 -1.188 -1.188 -1.077 -1.188 -1.188 -1.189 -1.195 -1.188 -1.188 -1.188 -1.196 -1.188 -1.188 -1.189 -1.195 -1.189 -1.188 v -1.196 -1.076 -1.195 -1.196 -1.194 -1.076 -1.196 -1.196 -1.075 -1.196 -1.195 -1.077 -1.195 -1.194 -1.196 -1.076 -1.196 h 1.188 1.189 1.195 1.189 1.188 1.188 1.076 1.188 1.188 1.189 1.195 1.188 1.189 1.188 1.196 1.188 1.188 1.188 1.196 1.068 1.19 1.188 1.196 1.186 1.19 1.188 1.196 1.188 1.188 1.188 1.196 1.189 1.068 1.188 1.195 1.189 1.188 1.189 1.195 v -1.195 -1.195 -1.194 -1.196 -1.196 -1.076 -1.195 -1.196 -1.195 -1.196 -1.194 -1.196 h -1.195 -1.189 -1.188 -1.189 -1.195 -1.188 -1.188 -1.189 -1.076 -1.188 -1.188 -1.188 -1.196 -1.188 -1.19 -1.186 -1.196 -1.188 -1.19 -1.188 -1.194 -1.188 -1.19 -1.189 -1.195 -1.188 -1.069 -1.188 -1.195 -1.189 -1.188 -1.188 -1.195 -1.189 -1.188 v -1.195 -1.076 -1.189 -1.195 -1.076 -1.195 -1.196 -1.076 -1.196 -1.194 -1.196 -1.075 -1.195 -1.196 -1.077 -1.195 h 1.188 1.189 1.195 1.188 1.188 1.189 1.195 1.188 1.069 1.188 1.195 1.189 1.19 1.188 1.194 1.188 1.19 1.188 1.196 1.186 1.19 1.188 1.196 1.188 1.188 1.188 1.076 1.189 1.188 1.188 1.195 1.189 1.188 1.189 1.195 v -1.194 -1.316 -1.195 -1.196 -1.315 -1.196 -1.194 -1.315 -1.195 -1.196 -1.314 -1.195 h -1.195 -1.189 -1.188 -1.189 -1.195 -1.188 -1.188 -1.189 -1.195 -1.308 -1.188 -1.188 -1.196 -1.189 -1.188 -1.188 -1.195 -1.189 -1.188 -1.188 -1.188 -1.196 -1.188 -1.19 -1.186 -1.198 -1.188 -1.188 -1.188 -1.314 -1.19 -1.186 -1.19 -1.196 -1.188 -1.188 -1.188 -1.194 -1.19 v -1.196 -1.076 -1.196 -1.195 -1.196 -1.076 -1.194 -1.195 -1.077 -1.195 -1.195 -1.077 -1.188 -1.195 -1.194 -1.078 -1.196 z m 86.952,0 h 1.188 1.189 1.313 1.188 1.19 1.188 1.196 1.188 1.308 1.188 1.189 1.195 1.188 1.188 1.308 1.196 1.188 1.189 v 1.196 1.196 1.195 1.196 1.203 1.194 1.196 1.196 1.195 1.195 1.196 1.201 1.196 1.196 1.195 1.196 1.202 1.196 1.195 1.195 1.196 1.194 1.203 1.195 1.196 1.196 1.194 1.196 1.203 1.196 1.195 1.194 1.195 1.196 1.203 1.194 1.196 1.195 1.196 1.203 1.194 1.196 1.196 l 0.596,-0.956 0.711,-1.084 0.598,-0.956 0.71,-0.957 0.597,-1.075 0.719,-0.957 0.589,-0.956 0.599,-1.083 0.709,-0.956 0.599,-0.956 0.716,-0.957 0.59,-1.083 0.718,-0.956 0.59,-0.956 0.599,-1.076 0.717,-0.962 0.591,-0.958 0.717,-1.074 0.59,-0.958 0.717,-0.956 0.591,-1.082 0.598,-0.958 0.716,-0.956 0.591,-1.076 0.717,-0.962 0.591,-0.956 0.717,-0.958 0.599,-1.074 0.591,-0.963 0.716,-0.957 0.59,-1.076 0.718,-0.956 0.597,-0.956 0.711,-1.084 0.597,-0.956 h 0.472 l 0.716,1.076 0.599,0.964 0.71,1.076 0.598,0.956 0.71,1.074 0.598,0.964 0.709,1.076 0.599,0.958 0.717,1.074 0.591,0.956 0.717,1.084 0.589,0.956 0.718,1.076 0.598,0.956 0.71,1.083 0.598,0.956 0.71,1.076 0.717,0.956 0.597,1.083 0.711,0.956 0.597,1.076 0.711,0.956 0.597,1.084 0.711,0.956 0.597,1.076 0.718,0.956 0.59,1.076 0.718,0.964 0.59,1.074 0.718,0.958 0.597,1.076 0.709,0.954 0.6,1.084 0.71,0.956 v -1.194 -1.196 -1.196 -1.202 -1.196 -1.194 -1.196 -1.196 -1.202 -1.196 -1.076 -1.194 -1.196 -1.195 -1.203 -1.196 -1.194 -1.195 -1.196 -1.196 -1.201 -1.196 -1.196 -1.195 -1.196 -1.195 -1.202 -1.195 -1.196 -1.195 -1.196 -1.201 -1.077 -1.195 -1.195 -1.196 -1.196 -1.194 -1.203 -1.196 -1.195 -1.196 -1.196 h 1.188 1.194 1.19 1.188 1.188 1.194 1.19 1.188 1.189 1.195 1.188 1.189 1.188 1.195 1.188 1.189 1.189 1.195 1.188 v 1.196 1.196 1.195 1.189 1.196 1.195 1.195 1.194 1.196 1.196 1.195 1.196 1.196 1.195 1.196 1.194 1.195 1.196 1.076 1.196 1.195 1.194 1.196 1.196 1.195 1.196 1.196 1.195 1.194 1.195 1.196 1.196 1.195 1.196 1.196 1.194 1.196 1.195 1.195 1.196 1.194 1.19 1.194 1.196 1.196 1.195 1.195 1.196 1.194 1.196 1.196 1.195 1.196 1.195 1.076 1.194 1.196 1.196 1.195 1.196 1.195 1.196 1.194 1.196 1.195 1.196 1.196 1.195 1.194 1.196 1.195 1.196 1.196 h -1.188 -1.195 -1.07 -1.187 -1.189 -1.195 -1.069 -1.188 -1.196 -1.188 -1.07 -1.188 -1.196 -1.188 -1.068 -1.188 -1.196 -1.189 -1.068 -1.188 -1.196 l -0.591,-0.957 -0.597,-1.075 -0.709,-0.949 -0.599,-1.076 -0.597,-0.956 -0.591,-1.078 -0.597,-0.948 -0.712,-1.077 -0.596,-0.956 -0.599,-0.956 -0.591,-1.068 -0.597,-0.957 -0.711,-1.075 -0.597,-0.957 -0.597,-1.068 -0.591,-0.956 -0.717,-0.956 -0.599,-1.071 -0.589,-0.955 -0.598,-1.076 -0.592,-0.957 -0.717,-1.068 -0.597,-0.957 -0.59,-1.075 -0.598,-0.949 -0.591,-0.956 -0.717,-1.076 -0.598,-0.958 -0.59,-1.076 -0.598,-0.949 -0.59,-1.076 -0.719,-0.956 -0.597,-1.068 -0.591,-0.957 -0.597,0.957 -0.598,1.068 -0.71,0.956 -0.596,1.076 -0.592,0.949 -0.598,1.076 -0.71,0.958 -0.598,1.076 -0.598,0.956 -0.59,0.949 -0.717,1.075 -0.591,0.957 -0.598,1.068 -0.596,0.957 -0.711,1.076 -0.597,0.955 -0.599,1.071 -0.589,0.956 -0.6,0.956 -0.71,1.068 -0.597,0.957 -0.597,1.075 -0.592,0.957 -0.716,1.068 -0.592,0.956 -0.596,0.956 -0.599,1.077 -0.709,0.948 -0.599,1.078 -0.589,0.956 -0.599,1.076 -0.717,0.949 -0.591,1.075 -0.597,0.957 h -1.188 -1.19 -1.074 -1.19 -1.188 -1.188 -1.076 -1.189 -1.187 -1.189 -1.076 -1.188 -1.188 -1.189 -1.075 -1.189 -1.188 -1.188 -1.076 -1.188 -1.188 v -1.196 -1.196 -1.195 -1.196 -1.194 -1.195 -1.196 -1.196 -1.195 -1.196 -1.194 -1.196 -1.195 -1.196 -1.195 -1.196 -1.196 -1.194 -1.076 -1.195 -1.196 -1.195 -1.196 -1.196 -1.194 -1.196 -1.195 -1.195 -1.196 -1.196 -1.194 -1.19 -1.194 -1.196 -1.195 -1.195 -1.196 -1.194 -1.196 -1.196 -1.195 -1.196 -1.196 -1.195 -1.194 -1.195 -1.196 -1.196 -1.195 -1.196 -1.196 -1.194 -1.195 -1.196 -1.076 -1.196 -1.195 -1.194 -1.196 -1.195 -1.196 -1.196 -1.195 -1.196 -1.196 -1.194 -1.195 -1.195 -1.196 -1.189 -1.195 -1.196 -1.196 z m 138.078,35.855 0.359,1.083 0.471,1.196 0.478,1.076 0.359,1.082 0.471,1.076 0.477,1.196 0.36,1.083 0.479,1.076 0.469,1.075 0.36,1.082 0.479,1.196 0.35,1.076 0.479,1.083 0.479,1.076 0.357,1.076 0.472,1.201 0.477,1.078 0.359,1.074 0.479,1.083 0.47,1.196 0.359,1.083 0.479,1.076 0.47,-1.076 0.358,-1.083 0.478,-1.196 0.479,-1.083 0.352,-1.074 0.477,-1.078 0.479,-1.201 0.471,-1.076 0.36,-1.076 0.477,-1.083 0.479,-1.076 0.352,-1.196 0.477,-1.082 0.479,-1.075 0.357,-1.076 0.472,-1.083 0.479,-1.196 0.477,-1.076 0.351,-1.082 0.478,-1.076 0.479,-1.196 0.359,-1.083 0.47,-1.076 h -1.188 -1.188 -1.189 -1.195 -1.188 -1.188 -1.189 -1.196 -1.068 -1.188 -1.196 -1.188 -1.188 -1.189 -1.188 -1.195 -1.188 z m -37.373,-35.855 h 1.195 1.07 1.187 1.196 1.188 1.189 1.068 1.196 1.188 1.188 1.19 1.194 1.07 1.188 1.189 1.195 1.188 1.069 1.188 1.195 l 0.472,1.078 0.358,1.076 0.478,1.076 0.478,1.194 0.352,1.07 0.478,1.074 0.478,1.076 0.352,1.076 0.478,1.076 0.478,1.076 0.358,1.076 0.472,1.195 0.478,1.076 0.359,1.076 0.479,1.076 h 1.188 1.188 1.188 1.188 1.076 1.189 1.188 1.195 1.188 1.189 1.188 1.188 1.196 1.188 1.068 1.196 1.189 1.188 1.188 1.195 1.189 1.188 1.188 1.188 1.078 1.186 1.19 1.196 1.188 l 0.47,-1.076 0.359,-1.076 0.479,-1.076 0.477,-1.195 0.352,-1.076 0.477,-1.076 0.479,-1.076 0.359,-1.076 0.47,-1.076 0.479,-1.074 0.359,-1.07 0.472,-1.194 0.477,-1.076 0.359,-1.076 0.478,-1.078 h 1.188 1.188 1.188 1.196 1.188 1.308 1.188 1.19 1.194 1.188 1.188 1.19 1.196 1.186 1.188 1.308 1.196 1.188 1.19 1.188 l -0.471,1.078 -0.479,1.076 -0.477,1.076 -0.472,1.194 -0.359,1.07 -0.478,1.074 -0.478,1.076 -0.47,1.076 -0.479,1.076 -0.479,1.196 -0.47,1.076 -0.479,1.075 -0.357,1.076 -0.479,1.076 -0.471,1.076 -0.478,1.195 -0.478,1.076 -0.472,1.077 -0.478,1.075 -0.478,1.076 -0.358,1.076 -0.471,1.196 -0.479,1.074 -0.478,1.076 -0.471,1.076 -0.479,1.076 -0.478,1.076 -0.471,1.196 -0.359,1.075 -0.478,1.076 -0.478,1.076 -0.472,1.076 -0.477,1.076 -0.477,1.195 -0.472,1.076 -0.478,1.076 -0.358,1.076 -0.479,1.074 -0.471,1.076 -0.478,1.196 -0.479,1.076 -0.471,1.076 -0.477,1.076 -0.479,1.075 -0.358,1.077 -0.472,1.068 -0.478,1.196 -0.477,1.075 -0.472,1.077 -0.477,1.076 -0.479,1.075 -0.471,1.076 -0.358,1.196 -0.479,1.075 -0.477,1.076 -0.472,1.076 -0.479,1.076 -0.477,1.076 -0.472,1.196 -0.478,1.074 -0.358,1.076 -0.478,1.076 -0.472,1.076 -0.477,1.076 -0.479,1.195 -0.47,1.076 -0.479,1.076 -0.479,1.076 -0.35,1.075 -0.479,1.077 -0.479,1.195 -0.478,1.076 -0.471,1.076 -0.479,1.076 -0.477,1.076 -0.471,1.074 -0.36,1.196 -0.477,1.076 -0.479,1.076 -0.47,1.076 h -1.188 -1.076 -1.188 -1.188 -1.196 -1.068 -1.188 -1.19 -1.196 -1.069 -1.187 -1.189 -1.195 -1.069 -1.188 -1.188 -1.196 -1.068 -1.189 l -0.478,-1.076 -0.478,-1.076 -0.472,-1.076 -0.478,-1.196 -0.358,-1.074 -0.471,-1.076 -0.479,-1.076 -0.477,-1.076 -0.479,-1.076 -0.47,-1.195 -0.479,-1.077 -0.479,-1.075 -0.35,-1.076 -0.479,-1.076 -0.479,-1.076 -0.478,-1.195 -0.471,-1.076 -0.477,-1.076 -0.479,-1.076 -0.471,-1.076 -0.358,-1.074 -0.478,-1.196 -0.472,-1.076 -0.478,-1.076 -0.478,-1.076 -0.478,-1.076 -0.471,-1.075 -0.477,-1.196 -0.36,-1.076 -0.471,-1.075 -0.477,-1.076 -0.479,-1.077 -0.479,-1.075 -0.47,-1.196 -0.479,-1.068 -0.477,-1.077 -0.352,-1.075 -0.478,-1.076 -0.478,-1.076 -0.472,-1.076 -0.478,-1.196 -0.478,-1.076 -0.479,-1.074 -0.471,-1.076 -0.358,-1.076 -0.478,-1.076 -0.472,-1.195 -0.477,-1.076 -0.479,-1.076 -0.477,-1.076 -0.472,-1.076 -0.479,-1.075 -0.357,-1.196 -0.472,-1.076 -0.477,-1.076 -0.479,-1.076 -0.471,-1.076 -0.478,-1.074 -0.479,-1.196 -0.479,-1.076 -0.35,-1.076 -0.479,-1.075 -0.479,-1.077 -0.47,-1.076 -0.478,-1.195 -0.478,-1.076 -0.478,-1.076 -0.47,-1.076 -0.36,-1.075 -0.479,-1.076 -0.471,-1.196 -0.477,-1.076 -0.477,-1.076 -0.472,-1.076 -0.478,-1.074 -0.478,-1.07 -0.36,-1.194 -0.47,-1.076 -0.478,-1.076 -0.478,-1.078 z m 104.257,11.112 0.956,-0.717 0.831,-0.599 0.956,-0.717 0.949,-0.597 0.95,-0.718 0.956,-0.597 0.949,-0.599 1.076,-0.596 1.069,-0.598 1.07,-0.598 1.074,-0.47 1.07,-0.599 1.188,-0.477 1.068,-0.479 1.196,-0.477 1.068,-0.479 1.07,-0.359 1.075,-0.358 1.069,-0.36 1.188,-0.358 1.068,-0.36 1.196,-0.238 1.07,-0.239 1.188,-0.239 1.194,-0.238 1.19,-0.12 1.308,-0.12 1.188,-0.12 1.308,-0.119 1.196,-0.12 1.306,-0.119 h 1.308 1.31 1.306 1.196 l 1.188,0.119 1.308,0.12 1.188,0.119 1.188,0.12 1.196,0.12 1.188,0.238 1.19,0.24 1.068,0.239 1.194,0.239 1.07,0.358 1.188,0.239 1.076,0.36 1.069,0.477 1.069,0.359 1.187,0.479 1.076,0.477 1.069,0.477 1.068,0.479 1.078,0.597 0.948,0.592 1.069,0.598 0.956,0.598 0.949,0.596 0.956,0.719 0.95,0.716 0.95,0.717 0.836,0.718 0.83,0.717 0.837,0.837 0.829,0.716 0.838,0.838 0.829,0.837 0.717,0.836 0.711,0.956 0.717,0.837 0.598,0.956 0.71,0.958 0.596,0.954 0.592,0.958 0.598,1.076 0.597,0.956 0.471,1.076 0.478,1.076 0.478,1.076 0.472,1.074 0.358,0.956 0.479,1.078 0.239,1.076 0.352,1.074 0.238,1.195 0.359,1.077 0.239,1.195 0.12,1.076 0.24,1.196 0.117,1.075 0.121,1.196 0.112,1.196 0.119,1.194 v 1.315 1.196 0.239 1.196 l -0.119,1.314 v 1.195 l -0.112,1.196 -0.121,1.315 -0.239,1.188 -0.118,1.196 -0.239,1.076 -0.359,1.194 -0.24,1.196 -0.35,1.076 -0.359,1.195 -0.359,1.076 -0.478,1.196 -0.472,1.075 -0.478,1.076 -0.478,1.076 -0.471,1.076 -0.597,1.076 -0.598,0.956 -0.592,0.957 -0.596,0.956 -0.598,0.956 -0.71,0.956 -0.717,0.956 -0.711,0.956 -0.717,0.839 -0.829,0.836 -0.718,0.837 -0.83,0.835 -0.836,0.838 -0.83,0.716 -0.956,0.838 -0.83,0.717 -0.95,0.717 -0.956,0.598 -0.949,0.717 -0.957,0.597 -0.948,0.598 -1.07,0.598 -1.076,0.598 -1.068,0.597 -1.069,0.479 -1.075,0.477 -1.189,0.599 -0.949,0.357 -1.188,0.36 -1.078,0.477 -1.068,0.24 -1.068,0.359 -1.194,0.239 -1.07,0.358 -1.188,0.239 -1.189,0.12 -1.195,0.239 -1.189,0.12 -1.187,0.118 -1.189,0.12 -1.196,0.12 h -1.308 -1.188 -1.307 -1.308 l -1.316,-0.12 -1.308,-0.12 h -1.188 l -1.188,-0.118 -1.308,-0.24 -1.076,-0.119 -1.188,-0.24 -1.189,-0.239 -1.075,-0.238 -1.068,-0.239 -1.07,-0.24 -1.076,-0.359 -1.068,-0.238 -0.95,-0.359 -1.076,-0.359 -1.069,-0.477 -1.068,-0.479 -1.076,-0.478 -1.069,-0.598 -1.068,-0.478 -0.958,-0.598 -1.068,-0.597 -0.949,-0.597 -1.076,-0.599 -0.949,-0.716 -0.95,-0.599 -0.956,-0.717 -0.949,-0.717 -0.956,-0.836 -0.949,-0.718 0.717,-0.957 0.829,-0.836 0.718,-0.956 0.829,-0.956 0.717,-0.957 0.711,-0.836 0.837,-0.956 0.71,-0.956 0.717,-0.839 0.831,-0.956 0.716,-0.956 0.83,-0.956 0.718,-0.837 0.709,-0.956 0.836,-0.956 0.712,-0.956 0.836,-0.838 0.711,-0.956 0.956,0.718 0.949,0.836 0.956,0.598 0.949,0.718 0.95,0.597 0.956,0.599 0.95,0.596 1.068,0.598 0.956,0.478 0.95,0.478 0.956,0.359 1.069,0.359 1.068,0.358 1.076,0.239 1.188,0.24 1.188,0.239 1.189,0.118 1.308,0.12 1.315,0.119 h 1.308 1.188 l 1.188,-0.119 1.076,-0.12 1.188,-0.238 1.069,-0.24 1.076,-0.358 1.068,-0.358 1.07,-0.479 1.069,-0.477 0.956,-0.598 0.948,-0.598 0.957,-0.599 0.83,-0.716 0.837,-0.717 0.829,-0.718 0.718,-0.836 0.829,-0.837 0.717,-0.956 0.592,-0.837 0.598,-0.956 0.589,-1.076 0.599,-0.956 0.477,-1.076 0.359,-1.076 0.472,-1.076 0.358,-1.195 0.239,-1.189 0.239,-1.075 0.24,-1.316 0.118,-1.195 0.112,-1.194 v -1.316 -0.239 -1.196 l -0.112,-1.195 -0.118,-1.076 -0.12,-1.196 -0.239,-1.074 -0.24,-1.078 -0.239,-1.074 -0.358,-1.076 -0.352,-0.956 -0.479,-1.195 -0.477,-1.077 -0.591,-1.076 -0.597,-0.956 -0.598,-0.956 -0.71,-0.958 -0.718,-0.836 -0.829,-0.837 -0.719,-0.836 -0.828,-0.717 -0.957,-0.718 -0.949,-0.717 -0.948,-0.597 -0.956,-0.598 -1.071,-0.478 -1.068,-0.479 -1.075,-0.477 -1.189,-0.359 -1.188,-0.359 -1.196,-0.24 -1.188,-0.238 -1.188,-0.119 -1.308,-0.12 h -1.308 -1.427 l -1.316,0.12 -1.308,0.119 -1.188,0.12 -1.188,0.24 -1.196,0.238 -1.188,0.358 -1.068,0.24 -1.07,0.477 -0.956,0.479 -1.068,0.478 -0.836,0.478 -0.951,0.598 v 1.195 1.195 1.196 1.194 1.316 1.195 1.196 1.195 1.196 h 1.189 1.075 1.189 1.188 1.188 1.076 1.19 1.188 1.188 1.074 1.19 1.188 1.189 1.075 1.189 v 1.194 1.076 1.196 1.195 1.196 1.076 1.195 1.196 1.194 1.078 1.194 1.195 1.196 1.076 1.188 h -1.189 -1.195 -1.189 -1.187 -1.189 -1.188 -1.196 -1.188 -1.188 -1.19 -1.194 -1.188 -1.188 -1.188 -1.196 -1.19 -1.188 -1.188 -1.194 -1.19 -1.188 -1.188 -1.194 -1.19 -1.188 -1.188 -1.196 -1.188 -1.189 -1.188 -1.195 -1.188 -1.189 v -1.188 -1.195 -1.196 -1.076 -1.194 -1.196 -1.195 -1.196 -1.196 -1.075 -1.196 -1.196 -1.194 -1.196 -1.195 -1.196 -1.075 -1.196 -1.196 -1.196 -1.194 -1.196 -1.195 -1.076 -1.195 -1.196 -1.196 -1.194 -1.195 -1.077 -1.195 -1.195 -1.196 z"
         fill="#666666"
         id="path264" /><path
         fill-rule="evenodd"
         clip-rule="evenodd"
         d="M 448.362,338.894 H 197.623 l 127.982,-42.206 z"
         fill="#666666"
         id="path274" /></g><g
       clip-path="url(#clip1)"
       id="g292"
       transform="matrix(0.88247143,0,0,0.88247143,0,88.261235)"><path
         fill-rule="evenodd"
         clip-rule="evenodd"
         d="M 588.396,-4.23174e-4 H 58.7707 C 15.8427,-4.23174e-4 0,15.8423 0,58.7903 V 577.025 c 0,4.86 0.195992,9.375 0.625325,13.557 0.977335,9.375 1.161335,18.459 9.879975,28.802 0.852,1.013 9.7534,7.637 9.7534,7.637 4.788,2.348 8.0573,4.077 13.4573,6.251 l 260.795,109.264 c 13.538,6.206 19.2,8.625 29.033,8.43 v 0.002 c 0.013,0 0.025,0 0.039,0 0.013,0 0.025,0 0.038,0 v -0.002 c 9.834,0.195 15.495,-2.224 29.035,-8.43 L 613.449,633.272 c 5.402,-2.174 8.67,-3.903 13.459,-6.251 0,0 8.901,-6.624 9.752,-7.637 8.719,-10.343 8.903,-19.427 9.88,-28.802 0.429,-4.182 0.627,-8.697 0.627,-13.557 V 58.7903 c 0,-42.948 -15.844,-58.790723174 -58.771,-58.790723174 z"
         fill="#ffffff"
         id="path278"
         style="stroke-width:0;stroke-dasharray:none" /><path
         d="m 552.922,521.016 -0.12,1.196 -0.119,1.314 -0.24,1.196 -0.357,1.194 -0.232,1.076 -0.36,1.196 -0.477,1.076 -0.479,0.958 -0.471,1.074 -0.597,0.956 -0.597,0.958 -0.711,0.956 -0.599,0.956 -0.709,0.836 -0.837,0.837 -0.711,0.717 -0.955,0.838 -0.83,0.717 -0.956,0.717 -0.95,0.59 -0.949,0.717 -1.076,0.597 -1.069,0.479 -1.068,0.597 -1.196,0.479 -1.188,0.479 -1.188,0.357 -1.188,0.36 -1.076,0.357 -1.188,0.24 -1.07,0.239 -1.068,0.239 -1.196,0.24 -1.189,0.118 -1.068,0.12 -1.196,0.12 -1.307,0.12 -1.189,0.119 h -1.188 -1.308 -1.315 -1.188 l -1.189,-0.119 h -1.307 l -1.189,-0.12 -1.195,-0.12 -1.308,-0.12 -1.188,-0.238 -1.188,-0.12 -1.196,-0.239 -1.189,-0.239 -1.188,-0.24 -1.188,-0.238 -1.195,-0.358 -1.069,-0.24 -1.188,-0.358 -1.189,-0.359 -1.075,-0.479 -1.188,-0.358 -1.069,-0.358 -1.19,-0.478 -1.074,-0.479 -1.07,-0.479 -1.069,-0.589 -1.075,-0.479 -1.069,-0.598 -0.949,-0.596 -1.076,-0.599 -0.95,-0.597 -0.956,-0.598 -0.949,-0.717 -0.949,-0.717 -0.956,-0.718 -0.951,-0.717 -0.836,-0.717 -0.949,-0.836 0.717,-0.956 0.829,-0.838 0.718,-0.957 0.83,-0.956 0.718,-0.836 0.709,-0.956 0.837,-0.957 0.71,-0.836 0.837,-0.956 0.711,-0.838 0.836,-0.956 0.71,-0.957 0.718,-0.836 0.829,-0.956 0.717,-0.957 0.83,-0.836 0.717,-0.956 0.949,0.717 1.07,0.717 0.956,0.718 1.069,0.717 0.956,0.597 1.069,0.716 0.948,0.599 1.078,0.477 0.948,0.599 1.069,0.479 1.076,0.477 1.068,0.479 1.071,0.358 1.074,0.478 1.188,0.358 1.19,0.359 1.068,0.359 1.196,0.24 1.188,0.238 1.188,0.239 1.308,0.12 1.194,0.239 h 1.19 l 1.306,0.118 h 1.19 1.426 l 1.308,-0.118 1.196,-0.239 1.068,-0.24 1.07,-0.239 0.956,-0.358 0.83,-0.478 0.956,-0.717 0.71,-0.837 0.478,-0.958 0.36,-1.074 0.118,-1.196 v -0.239 l -0.118,-1.435 -0.478,-1.196 -0.599,-0.836 -0.829,-0.717 -0.958,-0.717 -0.949,-0.478 -1.068,-0.478 -1.196,-0.479 -1.427,-0.596 -0.83,-0.24 -0.948,-0.239 -1.076,-0.36 -1.07,-0.238 -1.188,-0.359 -1.196,-0.239 -1.306,-0.358 -1.19,-0.239 -1.308,-0.359 -1.188,-0.238 -1.196,-0.359 -1.186,-0.24 -1.19,-0.359 -1.076,-0.357 -1.186,-0.24 -1.071,-0.359 -1.068,-0.358 -1.076,-0.359 -1.308,-0.479 -1.188,-0.478 -1.189,-0.478 -1.195,-0.478 -1.068,-0.598 -1.189,-0.597 -0.956,-0.597 -1.07,-0.598 -0.949,-0.717 -0.956,-0.597 -0.829,-0.719 -0.836,-0.836 -0.831,-0.837 -0.717,-0.838 -0.71,-0.836 -0.598,-0.836 -0.591,-0.957 -0.597,-1.075 -0.479,-0.829 -0.359,-0.957 -0.35,-1.076 -0.359,-0.956 -0.24,-1.196 -0.239,-1.076 -0.12,-1.195 -0.118,-1.196 -0.12,-1.313 v -1.316 -0.239 -1.196 l 0.12,-1.195 0.118,-1.076 0.12,-1.196 0.239,-1.074 0.24,-1.076 0.359,-1.078 0.238,-1.074 0.471,-1.076 0.479,-1.076 0.477,-1.075 0.592,-1.077 0.596,-1.075 0.711,-0.957 0.718,-0.956 0.83,-0.956 0.836,-0.836 0.83,-0.958 0.956,-0.837 0.83,-0.597 0.956,-0.718 0.95,-0.717 0.948,-0.597 1.076,-0.598 1.07,-0.478 1.068,-0.598 1.076,-0.477 1.188,-0.36 1.188,-0.477 1.076,-0.359 0.949,-0.24 1.071,-0.239 1.074,-0.238 1.188,-0.239 1.07,-0.24 1.188,-0.119 1.196,-0.12 1.188,-0.12 1.188,-0.118 h 1.188 1.314 1.31 1.306 l 1.308,0.118 1.308,0.12 h 1.188 l 1.315,0.12 1.188,0.239 1.308,0.12 1.189,0.239 1.076,0.238 1.188,0.239 1.188,0.24 1.07,0.239 1.194,0.358 1.07,0.359 1.069,0.24 1.195,0.477 1.069,0.359 1.068,0.477 1.069,0.479 1.195,0.479 1.069,0.597 0.95,0.479 1.076,0.597 1.069,0.597 0.949,0.599 1.075,0.717 0.951,0.596 0.956,0.719 0.949,0.717 0.948,0.716 -0.709,0.958 -0.598,0.956 -0.71,0.956 -0.718,0.957 -0.709,1.075 -0.599,0.956 -0.717,0.957 -0.711,0.956 -0.596,0.956 -0.712,0.957 -0.716,0.956 -0.598,0.956 -0.71,1.076 -0.718,0.956 -0.71,0.956 -0.597,0.956 -0.711,0.956 -0.956,-0.716 -1.068,-0.598 -0.95,-0.598 -0.956,-0.717 -1.068,-0.477 -0.958,-0.599 -1.068,-0.479 -0.949,-0.477 -1.076,-0.479 -0.949,-0.477 -1.068,-0.359 -0.956,-0.478 -1.31,-0.358 -1.188,-0.36 -1.188,-0.357 -1.196,-0.24 -1.188,-0.239 -1.188,-0.24 -1.188,-0.12 -1.196,-0.118 -1.068,-0.12 h -1.189 -1.427 l -1.308,0.238 -1.196,0.24 -1.068,0.239 -0.949,0.479 -0.837,0.477 -1.07,0.957 -0.717,1.076 -0.469,1.076 -0.122,1.195 v 0.24 l 0.122,1.553 0.589,1.315 0.479,0.717 0.829,0.838 1.076,0.597 0.949,0.597 1.188,0.479 1.315,0.479 1.428,0.477 0.949,0.239 0.95,0.358 1.076,0.239 1.068,0.359 1.188,0.24 1.316,0.358 1.308,0.358 1.308,0.36 1.306,0.238 1.188,0.359 1.308,0.359 1.196,0.238 1.19,0.359 1.188,0.359 1.068,0.358 1.196,0.359 1.069,0.359 1.068,0.358 1.315,0.471 1.188,0.599 1.188,0.477 1.189,0.597 1.076,0.599 1.069,0.597 0.948,0.598 0.956,0.717 0.951,0.597 0.949,0.838 0.956,0.836 0.83,0.957 0.836,0.836 0.71,0.957 0.718,1.075 0.59,0.956 0.599,1.077 0.477,0.956 0.359,1.075 0.352,1.076 0.239,1.076 0.238,1.196 0.239,1.196 0.12,1.195 0.12,1.314 v 1.315 0.239 1.316 z m -83.459,23.902 h -1.194 -1.188 -1.188 -1.188 -1.196 -1.19 -1.186 -1.19 -1.314 -1.188 -1.188 -1.188 -1.198 -1.186 -1.19 -1.188 -1.196 -1.188 -1.188 -1.188 -1.189 -1.195 -1.188 -1.188 -1.189 -1.196 -1.188 -1.188 -1.308 -1.195 -1.189 -1.188 -1.188 -1.195 -1.189 -1.188 -1.189 -1.195 -1.188 -1.188 -1.189 -1.196 -1.187 -1.189 -1.188 -1.195 -1.189 -1.308 -1.188 -1.188 -1.196 -1.188 -1.19 -1.186 -1.195 -1.189 -1.188 v -1.196 -1.196 -1.195 -1.189 -1.196 -1.195 -1.195 -1.194 -1.196 -1.196 -1.195 -1.196 -1.196 -1.195 -1.196 -1.194 -1.195 -1.196 -1.076 -1.196 -1.195 -1.194 -1.196 -1.196 -1.195 -1.196 -1.196 -1.195 -1.194 -1.195 -1.196 -1.196 -1.195 -1.196 -1.196 -1.194 -1.196 -1.195 -1.195 -1.196 -1.194 -1.19 -1.194 -1.196 -1.196 -1.195 -1.195 -1.196 -1.194 -1.196 -1.196 -1.195 -1.196 -1.195 -1.076 -1.194 -1.196 -1.196 -1.195 -1.196 -1.195 -1.196 -1.194 -1.196 -1.195 -1.196 -1.196 -1.195 -1.194 -1.196 -1.195 -1.196 -1.196 h 1.188 1.189 1.195 1.186 1.19 1.188 1.196 1.188 1.188 1.189 1.195 1.189 1.187 1.189 1.075 1.189 1.188 1.189 1.195 1.188 1.188 1.189 1.195 1.188 1.188 1.189 1.196 1.188 1.188 1.188 1.196 1.19 1.186 1.188 1.19 1.196 1.188 1.188 1.188 1.196 1.188 1.188 1.188 1.077 1.188 1.188 1.189 1.195 1.188 1.188 1.188 1.196 1.188 1.188 1.189 1.195 1.189 1.188 v 1.196 1.076 1.195 1.196 1.194 1.076 1.196 1.196 1.075 1.196 1.195 1.077 1.195 1.194 1.196 1.076 1.196 h -1.188 -1.189 -1.195 -1.189 -1.188 -1.188 -1.076 -1.188 -1.188 -1.189 -1.195 -1.188 -1.189 -1.188 -1.196 -1.188 -1.188 -1.188 -1.196 -1.068 -1.19 -1.188 -1.196 -1.186 -1.19 -1.188 -1.196 -1.188 -1.188 -1.188 -1.196 -1.189 -1.068 -1.188 -1.195 -1.189 -1.188 -1.189 -1.195 v 1.195 1.195 1.194 1.196 1.196 1.076 1.195 1.196 1.195 1.196 1.194 1.196 h 1.195 1.189 1.188 1.189 1.195 1.188 1.188 1.189 1.076 1.188 1.188 1.188 1.196 1.188 1.19 1.186 1.196 1.188 1.19 1.188 1.194 1.188 1.19 1.189 1.195 1.188 1.069 1.188 1.195 1.189 1.188 1.188 1.195 1.189 1.188 v 1.195 1.076 1.189 1.195 1.076 1.195 1.196 1.076 1.196 1.194 1.196 1.075 1.195 1.196 1.077 1.195 h -1.188 -1.189 -1.195 -1.188 -1.188 -1.189 -1.195 -1.188 -1.069 -1.188 -1.195 -1.189 -1.19 -1.188 -1.194 -1.188 -1.19 -1.188 -1.196 -1.186 -1.19 -1.188 -1.196 -1.188 -1.188 -1.188 -1.076 -1.189 -1.188 -1.188 -1.195 -1.189 -1.188 -1.189 -1.195 v 1.194 1.316 1.195 1.196 1.315 1.196 1.194 1.315 1.195 1.196 1.314 1.195 h 1.195 1.189 1.188 1.189 1.195 1.188 1.188 1.189 1.195 1.308 1.188 1.188 1.196 1.189 1.188 1.188 1.195 1.189 1.188 1.188 1.188 1.196 1.188 1.19 1.186 1.198 1.188 1.188 1.188 1.314 1.19 1.186 1.19 1.196 1.188 1.188 1.188 1.194 1.19 v 1.196 1.076 1.196 1.195 1.196 1.076 1.194 1.195 1.077 1.195 1.195 1.077 1.188 1.195 1.194 1.078 1.196 z m -86.952,0 h -1.188 -1.189 -1.313 -1.188 -1.19 -1.188 -1.196 -1.188 -1.308 -1.188 -1.189 -1.195 -1.188 -1.188 -1.308 -1.196 -1.188 -1.189 v -1.196 -1.196 -1.195 -1.196 -1.203 -1.194 -1.196 -1.196 -1.195 -1.195 -1.196 -1.201 -1.196 -1.196 -1.195 -1.196 -1.202 -1.196 -1.195 -1.195 -1.196 -1.194 -1.203 -1.195 -1.196 -1.196 -1.194 -1.196 -1.203 -1.196 -1.195 -1.194 -1.195 -1.196 -1.203 -1.194 -1.196 -1.195 -1.196 -1.203 -1.194 -1.196 -1.196 l -0.596,0.956 -0.711,1.084 -0.598,0.956 -0.71,0.957 -0.597,1.075 -0.719,0.957 -0.589,0.956 -0.599,1.083 -0.709,0.956 -0.599,0.956 -0.716,0.957 -0.59,1.083 -0.718,0.956 -0.59,0.956 -0.599,1.076 -0.717,0.962 -0.591,0.958 -0.717,1.074 -0.59,0.958 -0.717,0.956 -0.591,1.082 -0.598,0.958 -0.716,0.956 -0.591,1.076 -0.717,0.962 -0.591,0.956 -0.717,0.958 -0.599,1.074 -0.591,0.963 -0.716,0.957 -0.59,1.076 -0.718,0.956 -0.597,0.956 -0.711,1.084 -0.597,0.956 h -0.472 l -0.716,-1.076 -0.599,-0.964 -0.71,-1.076 -0.598,-0.956 -0.71,-1.074 -0.598,-0.964 -0.709,-1.076 -0.599,-0.958 -0.717,-1.074 -0.591,-0.956 -0.717,-1.084 -0.589,-0.956 -0.718,-1.076 -0.598,-0.956 -0.71,-1.083 -0.598,-0.956 -0.71,-1.076 -0.717,-0.956 -0.597,-1.083 -0.711,-0.956 -0.597,-1.076 -0.711,-0.956 -0.597,-1.084 -0.711,-0.956 -0.597,-1.076 -0.718,-0.956 -0.59,-1.076 -0.718,-0.964 -0.59,-1.074 -0.718,-0.958 -0.597,-1.076 -0.709,-0.954 -0.6,-1.084 -0.71,-0.956 v 1.194 1.196 1.196 1.202 1.196 1.194 1.196 1.196 1.202 1.196 1.076 1.194 1.196 1.195 1.203 1.196 1.194 1.195 1.196 1.196 1.201 1.196 1.196 1.195 1.196 1.195 1.202 1.195 1.196 1.195 1.196 1.201 1.077 1.195 1.195 1.196 1.196 1.194 1.203 1.196 1.195 1.196 1.196 h -1.188 -1.194 -1.19 -1.188 -1.188 -1.194 -1.19 -1.188 -1.189 -1.195 -1.188 -1.189 -1.188 -1.195 -1.188 -1.189 -1.189 -1.195 -1.188 v -1.196 -1.196 -1.195 -1.189 -1.196 -1.195 -1.195 -1.194 -1.196 -1.196 -1.195 -1.196 -1.196 -1.195 -1.196 -1.194 -1.195 -1.196 -1.076 -1.196 -1.195 -1.194 -1.196 -1.196 -1.195 -1.196 -1.196 -1.195 -1.194 -1.195 -1.196 -1.196 -1.195 -1.196 -1.196 -1.194 -1.196 -1.195 -1.195 -1.196 -1.194 -1.19 -1.194 -1.196 -1.196 -1.195 -1.195 -1.196 -1.194 -1.196 -1.196 -1.195 -1.196 -1.195 -1.076 -1.194 -1.196 -1.196 -1.195 -1.196 -1.195 -1.196 -1.194 -1.196 -1.195 -1.196 -1.196 -1.195 -1.194 -1.196 -1.195 -1.196 -1.196 h 1.188 1.195 1.07 1.187 1.189 1.195 1.069 1.188 1.196 1.188 1.07 1.188 1.196 1.188 1.068 1.188 1.196 1.189 1.068 1.188 1.196 l 0.591,0.957 0.597,1.075 0.709,0.949 0.599,1.076 0.597,0.956 0.591,1.078 0.597,0.948 0.712,1.077 0.596,0.956 0.599,0.956 0.591,1.068 0.597,0.957 0.711,1.075 0.597,0.957 0.597,1.068 0.591,0.956 0.717,0.956 0.599,1.071 0.589,0.955 0.598,1.076 0.592,0.957 0.717,1.068 0.597,0.957 0.59,1.075 0.598,0.949 0.591,0.956 0.717,1.076 0.598,0.958 0.59,1.076 0.598,0.949 0.59,1.076 0.719,0.956 0.597,1.068 0.591,0.957 0.597,-0.957 0.598,-1.068 0.71,-0.956 0.596,-1.076 0.592,-0.949 0.598,-1.076 0.71,-0.958 0.598,-1.076 0.598,-0.956 0.59,-0.949 0.717,-1.075 0.591,-0.957 0.598,-1.068 0.596,-0.957 0.711,-1.076 0.597,-0.955 0.599,-1.071 0.589,-0.956 0.6,-0.956 0.71,-1.068 0.597,-0.957 0.597,-1.075 0.592,-0.957 0.716,-1.068 0.592,-0.956 0.596,-0.956 0.599,-1.077 0.709,-0.948 0.599,-1.078 0.589,-0.956 0.599,-1.076 0.717,-0.949 0.591,-1.075 0.597,-0.957 h 1.188 1.19 1.074 1.19 1.188 1.188 1.076 1.189 1.187 1.189 1.076 1.188 1.188 1.189 1.075 1.189 1.188 1.188 1.076 1.188 1.188 v 1.196 1.196 1.195 1.196 1.194 1.195 1.196 1.196 1.195 1.196 1.194 1.196 1.195 1.196 1.195 1.196 1.196 1.194 1.076 1.195 1.196 1.195 1.196 1.196 1.194 1.196 1.195 1.195 1.196 1.196 1.194 1.19 1.194 1.196 1.195 1.195 1.196 1.194 1.196 1.196 1.195 1.196 1.196 1.195 1.194 1.195 1.196 1.196 1.195 1.196 1.196 1.194 1.195 1.196 1.076 1.196 1.195 1.194 1.196 1.195 1.196 1.196 1.195 1.196 1.196 1.194 1.195 1.195 1.196 1.189 1.195 1.196 1.196 z m -138.078,-35.855 -0.359,-1.083 -0.471,-1.196 -0.478,-1.076 -0.359,-1.082 -0.471,-1.076 -0.477,-1.196 -0.36,-1.083 -0.479,-1.076 -0.469,-1.075 -0.36,-1.082 -0.479,-1.196 -0.35,-1.076 -0.479,-1.083 -0.479,-1.076 -0.357,-1.076 -0.472,-1.201 -0.477,-1.078 -0.359,-1.074 -0.479,-1.083 -0.47,-1.196 -0.359,-1.083 -0.479,-1.076 -0.47,1.076 -0.358,1.083 -0.478,1.196 -0.479,1.083 -0.352,1.074 -0.477,1.078 -0.479,1.201 -0.471,1.076 -0.36,1.076 -0.477,1.083 -0.479,1.076 -0.352,1.196 -0.477,1.082 -0.479,1.075 -0.357,1.076 -0.472,1.083 -0.479,1.196 -0.477,1.076 -0.351,1.082 -0.478,1.076 -0.479,1.196 -0.359,1.083 -0.47,1.076 h 1.188 1.188 1.189 1.195 1.188 1.188 1.189 1.196 1.068 1.188 1.196 1.188 1.188 1.189 1.188 1.195 1.188 z m 37.373,35.855 h -1.195 -1.07 -1.187 -1.196 -1.188 -1.189 -1.068 -1.196 -1.188 -1.188 -1.19 -1.194 -1.07 -1.188 -1.189 -1.195 -1.188 -1.069 -1.188 -1.195 l -0.472,-1.078 -0.358,-1.076 -0.478,-1.076 -0.478,-1.194 -0.352,-1.07 -0.478,-1.074 -0.478,-1.076 -0.352,-1.076 -0.478,-1.076 -0.478,-1.076 -0.358,-1.076 -0.472,-1.195 -0.478,-1.076 -0.359,-1.076 -0.479,-1.076 h -1.188 -1.188 -1.188 -1.188 -1.076 -1.189 -1.188 -1.195 -1.188 -1.189 -1.188 -1.188 -1.196 -1.188 -1.068 -1.196 -1.189 -1.188 -1.188 -1.195 -1.189 -1.188 -1.188 -1.188 -1.078 -1.186 -1.19 -1.196 -1.188 l -0.47,1.076 -0.359,1.076 -0.479,1.076 -0.477,1.195 -0.352,1.076 -0.477,1.076 -0.479,1.076 -0.359,1.076 -0.47,1.076 -0.479,1.074 -0.359,1.07 -0.472,1.194 -0.477,1.076 -0.359,1.076 -0.478,1.078 h -1.188 -1.188 -1.188 -1.196 -1.188 -1.308 -1.188 -1.19 -1.194 -1.188 -1.188 -1.19 -1.196 -1.186 -1.188 -1.308 -1.196 -1.188 -1.19 -1.188 l 0.471,-1.078 0.479,-1.076 0.477,-1.076 0.472,-1.194 0.359,-1.07 0.478,-1.074 0.478,-1.076 0.47,-1.076 0.479,-1.076 0.479,-1.196 0.47,-1.076 0.479,-1.075 0.357,-1.076 0.479,-1.076 0.471,-1.076 0.478,-1.195 0.478,-1.076 0.472,-1.077 0.478,-1.075 0.478,-1.076 0.358,-1.076 0.471,-1.196 0.479,-1.074 0.478,-1.076 0.471,-1.076 0.479,-1.076 0.478,-1.076 0.471,-1.196 0.359,-1.075 0.478,-1.076 0.478,-1.076 0.472,-1.076 0.477,-1.076 0.477,-1.195 0.472,-1.076 0.478,-1.076 0.358,-1.076 0.479,-1.074 0.471,-1.076 0.478,-1.196 0.479,-1.076 0.471,-1.076 0.477,-1.076 0.479,-1.075 0.358,-1.077 0.472,-1.068 0.478,-1.196 0.477,-1.075 0.472,-1.077 0.477,-1.076 0.479,-1.075 0.471,-1.076 0.358,-1.196 0.479,-1.075 0.477,-1.076 0.472,-1.076 0.479,-1.076 0.477,-1.076 0.472,-1.196 0.478,-1.074 0.358,-1.076 0.478,-1.076 0.472,-1.076 0.477,-1.076 0.479,-1.195 0.47,-1.076 0.479,-1.076 0.479,-1.076 0.35,-1.075 0.479,-1.077 0.479,-1.195 0.478,-1.076 0.471,-1.076 0.479,-1.076 0.477,-1.076 0.471,-1.074 0.36,-1.196 0.477,-1.076 0.479,-1.076 0.47,-1.076 h 1.188 1.076 1.188 1.188 1.196 1.068 1.188 1.19 1.196 1.069 1.187 1.189 1.195 1.069 1.188 1.188 1.196 1.068 1.189 l 0.478,1.076 0.478,1.076 0.472,1.076 0.478,1.196 0.358,1.074 0.471,1.076 0.479,1.076 0.477,1.076 0.479,1.076 0.47,1.195 0.479,1.077 0.479,1.075 0.35,1.076 0.479,1.076 0.479,1.076 0.478,1.195 0.471,1.076 0.477,1.076 0.479,1.076 0.471,1.076 0.358,1.074 0.478,1.196 0.472,1.076 0.478,1.076 0.478,1.076 0.478,1.076 0.471,1.075 0.477,1.196 0.36,1.076 0.471,1.075 0.477,1.076 0.479,1.077 0.479,1.075 0.47,1.196 0.479,1.068 0.477,1.077 0.352,1.075 0.478,1.076 0.478,1.076 0.472,1.076 0.478,1.196 0.478,1.076 0.479,1.074 0.471,1.076 0.358,1.076 0.478,1.076 0.472,1.195 0.477,1.076 0.479,1.076 0.477,1.076 0.472,1.076 0.479,1.075 0.357,1.196 0.472,1.076 0.477,1.076 0.479,1.076 0.471,1.076 0.478,1.074 0.479,1.196 0.479,1.076 0.35,1.076 0.479,1.075 0.479,1.077 0.47,1.076 0.478,1.195 0.478,1.076 0.478,1.076 0.47,1.076 0.36,1.075 0.479,1.076 0.471,1.196 0.477,1.076 0.477,1.076 0.472,1.076 0.478,1.074 0.478,1.07 0.36,1.194 0.47,1.076 0.478,1.076 0.478,1.078 z m -104.257,-11.112 -0.956,0.717 -0.831,0.599 -0.956,0.717 -0.949,0.597 -0.95,0.718 -0.956,0.597 -0.949,0.599 -1.076,0.596 -1.069,0.598 -1.07,0.598 -1.074,0.47 -1.07,0.599 -1.188,0.477 -1.068,0.479 -1.196,0.477 -1.068,0.479 -1.07,0.359 -1.075,0.358 -1.069,0.36 -1.188,0.358 -1.068,0.36 -1.196,0.238 -1.07,0.239 -1.188,0.239 -1.194,0.238 -1.19,0.12 -1.308,0.12 -1.188,0.12 -1.308,0.119 -1.196,0.12 -1.306,0.119 h -1.308 -1.31 -1.306 -1.196 l -1.188,-0.119 -1.308,-0.12 -1.188,-0.119 -1.188,-0.12 -1.196,-0.12 -1.188,-0.238 -1.19,-0.24 -1.068,-0.239 -1.194,-0.239 -1.07,-0.358 -1.188,-0.239 -1.076,-0.36 -1.069,-0.477 -1.069,-0.359 -1.187,-0.479 -1.076,-0.477 -1.069,-0.477 -1.068,-0.479 -1.078,-0.597 -0.948,-0.592 -1.069,-0.598 -0.956,-0.598 -0.949,-0.596 -0.956,-0.719 -0.95,-0.716 -0.95,-0.717 -0.836,-0.718 -0.83,-0.717 -0.837,-0.837 -0.829,-0.716 -0.838,-0.838 -0.829,-0.837 -0.717,-0.836 -0.711,-0.956 -0.717,-0.837 -0.598,-0.956 -0.71,-0.958 -0.596,-0.954 -0.592,-0.958 -0.5977,-1.076 -0.5973,-0.956 -0.4707,-1.076 -0.4787,-1.076 -0.4773,-1.076 -0.472,-1.074 -0.3587,-0.956 -0.4786,-1.078 -0.2387,-1.076 -0.352,-1.074 -0.2387,-1.195 -0.3586,-1.077 -0.2387,-1.195 -0.12,-1.076 -0.24,-1.196 -0.1174,-1.075 -0.1213,-1.196 -0.112,-1.196 -0.1186,-1.194 v -1.315 -1.196 -0.239 -1.196 l 0.1186,-1.314 v -1.195 l 0.112,-1.196 0.1213,-1.315 0.2387,-1.188 0.1187,-1.196 0.2387,-1.076 0.3586,-1.194 0.24,-1.196 0.3507,-1.076 0.3587,-1.195 0.3586,-1.076 0.4787,-1.196 0.472,-1.075 0.4773,-1.076 0.4787,-1.076 0.4707,-1.076 0.5973,-1.076 0.5977,-0.956 0.592,-0.957 0.596,-0.956 0.598,-0.956 0.71,-0.956 0.717,-0.956 0.711,-0.956 0.717,-0.839 0.829,-0.836 0.718,-0.837 0.83,-0.835 0.836,-0.838 0.83,-0.716 0.956,-0.838 0.83,-0.717 0.95,-0.717 0.956,-0.598 0.949,-0.717 0.957,-0.597 0.948,-0.598 1.07,-0.598 1.076,-0.598 1.068,-0.597 1.069,-0.479 1.075,-0.477 1.189,-0.599 0.949,-0.357 1.188,-0.36 1.078,-0.477 1.068,-0.24 1.068,-0.359 1.194,-0.239 1.07,-0.358 1.188,-0.239 1.189,-0.12 1.195,-0.239 1.189,-0.12 1.187,-0.118 1.189,-0.12 1.196,-0.12 h 1.308 1.188 1.307 1.308 l 1.316,0.12 1.308,0.12 h 1.188 l 1.188,0.118 1.308,0.24 1.076,0.119 1.188,0.24 1.189,0.239 1.075,0.238 1.068,0.239 1.07,0.24 1.076,0.359 1.068,0.238 0.95,0.359 1.076,0.359 1.069,0.477 1.068,0.479 1.076,0.478 1.069,0.598 1.068,0.478 0.958,0.598 1.068,0.597 0.949,0.597 1.076,0.599 0.949,0.716 0.95,0.599 0.956,0.717 0.949,0.717 0.956,0.836 0.949,0.718 -0.717,0.957 -0.829,0.836 -0.718,0.956 -0.829,0.956 -0.717,0.957 -0.711,0.836 -0.837,0.956 -0.71,0.956 -0.717,0.839 -0.831,0.956 -0.716,0.956 -0.83,0.956 -0.718,0.837 -0.709,0.956 -0.836,0.956 -0.712,0.956 -0.836,0.838 -0.711,0.956 -0.956,-0.718 -0.949,-0.836 -0.956,-0.598 -0.949,-0.718 -0.95,-0.597 -0.956,-0.599 -0.95,-0.596 -1.068,-0.598 -0.956,-0.478 -0.95,-0.478 -0.956,-0.359 -1.069,-0.359 -1.068,-0.358 -1.076,-0.239 -1.188,-0.24 -1.188,-0.239 -1.189,-0.118 -1.308,-0.12 -1.315,-0.119 h -1.308 -1.188 l -1.188,0.119 -1.076,0.12 -1.188,0.238 -1.069,0.24 -1.076,0.358 -1.068,0.358 -1.07,0.479 -1.069,0.477 -0.956,0.598 -0.948,0.598 -0.957,0.599 -0.83,0.716 -0.837,0.717 -0.829,0.718 -0.718,0.836 -0.829,0.837 -0.717,0.956 -0.592,0.837 -0.598,0.956 -0.589,1.076 -0.599,0.956 -0.477,1.076 -0.359,1.076 -0.472,1.076 -0.358,1.195 -0.239,1.189 -0.239,1.075 -0.24,1.316 -0.118,1.195 -0.112,1.194 v 1.316 0.239 1.196 l 0.112,1.195 0.118,1.076 0.12,1.196 0.239,1.074 0.24,1.078 0.239,1.074 0.358,1.076 0.352,0.956 0.479,1.195 0.477,1.077 0.591,1.076 0.597,0.956 0.598,0.956 0.71,0.958 0.718,0.836 0.829,0.837 0.719,0.836 0.828,0.717 0.957,0.718 0.949,0.717 0.948,0.597 0.956,0.598 1.071,0.478 1.068,0.479 1.075,0.477 1.189,0.359 1.188,0.359 1.196,0.24 1.188,0.238 1.188,0.119 1.308,0.12 h 1.308 1.427 l 1.316,-0.12 1.308,-0.119 1.188,-0.12 1.188,-0.24 1.196,-0.238 1.188,-0.358 1.068,-0.24 1.07,-0.477 0.956,-0.479 1.068,-0.478 0.836,-0.478 0.951,-0.598 v -1.195 -1.195 -1.196 -1.194 -1.316 -1.195 -1.196 -1.195 -1.196 h -1.189 -1.075 -1.189 -1.188 -1.188 -1.076 -1.19 -1.188 -1.188 -1.074 -1.19 -1.188 -1.189 -1.075 -1.189 v -1.194 -1.076 -1.196 -1.195 -1.196 -1.076 -1.195 -1.196 -1.194 -1.078 -1.194 -1.195 -1.196 -1.076 -1.188 h 1.189 1.195 1.189 1.187 1.189 1.188 1.196 1.188 1.188 1.19 1.194 1.188 1.188 1.188 1.196 1.19 1.188 1.188 1.194 1.19 1.188 1.188 1.194 1.19 1.188 1.188 1.196 1.188 1.189 1.188 1.195 1.188 1.189 v 1.188 1.195 1.196 1.076 1.194 1.196 1.195 1.196 1.196 1.075 1.196 1.196 1.194 1.196 1.195 1.196 1.075 1.196 1.196 1.196 1.194 1.196 1.195 1.076 1.195 1.196 1.196 1.194 1.195 1.077 1.195 1.195 1.196 z"
         fill="#343434"
         id="path280"
         style="fill:#3d4042;fill-opacity:1;stroke:none;stroke-width:0;stroke-dasharray:none" /><path
         d="m 139.274,261.037 h 51.578 v -39.896 h -51.578 v -81.448 h 53.631 V 99.7973 H 95.4757 V 387.732 h 98.2453 v -39.897 h -54.447 z"
         fill="#343434"
         id="path282"
         style="fill:#3d4042;fill-opacity:1;stroke:none;stroke-width:0;stroke-dasharray:none" /><path
         d="m 508.708,269.68 v 64.992 c 0,11.519 -5.324,16.863 -16.371,16.863 h -8.192 c -11.46,0 -16.784,-5.344 -16.784,-16.863 V 152.856 c 0,-11.517 5.324,-16.861 16.784,-16.861 h 7.37 c 11.053,0 16.377,5.344 16.377,16.861 v 56.359 h 42.977 v -58.827 c 0,-35.783 -17.193,-53.0599 -52.8,-53.0599 h -21.292 c -35.608,0 -53.216,17.6849 -53.216,53.4749 v 185.922 c 0,35.791 17.608,53.475 53.216,53.475 h 21.699 c 35.616,0 53.215,-17.684 53.215,-53.475 V 269.68 Z"
         fill="#343434"
         id="path284"
         style="fill:#3d4042;fill-opacity:1;stroke:none;stroke-width:0;stroke-dasharray:none" /><path
         d="m 356.608,387.732 h 43.805 V 99.7964 h -43.805 z"
         fill="#343434"
         id="path286"
         style="fill:#3d4042;fill-opacity:1;stroke:none;stroke-width:0;stroke-dasharray:none" /><path
         d="m 293.049,227.722 c 0,11.518 -5.316,16.869 -16.369,16.869 H 258.665 V 138.463 h 18.015 c 11.053,0 16.369,5.345 16.369,16.861 z M 283.635,99.7964 h -68.77 V 387.732 h 43.8 V 283.25 h 24.97 c 35.614,0 53.214,-17.684 53.214,-53.467 v -76.512 c 0,-35.789 -17.6,-53.4746 -53.214,-53.4746"
         fill="#343434"
         id="path288"
         style="fill:#3d4042;fill-opacity:1;stroke:none;stroke-width:0;stroke-dasharray:none" /><path
         fill-rule="evenodd"
         clip-rule="evenodd"
         d="M 198.805,648.083 H 449.544 L 321.562,690.289 Z"
         fill="#343434"
         id="path290"
         style="fill:#3d4042;fill-opacity:1;stroke:none;stroke-width:0;stroke-dasharray:none" /></g></g></svg>
