<?xml version="1.0" encoding="UTF-8" standalone="no"?>
<svg
   inkscape:version="1.2.2 (b0a8486541, 2022-12-01)"
   sodipodi:docname="overwatch.svg"
   id="svg12"
   version="1.1"
   viewBox="0 0 16.933 16.933"
   height="64"
   width="64"
   xml:space="preserve"
   xmlns:inkscape="http://www.inkscape.org/namespaces/inkscape"
   xmlns:sodipodi="http://sodipodi.sourceforge.net/DTD/sodipodi-0.dtd"
   xmlns="http://www.w3.org/2000/svg"
   xmlns:svg="http://www.w3.org/2000/svg"><defs
     id="defs16"><linearGradient
       id="linearGradient1229"
       inkscape:swatch="solid"><stop
         style="stop-color:#000000;stop-opacity:1;"
         offset="0"
         id="stop1227" /></linearGradient><rect
       x="4.4382802"
       y="5.592233"
       width="31.334258"
       height="14.401861"
       id="rect2126" /><rect
       x="4.4382801"
       y="5.5922332"
       width="31.334257"
       height="14.401861"
       id="rect2126-3" /></defs><sodipodi:namedview
     id="namedview14"
     pagecolor="#505050"
     bordercolor="#eeeeee"
     borderopacity="1"
     inkscape:showpageshadow="0"
     inkscape:pageopacity="0"
     inkscape:pagecheckerboard="0"
     inkscape:deskcolor="#505050"
     showgrid="false"
     inkscape:zoom="11.265625"
     inkscape:cx="28.316227"
     inkscape:cy="33.553398"
     inkscape:window-width="1920"
     inkscape:window-height="972"
     inkscape:window-x="0"
     inkscape:window-y="0"
     inkscape:window-maximized="1"
     inkscape:current-layer="svg12" /><circle
     cx="8.4664993"
     cy="8.4664993"
     fill="#32a3d7"
     style="fill:#ffffff;fill-opacity:1;stroke-width:0.999946;paint-order:stroke fill markers"
     id="circle2"
     r="7.1436095" /><g
     id="g901"
     transform="matrix(0.30610671,0,0,0.30630292,2.9121938,2.9046011)"><path
       d="m 18.15,5.18 a 13,13 0 0 1 8.51,3.19 L 30.33,4.7 A 18.15,18.15 0 0 0 6,4.7 l 3.63,3.67 a 13,13 0 0 1 8.52,-3.19 z"
       fill="#333f49"
       id="path877"
       style="fill:#e68900;fill-opacity:1" /><path
       d="m 31.43,5.78 -3.67,3.67 a 13,13 0 0 1 1.7,15 l -7.27,-7 -3.28,-7.9 v 11.89 l 7.2,6.93 a 12.95,12.95 0 0 1 -15.93,0 l 7.2,-6.93 V 9.55 l -3.28,7.92 -7.27,7 a 13,13 0 0 1 1.7,-15 L 4.86,5.78 a 18.15,18.15 0 1 0 26.57,0 z"
       fill="#333f49"
       id="path879" /></g></svg>
