<?xml version="1.0" encoding="UTF-8" standalone="no"?>
<svg
   width="64"
   height="64"
   viewBox="0 0 16.933 16.933"
   version="1.1"
   id="svg38"
   sodipodi:docname="emulsion-alt.svg"
   inkscape:version="1.2.2 (b0a8486541, 2022-12-01)"
   xmlns:inkscape="http://www.inkscape.org/namespaces/inkscape"
   xmlns:sodipodi="http://sodipodi.sourceforge.net/DTD/sodipodi-0.dtd"
   xmlns="http://www.w3.org/2000/svg"
   xmlns:svg="http://www.w3.org/2000/svg">
  <defs
     id="defs42" />
  <sodipodi:namedview
     id="namedview40"
     pagecolor="#505050"
     bordercolor="#eeeeee"
     borderopacity="1"
     inkscape:showpageshadow="0"
     inkscape:pageopacity="0"
     inkscape:pagecheckerboard="0"
     inkscape:deskcolor="#505050"
     showgrid="false"
     inkscape:zoom="6.4744465"
     inkscape:cx="10.502828"
     inkscape:cy="28.110511"
     inkscape:window-width="1920"
     inkscape:window-height="972"
     inkscape:window-x="0"
     inkscape:window-y="0"
     inkscape:window-maximized="1"
     inkscape:current-layer="svg38" />
  <g
     stroke-width="0.963"
     id="g26"
     transform="matrix(0.99996573,0,0,1,4.2714738e-4,0)">
    <path
       d="m 13.323,3.603 c -0.048,0.049 2.02,4.86 2.02,4.86 l -2.02,4.858 c 0,0 -4.86,-2.568 -4.86,-4.859 0,-2.29 4.86,-4.859 4.86,-4.859 z"
       fill="#46a926"
       style="isolation:isolate"
       transform="matrix(1.0382,0,0,1.0384,-0.322,-0.322)"
       id="path2" />
    <path
       d="M 3.604,13.321 C 3.653,13.272 1.584,8.462 1.584,8.462 l 2.02,-4.859 c 0,0 4.86,2.569 4.86,4.86 0,2.29 -4.86,4.858 -4.86,4.858 z"
       fill="#f22c42"
       style="isolation:isolate"
       transform="matrix(1.0382,0,0,1.0384,-0.322,-0.322)"
       id="path4" />
    <path
       d="M 13.323,3.603 C 13.275,3.652 8.463,1.584 8.463,1.584 l -4.86,2.019 4.86,4.86 z"
       fill="#ffda64"
       style="isolation:isolate"
       transform="matrix(1.0382,0,0,1.0384,-0.322,-0.322)"
       id="path6" />
    <path
       d="m 3.604,13.321 4.86,2.013 c 0,0 4.81,-2.062 4.86,-2.013 L 8.464,8.462 Z"
       fill="#2f5fdd"
       style="isolation:isolate"
       transform="matrix(1.0382,0,0,1.0384,-0.322,-0.322)"
       id="path8" />
    <path
       d="m 8.464,1.587 a 6.846,6.846 0 0 0 2.019,4.862 L 13.328,3.605 A 6.88,6.88 0 0 0 8.467,1.587 Z"
       fill="#a6d74f"
       style="isolation:isolate"
       transform="matrix(1.0382,0,0,1.0384,-0.322,-0.322)"
       id="path10" />
    <path
       d="M 13.328,3.605 10.483,6.449 A 6.84,6.84 0 0 0 15.346,8.461 6.88,6.88 0 0 0 13.328,3.605 Z"
       fill="#76c22b"
       style="isolation:isolate"
       transform="matrix(1.0382,0,0,1.0384,-0.322,-0.322)"
       id="path12" />
    <path
       d="m 10.476,10.481 a 6.85,6.85 0 0 0 -2.019,4.862 h 0.069 a 6.88,6.88 0 0 0 4.8,-2.013 z"
       fill="#1463a5"
       style="isolation:isolate"
       transform="matrix(1.0382,0,0,1.0384,-0.322,-0.322)"
       id="path14" />
    <path
       d="m 15.346,8.469 a 6.84,6.84 0 0 0 -4.87,2.012 l 2.85,2.85 a 6.88,6.88 0 0 0 2.02,-4.862 z"
       fill="#2b898f"
       style="isolation:isolate"
       transform="matrix(1.0382,0,0,1.0384,-0.322,-0.322)"
       id="path16" />
    <path
       d="m 1.587,8.463 a 6.88,6.88 0 0 0 0,0.003 6.88,6.88 0 0 0 2.014,4.857 l 2.85,-2.848 A 6.839,6.839 0 0 0 1.587,8.464 Z"
       fill="#9b33ae"
       style="isolation:isolate"
       transform="matrix(1.0382,0,0,1.0384,-0.322,-0.322)"
       id="path18" />
    <path
       d="M 6.45,10.475 3.6,13.323 a 6.88,6.88 0 0 0 4.826,2.02 H 8.469 A 6.85,6.85 0 0 0 6.45,10.475 Z"
       fill="#7839b7"
       style="isolation:isolate"
       transform="matrix(1.0382,0,0,1.0384,-0.322,-0.322)"
       id="path20" />
    <path
       d="M 8.467,1.587 A 6.88,6.88 0 0 0 3.609,3.602 l 2.848,2.847 a 6.85,6.85 0 0 0 2.019,-4.861 6.88,6.88 0 0 0 -0.01,0 z"
       fill="#fdc92b"
       style="isolation:isolate"
       transform="matrix(1.0382,0,0,1.0384,-0.322,-0.322)"
       id="path22" />
    <path
       d="M 3.609,3.602 A 6.88,6.88 0 0 0 1.588,8.461 6.84,6.84 0 0 0 6.457,6.449 Z"
       fill="#f34f17"
       style="isolation:isolate"
       transform="matrix(1.0382,0,0,1.0384,-0.322,-0.322)"
       id="path24" />
  </g>
  <g
     color="#000000"
     style="paint-order:fill markers stroke"
     id="g429"
     transform="matrix(0.79803148,0,0,0.79805883,1.7096851,1.7094443)">
    <path
       d="M 10.737,6.328 A 4.41,4.41 0 0 0 10.593,6.333 C 10.585,6.332 10.578,6.328 10.569,6.328 H 6.507 A 0.176,0.176 0 0 0 6.331,6.503 v 4.13 a 4.41,4.41 0 0 0 -0.005,0.104 4.41,4.41 0 0 0 4.41,4.41 4.41,4.41 0 0 0 4.41,-4.41 4.41,4.41 0 0 0 -4.41,-4.41 z"
       fill="#ffffff"
       overflow="visible"
       style="isolation:auto;mix-blend-mode:normal"
       transform="matrix(0.83993,0,0,0.83993,3.153,3.152)"
       id="path423" />
    <path
       d="m 13.004,10.737 a 2.267,2.267 0 0 1 -2.268,2.268 2.267,2.267 0 0 1 -2.267,-2.268 2.267,2.267 0 0 1 2.268,-2.267 2.267,2.267 0 0 1 2.267,2.267 z"
       fill="#5299dc"
       overflow="visible"
       style="isolation:auto;mix-blend-mode:normal;fill:#e68900;fill-opacity:1"
       transform="matrix(0.83993,0,0,0.83993,3.153,3.152)"
       id="path425" />
    <path
       d="m 10.648,9.855 v 0.794 H 9.854 v 0.265 h 0.794 l 0.017,0.793 h 0.248 v -0.793 h 0.793 l 0.017,-0.265 h -0.81 V 9.855 Z"
       fill="#ffffff"
       overflow="visible"
       style="isolation:auto;mix-blend-mode:normal"
       transform="matrix(0.83993,0,0,0.83993,3.153,3.152)"
       id="path427" />
  </g>
</svg>
