<?xml version="1.0" encoding="UTF-8" standalone="no"?>
<svg
   inkscape:version="1.2.2 (b0a8486541, 2022-12-01)"
   sodipodi:docname="protonplus.svg"
   id="svg12"
   version="1.1"
   viewBox="0 0 16.933 16.933"
   height="64"
   width="64"
   xmlns:inkscape="http://www.inkscape.org/namespaces/inkscape"
   xmlns:sodipodi="http://sodipodi.sourceforge.net/DTD/sodipodi-0.dtd"
   xmlns="http://www.w3.org/2000/svg"
   xmlns:svg="http://www.w3.org/2000/svg">
  <defs
     id="defs16">
    <linearGradient
       id="linearGradient1229"
       inkscape:swatch="solid">
      <stop
         style="stop-color:#000000;stop-opacity:1;"
         offset="0"
         id="stop1227" />
    </linearGradient>
    <rect
       x="4.4382802"
       y="5.592233"
       width="31.334258"
       height="14.401861"
       id="rect2126" />
    <rect
       x="4.4382801"
       y="5.5922332"
       width="31.334257"
       height="14.401861"
       id="rect2126-3" />
  </defs>
  <sodipodi:namedview
     id="namedview14"
     pagecolor="#505050"
     bordercolor="#eeeeee"
     borderopacity="1"
     inkscape:showpageshadow="0"
     inkscape:pageopacity="0"
     inkscape:pagecheckerboard="0"
     inkscape:deskcolor="#505050"
     showgrid="false"
     inkscape:zoom="11.917883"
     inkscape:cx="35.24116"
     inkscape:cy="32.891749"
     inkscape:window-width="1920"
     inkscape:window-height="972"
     inkscape:window-x="0"
     inkscape:window-y="0"
     inkscape:window-maximized="1"
     inkscape:current-layer="svg12" />
  <circle
     cx="8.4664993"
     cy="8.4664993"
     fill="#32a3d7"
     style="fill:#fffefe;fill-opacity:1;stroke-width:0.999946;paint-order:stroke fill markers;stroke:none;stroke-opacity:1"
     id="circle2"
     r="7.1436095" />
  <g
     id="g1611"
     transform="matrix(0.96048284,0,0,0.96224517,0.26920908,-0.34177782)">
    <path
       style="fill:#000000;fill-opacity:1;stroke:#5f5f5f;stroke-width:0.0175053;stroke-linecap:round;stroke-linejoin:round;stroke-miterlimit:25.7;stroke-dasharray:none;stroke-opacity:1;paint-order:normal"
       d="m 10.80457,14.123637 0.2328,-1.235497 H 9.6026447 l 0.299152,-1.192297 h 1.3740763 l 0.282696,-1.296407 h 1.16742 l -0.254485,1.296407 1.288106,0.0324 -0.226968,1.138385 -1.249644,0.02152 -0.237255,1.235496 z"
       id="path1009"
       sodipodi:nodetypes="ccccccccccccc" />
    <path
       id="path0"
       d="m 5.6169958,2.7143434 c 0,0 -0.038712,0.2001757 -0.055341,0.2898227 -0.061992,0.3339297 -0.074518,0.2865407 0.1017767,0.3844728 0.021389,0.011878 0.042769,0.025491 0.04752,0.030279 C 6.2573841,3.8549551 6.384474,4.2401031 6.264635,4.8660474 6.0290822,5.8812822 5.873994,6.9959238 5.6355687,8.0014443 c -0.00128,0.00192 -0.243255,0.00777 -0.5376569,0.012956 l -0.5352814,0.0095 -0.078319,0.3542332 c -0.0454,0.187917 -0.043673,0.1994941 0.037415,0.2559988 0.4287097,0.2986358 0.5818938,0.8463582 0.4262474,1.5238077 l 1.523289,0.05085 -1.3147241,0.810287 c -0.2085649,0.112727 -0.1666561,0.107872 -0.2250246,0.521242 -0.046789,0.487575 -0.1788033,0.927294 -0.4301341,1.295154 -0.1415906,0.20724 -0.4961858,0.498778 -0.8337446,0.667039 -0.3076272,0.0673 -0.2166591,0.290888 -0.344902,0.716156 h 4.8860005 c 0.028077,-0.177419 0.066396,-0.352943 0.1014241,-0.529059 0.00393,-0.02365 0.00767,-0.09098 -0.026085,-0.110289 C 8.26368,13.56764 8.0452831,13.44413 7.9431445,13.365225 7.765741,13.228177 7.5556585,12.885633 7.5451257,12.731811 7.4864777,11.875412 7.7569333,10.966545 7.9327772,10.201144 l 0.8892121,-0.0098 c 0.9993472,0.01417 1.8914707,-0.08807 2.6970977,-0.7143415 0.02517,-0.01956 0.06743,-0.051677 0.09439,-0.070672 C 11.837065,9.2488027 12.262472,8.888309 12.432274,8.6022123 14.124307,5.7513315 13.089187,2.9088242 11.179973,2.7250497 10.867085,2.7244622 5.6169976,2.7143324 5.6169976,2.7143324 m 4.5679684,2.2392731 c 0.813397,0 0.886795,1.389788 0.216083,2.3531897 C 10.180132,7.624117 9.8436082,7.8739641 9.5211239,7.9608308 9.3105297,8.0175602 8.4293513,8.0400546 8.3623487,7.9903787 8.3514395,7.9703146 8.3421384,7.9707258 8.3504253,7.9301591 8.8211106,5.6274514 8.4511194,7.4371548 8.9595335,4.9351166"
       stroke="none"
       fill="#040404"
       fill-rule="evenodd"
       sodipodi:nodetypes="ccscccscccccccsccccsssccssscccsscsc"
       style="stroke:#5f5f5f;stroke-width:0.0439833;stroke-linecap:round;stroke-linejoin:round;stroke-miterlimit:25.7;stroke-dasharray:none;stroke-opacity:1;paint-order:normal" />
  </g>
</svg>
