<?xml version="1.0" encoding="UTF-8" standalone="no"?>
<svg
   width="64"
   height="64"
   viewBox="0 0 16.933 16.933"
   version="1.1"
   id="svg267"
   sodipodi:docname="software-properties.svg"
   inkscape:version="1.2.2 (b0a8486541, 2022-12-01)"
   xmlns:inkscape="http://www.inkscape.org/namespaces/inkscape"
   xmlns:sodipodi="http://sodipodi.sourceforge.net/DTD/sodipodi-0.dtd"
   xmlns="http://www.w3.org/2000/svg"
   xmlns:svg="http://www.w3.org/2000/svg">
  <defs
     id="defs271">
    <clipPath
       clipPathUnits="userSpaceOnUse"
       id="clipPath2850">
      <path
         id="path2852"
         style="fill:#205aa0;fill-opacity:1;stroke-width:1;paint-order:stroke markers fill"
         d="M 8.4665164,2.3802804 A 6.0856298,6.08563 0 0 0 2.3808867,8.4659101 6.0856298,6.08563 0 0 0 8.4665164,14.55154 6.0856298,6.08563 0 0 0 14.552146,8.4659101 6.0856298,6.08563 0 0 0 8.4665164,2.3802804 Z" />
    </clipPath>
  </defs>
  <sodipodi:namedview
     id="namedview269"
     pagecolor="#505050"
     bordercolor="#eeeeee"
     borderopacity="1"
     inkscape:showpageshadow="0"
     inkscape:pageopacity="0"
     inkscape:pagecheckerboard="0"
     inkscape:deskcolor="#505050"
     showgrid="false"
     inkscape:zoom="12.015625"
     inkscape:cx="47.313394"
     inkscape:cy="31.708713"
     inkscape:current-layer="svg267" />
  <g
     id="g2228">
    <circle
       cx="8.4659996"
       cy="8.4659996"
       r="7.1440001"
       fill="#4c8cff"
       style="display:inline;paint-order:stroke fill markers"
       id="circle259"
       transform="matrix(0.9999453,0,0,-0.9999453,9.6340303e-4,16.932037)" />
  </g>
  <g
     id="g2220"
     transform="matrix(0.9999453,0,0,-0.9999453,4.466595e-4,16.932037)"
     clip-path="url(#clipPath2850)">
    <circle
       style="fill:#457eff;fill-opacity:1;stroke:none;stroke-width:0.132296;stroke-linecap:round;stroke-linejoin:round;stroke-miterlimit:42.9"
       id="path1209-6"
       cx="6.614368"
       cy="-9.7889633"
       transform="scale(1,-1)"
       r="7.1440001" />
    <circle
       style="fill:#0000ff;fill-opacity:0.1;stroke:none;stroke-width:0.132296;stroke-linecap:round;stroke-linejoin:round;stroke-miterlimit:42.9;stroke-opacity:1"
       id="path1209"
       cx="10.318665"
       cy="-9.7889624"
       r="7.1440001"
       transform="scale(1,-1)" />
  </g>
  <g
     id="g1104"
     transform="matrix(0.99994529,0,0,-0.99994529,9.6340206e-4,16.932037)"
     style="display:inline">
    <path
       id="circle2"
       style="display:inline;fill:#205aa0;fill-opacity:1;stroke-width:0.999998;paint-order:stroke markers fill"
       d="M 8.4659998,1.3219995 A 7.1440001,7.1440001 0 0 0 1.3219995,8.4659998 7.1440001,7.1440001 0 0 0 8.4659998,15.61 7.1440001,7.1440001 0 0 0 15.61,8.4659998 7.1440001,7.1440001 0 0 0 8.4659998,1.3219995 Z m 0,1.0588872 A 6.0852971,6.0852971 0 0 1 14.551113,8.4659998 6.0852971,6.0852971 0 0 1 12.830744,12.699481 H 8.4659998 4.1012554 A 6.0852971,6.0852971 0 0 1 2.3808867,8.4659998 6.0852971,6.0852971 0 0 1 8.4659998,2.3808867 Z" />
    <path
       id="circle2-7"
       style="display:inline;fill:#ffffff;fill-opacity:1;stroke-width:0.999997;paint-order:stroke markers fill"
       d="m 8.4659998,2.3803701 a 6.0856299,6.0856299 0 0 0 -0.4919769,0.02119 6.0852968,6.0852974 0 0 1 0.4919769,-0.02015 6.0852968,6.0852974 0 0 1 0.4919768,0.02015 6.0856299,6.0856299 0 0 0 -0.4919768,-0.02119 z m -0.5622593,0.029457 a 6.0856299,6.0856299 0 0 0 -0.410842,0.05116 6.0852968,6.0852974 0 0 1 0.410842,-0.05116 z m 1.1245185,0 a 6.0852968,6.0852974 0 0 1 0.4108421,0.05116 6.0856299,6.0856299 0 0 0 -0.4108421,-0.05116 z m -1.6511198,0.07287 a 6.0856299,6.0856299 0 0 0 -0.3576134,0.07493 6.0852968,6.0852974 0 0 1 0.3576134,-0.07493 z m 2.1787547,5.17e-4 a 6.0852968,6.0852974 0 0 1 0.3550295,0.0739 6.0856299,6.0856299 0 0 0 -0.3550295,-0.0739 z m -2.6753826,0.111621 a 6.0856299,6.0856299 0 0 0 -0.3281568,0.09767 6.0852968,6.0852974 0 0 1 0.3281568,-0.09767 z m 3.1751117,10e-4 a 6.0852968,6.0852974 0 0 1 0.323505,0.09664 6.0856299,6.0856299 0 0 0 -0.323505,-0.09664 z m -3.6459005,0.146797 a 6.0856299,6.0856299 0 0 0 -0.3126534,0.12196 6.0852968,6.0852974 0 0 1 0.3126534,-0.12196 z m 4.1125545,0 a 6.0852968,6.0852974 0 0 1 0.312653,0.12196 6.0856299,6.0856299 0 0 0 -0.312653,-0.12196 z m -4.5668062,0.183457 a 6.0856299,6.0856299 0 0 0 -0.2981835,0.14625 6.0852968,6.0852974 0 0 1 0.2981835,-0.14625 z m 5.0210582,0 a 6.0852968,6.0852974 0 0 1 0.298183,0.14625 6.0856299,6.0856299 0 0 0 -0.298183,-0.14625 z m -5.4592897,0.22015 a 6.0856299,6.0856299 0 0 0 -0.2930157,0.174155 6.0852968,6.0852974 0 0 1 0.2930157,-0.174155 z m 5.8975207,0 a 6.0852968,6.0852974 0 0 1 0.293016,0.174155 6.0856299,6.0856299 0 0 0 -0.293016,-0.174155 z m -6.3083628,0.248055 a 6.0856299,6.0856299 0 0 0 -0.3188547,0.228418 6.0852968,6.0852974 0 0 1 0.3188547,-0.228418 z m 6.7192048,0 a 6.0852968,6.0852974 0 0 1 0.318855,0.228418 6.0856299,6.0856299 0 0 0 -0.318855,-0.228418 z m -7.1098923,0.28165 A 6.0856299,6.0856299 0 0 0 4.3446599,3.9896311 6.0852968,6.0852974 0 0 1 4.7157097,3.6759441 Z M 4.3446599,3.9896311 A 6.0856299,6.0856299 0 0 0 3.9891136,4.3451771 6.0852968,6.0852974 0 0 1 4.3446599,3.9896311 Z M 12.21629,3.6759441 a 6.0852968,6.0852974 0 0 1 0.37105,0.313687 6.0856299,6.0856299 0 0 0 -0.37105,-0.313687 z m 0.37105,0.313687 a 6.0852968,6.0852974 0 0 1 0.355546,0.355546 6.0856299,6.0856299 0 0 0 -0.355546,-0.355546 z m -8.5987431,0.356063 a 6.0856299,6.0856299 0 0 0 -0.3121366,0.368982 6.0852968,6.0852974 0 0 1 0.3121366,-0.368982 z m 8.9548061,0 a 6.0852968,6.0852974 0 0 1 0.312136,0.368982 6.0856299,6.0856299 0 0 0 -0.312136,-0.368982 z M 3.620131,4.7906431 A 6.0856299,6.0856299 0 0 0 3.3922299,5.1105321 6.0852968,6.0852974 0 0 1 3.620131,4.7906431 Z m 9.693805,0.0031 a 6.0852968,6.0852974 0 0 1 0.222733,0.311103 6.0856299,6.0856299 0 0 0 -0.222733,-0.311103 z m -9.9888878,0.423762 a 6.0856299,6.0856299 0 0 0 -0.1777731,0.297666 6.0852968,6.0852974 0 0 1 0.1777731,-0.297666 z m 10.2906888,0.01344 a 6.0852968,6.0852974 0 0 1 0.168471,0.283197 6.0856299,6.0856299 0 0 0 -0.168471,-0.283197 z M 3.0687241,5.6634891 a 6.0856299,6.0856299 0 0 0 -0.140048,0.287331 6.0852968,6.0852974 0 0 1 0.140048,-0.287331 z m 10.7945509,0 a 6.0852968,6.0852974 0 0 1 0.140048,0.287331 6.0856299,6.0856299 0 0 0 -0.140048,-0.287331 z M 2.8614944,6.1037881 a 6.0856299,6.0856299 0 0 0 -0.1162761,0.298183 6.0852968,6.0852974 0 0 1 0.1162761,-0.298183 z m 11.2090106,0 a 6.0852968,6.0852974 0 0 1 0.116276,0.298183 6.0856299,6.0856299 0 0 0 -0.116276,-0.298183 z M 2.6899226,6.5595901 a 6.0856299,6.0856299 0 0 0 -0.090954,0.304901 6.0852968,6.0852974 0 0 1 0.090954,-0.304901 z m 11.5521544,0 a 6.0852968,6.0852974 0 0 1 0.09095,0.304901 6.0856299,6.0856299 0 0 0 -0.09095,-0.304901 z M 2.5555592,7.0277947 a 6.0856299,6.0856299 0 0 0 -0.068732,0.3281568 6.0852968,6.0852974 0 0 1 0.068732,-0.3281568 z m 11.8208808,0 A 6.0852968,6.0852974 0 0 1 14.44517,7.3559515 6.0856299,6.0856299 0 0 0 14.37644,7.0277947 Z M 2.4594377,7.5001338 a 6.0856299,6.0856299 0 0 0 -0.045477,0.3658819 6.0852968,6.0852974 0 0 1 0.045477,-0.3658819 z m 12.0131243,0 a 6.0852968,6.0852974 0 0 1 0.04548,0.3658819 6.0856299,6.0856299 0 0 0 -0.04548,-0.3658819 z M 2.4010412,7.9807414 A 6.0856299,6.0856299 0 0 0 2.38037,8.4660001 6.0856299,6.0856299 0 0 0 2.4537531,9.399826 6.0852968,6.0852974 0 0 1 2.3808867,8.4665169 6.0852968,6.0852974 0 0 1 2.4010412,7.9807414 Z M 2.4537532,9.399826 A 6.0856299,6.0856299 0 0 0 8.4659999,14.55163 6.0856299,6.0856299 0 0 0 14.55163,8.4660001 6.0856299,6.0856299 0 0 0 14.53096,7.9807414 6.0852968,6.0852974 0 0 1 14.55112,8.4665169 6.0852968,6.0852974 0 0 1 12.830751,12.699998 H 11.635426 A 5.291852,5.291852 0 0 1 8.4659998,13.757852 5.291852,5.291852 0 0 1 5.2965732,12.699998 H 4.1012554 A 6.0852968,6.0852974 0 0 1 2.4537532,9.399826 Z" />
  </g>
  <path
     style="color:#dfdfdf;fill:currentColor;stroke-width:0.453499"
     class="ColorScheme-Text"
     d="M 7.6440895,5.2915627 7.5741166,6.1277019 A 2.4942457,2.4942457 0 0 0 6.845152,6.5493145 L 6.0851861,6.1914752 5.2915625,7.5661446 5.9815543,8.0453304 a 2.4942457,2.4942457 0 0 0 -0.038086,0.4207261 2.4942457,2.4942457 0 0 0 0.036315,0.4224992 L 5.2915637,9.3659688 6.0851873,10.74064 6.8433812,10.383687 a 2.4942457,2.4942457 0 0 0 0.730736,0.418955 l 0.068202,0.838796 h 1.5872476 l 0.06997,-0.836139 a 2.4942457,2.4942457 0 0 0 0.7289622,-0.421612 l 0.759966,0.357839 0.793623,-1.3746705 -0.689991,-0.4791864 a 2.4942457,2.4942457 0 0 0 0.03809,-0.420726 2.4942457,2.4942457 0 0 0 -0.03632,-0.422499 L 11.582092,7.5670308 10.788469,6.192361 10.030276,6.5493145 A 2.4942457,2.4942457 0 0 0 9.2995383,6.1303591 L 9.2313417,5.2915627 Z M 8.4377133,7.5590588 A 0.90699842,0.90699842 0 0 1 9.3447112,8.4660565 0.90699842,0.90699842 0 0 1 8.4377133,9.373056 0.90699842,0.90699842 0 0 1 7.5307148,8.4660565 0.90699842,0.90699842 0 0 1 8.4377133,7.5590588 Z"
     id="path302" />
  <path
     id="path1695"
     style="fill:#ff7800;fill-opacity:1;stroke-width:0.132289;stroke-linecap:round;stroke-linejoin:round;stroke-miterlimit:42.9"
     d="M 8.4368272,7.5595968 A 0.90699842,0.90699842 0 0 0 7.5299232,8.4665004 0.90699842,0.90699842 0 0 0 8.4368272,9.3734039 0.90699842,0.90699842 0 0 0 9.3437312,8.4665004 0.90699842,0.90699842 0 0 0 8.4368272,7.5595968 Z" />
</svg>
