<?xml version="1.0" encoding="UTF-8" standalone="no"?>
<svg
   width="64"
   height="64"
   version="1.1"
   id="svg516"
   sodipodi:docname="whatsapp.svg"
   inkscape:version="1.2.2 (b0a8486541, 2022-12-01)"
   xmlns:inkscape="http://www.inkscape.org/namespaces/inkscape"
   xmlns:sodipodi="http://sodipodi.sourceforge.net/DTD/sodipodi-0.dtd"
   xmlns="http://www.w3.org/2000/svg"
   xmlns:svg="http://www.w3.org/2000/svg">
  <defs
     id="defs520" />
  <sodipodi:namedview
     id="namedview518"
     pagecolor="#505050"
     bordercolor="#eeeeee"
     borderopacity="1"
     inkscape:showpageshadow="0"
     inkscape:pageopacity="0"
     inkscape:pagecheckerboard="0"
     inkscape:deskcolor="#505050"
     showgrid="false"
     inkscape:zoom="8"
     inkscape:cx="44.75"
     inkscape:cy="33.25"
     inkscape:current-layer="svg516"
     showguides="false" />
  <g
     id="g1591"
     transform="translate(10.256467,-14.845824)">
    <path
       id="circle2-3"
       style="fill:#ffffff;fill-opacity:1;stroke-width:3.7794;paint-order:stroke markers fill"
       d="m 21.743533,19.845824 c -14.9116726,1e-6 -26.9999994,12.088328 -27,27 v 27 h 27 c 14.911675,1e-6 27.000001,-12.088325 27,-27 -10e-7,-14.911674 -12.088326,-27.000001 -27,-27 z m 0,4 c 12.702536,1e-6 22.999999,10.297464 23,23 -10e-7,12.702536 -10.297464,22.999999 -23,23 -12.7025365,0 -22.9999994,-10.297464 -23,-23 6e-7,-12.702536 10.2974635,-23 23,-23 z m -23,46 c 0,-23 23,0 0,0 z"
       sodipodi:nodetypes="sscsssssssscc" />
    <circle
       cx="21.743532"
       cy="46.845825"
       fill="#ffffff"
       opacity="0.1"
       style="display:inline;opacity:1;fill:#679e5f;fill-opacity:1;stroke-width:3.77975;paint-order:stroke markers fill"
       id="circle4"
       r="23.000002" />
  </g>
  <g
     id="g291"
     transform="matrix(1.4168839,0,0,1.4168839,-13.878704,-10.480334)">
    <path
       d="m 28.053264,21.987857 c -0.288951,-0.738794 -0.507026,-0.766055 -0.94727,-0.793317 -0.165259,-0.0081 -0.330671,-0.0126 -0.496123,-0.01363 -0.572451,0 -1.158531,0.182654 -1.514269,0.569772 -0.433427,0.478449 -1.515631,1.590727 -1.515631,3.882077 0,2.29135 1.54698,4.506366 1.765057,4.811697 0.218076,0.316238 3.032626,5.080226 7.399607,7.025351 3.412897,1.51848 4.426954,1.387624 5.206577,1.204969 1.128547,-0.267165 2.555586,-1.164075 2.912683,-2.251819 0.361189,-1.086381 0.361189,-2.017368 0.253515,-2.213653 -0.109033,-0.189469 -0.399352,-0.308058 -0.827328,-0.542509 -0.436152,-0.230361 -2.562399,-1.356271 -2.960388,-1.513026 -0.399352,-0.156755 -0.767356,-0.104967 -1.068574,0.347587 -0.422522,0.628383 -0.827328,1.270396 -1.16671,1.649335 -0.258967,0.302605 -0.681489,0.347588 -1.050857,0.177201 -0.477041,-0.218096 -1.825026,-0.727891 -3.479683,-2.311799 -1.28665,-1.230867 -2.157592,-2.757525 -2.411108,-3.222337 -0.253513,-0.46345 -0.02453,-0.738794 0.174461,-0.995054 0.218077,-0.288975 0.422525,-0.497528 0.6406,-0.766055 0.218077,-0.275344 0.339381,-0.418469 0.483858,-0.734704 0.145838,-0.308059 0.0477,-0.62702 -0.05997,-0.858745 -0.109033,-0.235815 -0.978619,-2.527164 -1.33572,-3.45679"
       fill="#ffffff"
       fill-rule="evenodd"
       id="path512"
       style="stroke-width:1.36304"
       sodipodi:nodetypes="ccccsccccccccccccccccc" />
  </g>
</svg>
