<?xml version="1.0" encoding="UTF-8" standalone="no"?>
<svg
   width="16"
   height="16"
   version="1.1"
   id="svg6"
   sodipodi:docname="network-wired-secure-symbolic.svg"
   inkscape:version="1.2.2 (b0a8486541, 2022-12-01)"
   xmlns:inkscape="http://www.inkscape.org/namespaces/inkscape"
   xmlns:sodipodi="http://sodipodi.sourceforge.net/DTD/sodipodi-0.dtd"
   xmlns="http://www.w3.org/2000/svg"
   xmlns:svg="http://www.w3.org/2000/svg">
  <defs
     id="defs10" />
  <sodipodi:namedview
     id="namedview8"
     pagecolor="#505050"
     bordercolor="#eeeeee"
     borderopacity="1"
     inkscape:showpageshadow="0"
     inkscape:pageopacity="0"
     inkscape:pagecheckerboard="0"
     inkscape:deskcolor="#505050"
     showgrid="false"
     inkscape:zoom="48.0625"
     inkscape:cx="6.9284785"
     inkscape:cy="8.0104031"
     inkscape:current-layer="svg6" />
  <path
     d="m2 2s-1 0-1 1v9c0 1 1 1 1 1h2l1 1h4v-2h-3l-1-1h-2v-7h10v4c0.77432 0 1.4708 0.30949 2 0.80078v-5.8008c0-1-1-1-1-1h-12zm9 11v1l1-1h-1zm3 0s0.066728 0.00624 0.16406 0h-0.16406z"
     fill="#aaaaaa"
     id="path2"
     style="fill:#ffffff;fill-opacity:1" />
  <path
     d="m13 9c-1.108 0-2 0.91-2 2.031v0.969h-1v4h6v-4h-1v-0.969c0-1.12-0.892-2.031-2-2.031zm0 1c0.554 0 1 0.442 1 1v1h-2v-1c0-0.558 0.446-1 1-1z"
     color="#000000"
     fill="#aaaaaa"
     overflow="visible"
     id="path4"
     style="fill:#ffffff;fill-opacity:1" />
</svg>
