<?xml version="1.0" encoding="UTF-8" standalone="no"?>
<svg
   width="16"
   height="16"
   version="1.1"
   id="svg6"
   sodipodi:docname="network-wired-disconnected-symbolic.svg"
   inkscape:version="1.2.2 (b0a8486541, 2022-12-01)"
   xmlns:inkscape="http://www.inkscape.org/namespaces/inkscape"
   xmlns:sodipodi="http://sodipodi.sourceforge.net/DTD/sodipodi-0.dtd"
   xmlns="http://www.w3.org/2000/svg"
   xmlns:svg="http://www.w3.org/2000/svg">
  <defs
     id="defs10" />
  <sodipodi:namedview
     id="namedview8"
     pagecolor="#505050"
     bordercolor="#eeeeee"
     borderopacity="1"
     inkscape:showpageshadow="0"
     inkscape:pageopacity="0"
     inkscape:pagecheckerboard="0"
     inkscape:deskcolor="#505050"
     showgrid="false"
     inkscape:zoom="48.0625"
     inkscape:cx="6.9284785"
     inkscape:cy="8.0104031"
     inkscape:current-layer="svg6" />
  <path
     d="M2 2S1 2 1 3v9c0 1 1 1 1 1h2l1 1h5v-2H6l-1-1H3V4h10v6h2V3c0-1-1-1-1-1z"
     opacity=".3"
     fill="#aaaaaa"
     id="path2"
     style="fill:#ffffff;fill-opacity:1;opacity:1" />
  <path
     d="M11 11v1c0 .27.1.53.28.72l.78.78-.78.78c-.18.18-.28.44-.28.72v1h1c.28 0 .54-.1.72-.28l.78-.79.78.79c.18.18.44.28.72.28h1v-1c0-.28-.1-.54-.28-.72l-.78-.78.78-.78c.18-.19.28-.45.28-.72v-1h-1c-.28 0-.54.1-.72.28l-.78.78-.78-.78c-.18-.18-.44-.28-.72-.28z"
     fill="#aaaaaa"
     id="path4"
     style="fill:#ffffff;fill-opacity:1;opacity:1" />
</svg>
