<?xml version="1.0" encoding="UTF-8" standalone="no"?>
<svg
   width="16"
   height="16"
   version="1.1"
   id="svg4"
   sodipodi:docname="network-wired-no-route-symbolic.svg"
   inkscape:version="1.2.2 (b0a8486541, 2022-12-01)"
   xmlns:inkscape="http://www.inkscape.org/namespaces/inkscape"
   xmlns:sodipodi="http://sodipodi.sourceforge.net/DTD/sodipodi-0.dtd"
   xmlns="http://www.w3.org/2000/svg"
   xmlns:svg="http://www.w3.org/2000/svg">
  <defs
     id="defs8" />
  <sodipodi:namedview
     id="namedview6"
     pagecolor="#505050"
     bordercolor="#eeeeee"
     borderopacity="1"
     inkscape:showpageshadow="0"
     inkscape:pageopacity="0"
     inkscape:pagecheckerboard="0"
     inkscape:deskcolor="#505050"
     showgrid="false"
     inkscape:zoom="67.970639"
     inkscape:cx="6.6205056"
     inkscape:cy="8.8420531"
     inkscape:current-layer="svg4" />
  <path
     id="path293"
     style="fill:#ffffff;stroke-linecap:round;stroke-linejoin:round;stroke-miterlimit:42.9;paint-order:fill markers stroke"
     d="m 7,10 v 0.5 A 0.5,0.5 0 0 1 7.5,10 Z m 0,0.5 V 11 H 7.5 A 0.5,0.5 0 0 1 7,10.5 Z M 7.5,11 H 8 V 10.5 A 0.5,0.5 0 0 1 7.5,11 Z m 0.025391,-1 A 0.5,0.5 0 0 1 8,10.474609 V 10 Z M 2,2 C 2,2 1,2 1,3 v 9 c 0,1 1,1 1,1 h 2 l 1,1 h 6 l 1,-1 h 2 c 0,0 1,0.13 1,-1 V 3 C 15,2 14,2 14,2 Z m 6,2 c 1.1,0 2,0.895 2,2 0,1.105 -0.9,2 -2,2 V 9 H 7 V 7 H 8 C 8.55,7 9,6.552 9,6 9,5.448 8.55,5 8,5 7.45,5 7,5.448 7,6 H 6 C 6,4.895 6.9,4 8,4 Z m -1,6 h 1 v 1 H 7 Z" />
</svg>
