<?xml version="1.0" encoding="UTF-8" standalone="no"?>
<svg
   width="64"
   height="64"
   version="1.1"
   viewBox="0 0 64 64"
   id="svg21"
   sodipodi:docname="inode-directory.svg"
   inkscape:version="1.2.2 (b0a8486541, 2022-12-01)"
   xmlns:inkscape="http://www.inkscape.org/namespaces/inkscape"
   xmlns:sodipodi="http://sodipodi.sourceforge.net/DTD/sodipodi-0.dtd"
   xmlns="http://www.w3.org/2000/svg"
   xmlns:svg="http://www.w3.org/2000/svg">
  <sodipodi:namedview
     id="namedview23"
     pagecolor="#505050"
     bordercolor="#eeeeee"
     borderopacity="1"
     inkscape:showpageshadow="0"
     inkscape:pageopacity="0"
     inkscape:pagecheckerboard="0"
     inkscape:deskcolor="#505050"
     showgrid="false"
     inkscape:zoom="11.203125"
     inkscape:cx="32.04463"
     inkscape:cy="32.133891"
     inkscape:window-width="1920"
     inkscape:window-height="972"
     inkscape:window-x="0"
     inkscape:window-y="0"
     inkscape:window-maximized="1"
     inkscape:current-layer="svg21" />
  <defs
     id="defs8">
    <style
       id="current-color-scheme"
       type="text/css">.ColorScheme-Text {
        color:#333333;
      }
      .ColorScheme-Highlight {
        color:#ff9800;
      }</style>
    <linearGradient
       id="linearGradient892"
       x1="-197.72"
       x2="-197.72"
       y1="263.86"
       y2="273.76"
       gradientTransform="rotate(-45,-337.55,-145.8)"
       gradientUnits="userSpaceOnUse">
      <stop
         offset="0"
         id="stop3" />
      <stop
         stop-opacity="0"
         offset="1"
         id="stop5" />
    </linearGradient>
  </defs>
  <g
     transform="matrix(3.7796,0,0,3.7796,0,0.01563099)"
     id="g19">
    <path
       class="ColorScheme-Highlight"
       transform="scale(0.26458)"
       d="m 27.002,8.9844 -14,0.00391 c -1.1097,0 -1.4926,1.0128 -2.002,1.998 v 0.01367 h -1 c -2.216,0 -4,1.784 -4,4 v 5 c -2.216,0 -4,1.784 -4,4 v 28 c 0,2.216 1.784,4 4,4 h 52 c 2.216,0 4,-1.784 4,-4 v -32 c 0,-2.216 -1.784,-4 -4,-4 v -1 c 0,-2.216 -1.784,-4 -4,-4 H 37.141 c -0.04729,-0.0032 -0.09249,-0.01387 -0.14062,-0.01367 h -7.9961 c -0.58584,-0.94113 -0.8907,-2.002 -2.002,-2.002 z"
       fill="#ff9800"
       id="path10" />
    <path
       id="shadow"
       d="M 7.1441,2.3771 3.44,2.37813 c -0.2936,0 -0.39492,0.26798 -0.52967,0.52864 V 2.91039 H 2.64575 c -0.58631,0 -1.0583,0.472 -1.0583,1.0583 v 1.3229 h 6.6145 l 0.79373,-1.0583 h 6.3499 V 3.96871 c 0,-0.58631 -0.472,-1.0583 -1.0583,-1.0583 L 7.67388,2.90679 C 7.51888,2.65779 7.43822,2.37712 7.14421,2.37712 Z"
       fill="#000000"
       opacity="0.2" />
    <rect
       x="3.704"
       y="2.6400001"
       width="3.175"
       height="0.52899998"
       rx="0.26449999"
       ry="0.26449999"
       opacity="0.25"
       id="rect15" />
    <path
       transform="scale(0.26458)"
       d="M 62,40 46,56 h 12 c 2.216,0 4,-1.784 4,-4 z"
       fill="url(#linearGradient892)"
       opacity="0.2"
       style="fill:url(#linearGradient892)"
       id="path17" />
  </g>
</svg>
